%FSTAX26Y26*%
%MOMM*%
%SFA1B1*%

%IPPOS*%
%AMD35*
4,1,8,0.500380,0.287020,-0.500380,0.287020,-0.787400,0.000000,-0.787400,0.000000,-0.500380,-0.287020,0.500380,-0.287020,0.787400,0.000000,0.787400,0.000000,0.500380,0.287020,0.0*
1,1,0.572120,0.500380,0.000000*
1,1,0.572120,-0.500380,0.000000*
1,1,0.572120,-0.500380,0.000000*
1,1,0.572120,0.500380,0.000000*
%
%AMD70*
4,1,8,-0.294640,0.050800,-0.294640,-0.050800,-0.185420,-0.160020,0.185420,-0.160020,0.294640,-0.050800,0.294640,0.050800,0.185420,0.160020,-0.185420,0.160020,-0.294640,0.050800,0.0*
1,1,0.220000,-0.185420,0.050800*
1,1,0.220000,-0.185420,-0.050800*
1,1,0.220000,0.185420,-0.050800*
1,1,0.220000,0.185420,0.050800*
%
%AMD71*
4,1,8,-0.050800,-0.294640,0.050800,-0.294640,0.160020,-0.185420,0.160020,0.185420,0.050800,0.294640,-0.050800,0.294640,-0.160020,0.185420,-0.160020,-0.185420,-0.050800,-0.294640,0.0*
1,1,0.220000,-0.050800,-0.185420*
1,1,0.220000,0.050800,-0.185420*
1,1,0.220000,0.050800,0.185420*
1,1,0.220000,-0.050800,0.185420*
%
%ADD14R,0.599999X0.374999*%
%ADD15R,0.599999X0.376999*%
%ADD26R,2.399995X2.899994*%
%ADD27R,1.399997X2.799994*%
%ADD30R,0.899998X0.399999*%
G04~CAMADD=35~8~0.0~0.0~619.6~225.2~112.6~0.0~15~0.0~0.0~0.0~0.0~0~0.0~0.0~0.0~0.0~0~0.0~0.0~0.0~0.0~619.6~225.2*
%ADD35D35*%
%ADD36R,1.573897X0.572129*%
%ADD38R,0.499999X0.699999*%
%ADD65R,1.102398X0.502399*%
%ADD66R,2.452395X3.252393*%
%ADD67R,1.202398X1.552397*%
%ADD68R,1.027398X1.052398*%
%ADD69R,0.952398X0.922398*%
G04~CAMADD=70~8~0.0~0.0~126.0~232.3~43.3~0.0~15~0.0~0.0~0.0~0.0~0~0.0~0.0~0.0~0.0~0~0.0~0.0~0.0~90.0~233.0~126.0*
%ADD70D70*%
G04~CAMADD=71~8~0.0~0.0~126.0~232.3~43.3~0.0~15~0.0~0.0~0.0~0.0~0~0.0~0.0~0.0~0.0~0~0.0~0.0~0.0~180.0~126.0~232.0*
%ADD71D71*%
%ADD72R,2.019996X2.019996*%
%ADD73R,0.999998X0.849998*%
%ADD74R,0.849998X0.999998*%
%ADD75R,0.699999X0.699999*%
%ADD76R,0.699999X0.699999*%
%ADD77R,0.399999X0.349999*%
%ADD78R,0.349999X0.399999*%
%ADD79O,2.252395X0.452399*%
%ADD80O,0.452399X2.252395*%
%ADD81R,3.152394X2.852394*%
%ADD82R,1.352397X0.452399*%
%ADD83R,1.952396X1.152398*%
%ADD84R,1.002398X1.102398*%
%ADD85R,0.872398X1.232398*%
%ADD86C,1.152398*%
%ADD87R,1.152398X1.152398*%
%ADD88C,1.676397*%
%LNpcb_soldermask_top-1*%
%LPD*%
G54D14*
X11726595Y06858D03*
Y07366D03*
X1172657Y087884D03*
Y092964D03*
X11726595Y107188D03*
Y112268D03*
G54D15*
X11726595Y0635D03*
X1172657Y082804D03*
X11726595Y102108D03*
G54D26*
X03325393Y079502D03*
X09425381D03*
X15521381Y483108D03*
X09421393D03*
G54D27*
X07335977Y03683D03*
X09935997D03*
X18470397Y443484D03*
X15870377D03*
G54D30*
X03614597Y22895788D03*
Y235458D03*
Y24195786D03*
X01414576D03*
Y235458D03*
Y22895788D03*
G54D35*
X15091232Y20792389D03*
X16861942Y217424D03*
G54D36*
X15091232Y22692385D03*
G54D38*
X10541Y56649188D03*
X12065025Y56641974D03*
Y57541972D03*
X10541Y57549186D03*
X090424D03*
X07543825Y57567372D03*
Y56667349D03*
X090424Y56649188D03*
G54D65*
X136652Y42405579D03*
Y43205577D03*
Y44005576D03*
Y448056D03*
X09865182D03*
Y44005576D03*
Y43205577D03*
Y42405579D03*
G54D66*
X11765178Y43605577D03*
G54D67*
X02553792Y44504178D03*
Y48104196D03*
X01103782D03*
Y44504178D03*
G54D68*
X04285488Y60132976D03*
Y61532998D03*
X01810486D03*
Y60132976D03*
G54D69*
X12447574Y51236981D03*
Y53156993D03*
X11453799Y52197D03*
X08713774Y53156993D03*
Y51236981D03*
X15187599Y52197D03*
G54D70*
X08034578Y14724608D03*
Y15124607D03*
Y15524581D03*
Y1592458D03*
Y1632458D03*
X10964595D03*
Y1592458D03*
Y15524581D03*
Y15124607D03*
Y14724608D03*
G54D71*
X08299577Y14189583D03*
X08699576D03*
X09099575D03*
X094996D03*
X09899599D03*
X10299598D03*
X10699597D03*
Y171196D03*
X10299598D03*
X09899599D03*
X094996D03*
X09099575D03*
X08699576D03*
X08299577D03*
G54D72*
X094996Y15654578D03*
G54D73*
X096012Y10983188D03*
Y12283186D03*
X04724374Y18165394D03*
Y19465391D03*
G54D74*
X05496788Y112014D03*
X06796786D03*
X07751597Y20226578D03*
X064516D03*
G54D75*
X05545175Y123698D03*
X06545199D03*
X10752175Y18742177D03*
X11752199D03*
X12615799Y196596D03*
X13301599Y211074D03*
X15638399Y24003D03*
X13047599Y258064D03*
X14638375Y24003D03*
X12047575Y258064D03*
X07840599Y19083578D03*
Y18194578D03*
X11615775Y196596D03*
X12301575Y211074D03*
X06840601Y19083578D03*
X06840575Y18194578D03*
X02328799Y493776D03*
X01328775D03*
X16873575Y518414D03*
X17873599D03*
Y527304D03*
X16873575D03*
G54D76*
X05867374Y18059196D03*
X08763Y19621779D03*
X09651974Y19613778D03*
Y20613776D03*
X08763Y20621777D03*
X10541Y20613776D03*
Y19613778D03*
X05867374Y19059169D03*
X03048Y19997801D03*
Y20997799D03*
X01854174Y20997773D03*
Y19997775D03*
X006604D03*
Y20997799D03*
X176784Y35847375D03*
Y36847399D03*
X12065Y54160775D03*
Y55160799D03*
X10726978Y59641181D03*
Y60641179D03*
Y61596981D03*
Y62596979D03*
X06604Y55160799D03*
Y54160775D03*
X075692D03*
X085344D03*
Y55160799D03*
X075692D03*
G54D77*
X106172Y12830987D03*
Y13330986D03*
X112776D03*
Y12830987D03*
X119126D03*
Y13330986D03*
X11835155Y16824401D03*
Y173244D03*
X127Y22457587D03*
Y22957586D03*
X134366Y22762387D03*
Y23262386D03*
Y24032387D03*
Y24532386D03*
X103124Y254254D03*
Y25925399D03*
X112014Y22855986D03*
Y22355987D03*
X097028Y25429387D03*
Y25929386D03*
X090932Y25925399D03*
Y254254D03*
X084836D03*
Y25925399D03*
X07874D03*
Y254254D03*
X072644D03*
Y25925399D03*
X066548D03*
Y254254D03*
X060452D03*
Y25925399D03*
X060706Y24176786D03*
X067056D03*
Y23676787D03*
X060706D03*
Y21738386D03*
X067056D03*
Y21238387D03*
X060706D03*
X011938Y297942D03*
Y30294199D03*
X005588D03*
Y297942D03*
X025654Y35894187D03*
Y36394186D03*
Y37138787D03*
Y37638786D03*
X080518Y41583787D03*
Y42083786D03*
X17272Y33824799D03*
Y33324799D03*
X179578D03*
Y33824799D03*
X186436D03*
Y33324799D03*
G54D78*
X03077387Y181102D03*
X03577386D03*
Y187452D03*
X03077387D03*
X05431586Y20447D03*
Y21082D03*
X08258987Y21394978D03*
X08758986D03*
X09401987D03*
X09901986D03*
X10544987Y213868D03*
X11044986D03*
X12932587Y21844D03*
X13432586D03*
X06574586Y224028D03*
X06074587D03*
Y230378D03*
X06574586D03*
X05431586Y224028D03*
Y21717D03*
X04931587D03*
Y224028D03*
X03065399Y218186D03*
X025654D03*
X04931587Y21082D03*
Y20447D03*
X01926386Y218186D03*
X01426387D03*
X01189786Y187452D03*
X00689787D03*
Y181102D03*
X01189786D03*
X01883587D03*
X02383586D03*
Y187452D03*
X01883587D03*
X01602359Y31201715D03*
X0110236D03*
X01019987Y345186D03*
X01519986D03*
G54D79*
X1540482Y29827296D03*
Y30327295D03*
Y30827294D03*
Y31327293D03*
Y31827292D03*
Y32327291D03*
Y3282729D03*
Y33327314D03*
Y33827288D03*
Y34327287D03*
Y34827286D03*
Y35327285D03*
Y35827309D03*
Y36327308D03*
Y36827307D03*
Y37327281D03*
X04204817Y37327306D03*
Y36827307D03*
Y36327308D03*
Y35827309D03*
Y35327285D03*
Y34827286D03*
Y34327287D03*
Y33827288D03*
Y33327289D03*
Y3282729D03*
Y32327291D03*
Y31827292D03*
Y31327293D03*
Y30827294D03*
Y30327295D03*
Y29827296D03*
G54D80*
X13054838Y27977287D03*
X13554837D03*
X12554839D03*
X1205484D03*
X11554841D03*
X11054816D03*
X10554817D03*
X10054818D03*
X09554845Y27977312D03*
X0905482Y27977287D03*
X08554821D03*
X08054822D03*
X07554823D03*
X07054824D03*
X06554825D03*
X06054826D03*
X13054838Y3917729D03*
X13554837D03*
X12554839D03*
X1205484D03*
X11554815D03*
X11054816D03*
X10554817D03*
X10054818D03*
X09554819D03*
X0905482D03*
X08554821D03*
X08054822D03*
X07554823D03*
X07054824D03*
X06554825D03*
X06054826D03*
G54D81*
X16165576Y077486D03*
Y18108599D03*
G54D82*
X14305584Y09678593D03*
Y10178592D03*
Y10678591D03*
Y1117859D03*
Y11678589D03*
Y12178588D03*
Y12678587D03*
Y13178586D03*
Y13678585D03*
Y14178584D03*
Y14678583D03*
Y15178608D03*
Y15678581D03*
Y16178606D03*
G54D83*
X0127Y35478389D03*
Y37978384D03*
G54D84*
X00785545Y32077431D03*
X0193553D03*
Y33527441D03*
X00785545D03*
G54D85*
X15273578Y59854998D03*
X17233595D03*
Y62814987D03*
X15273578D03*
X13313587D03*
Y59854998D03*
G54D86*
X011938Y151384D03*
Y164084D03*
X04699Y449072D03*
Y461772D03*
Y474472D03*
Y48717174D03*
Y49987174D03*
G54D87*
X011938Y138684D03*
X04699Y436372D03*
G54D88*
X16165576Y077486D03*
X159766Y110744D03*
X159512Y147828D03*
X16165576Y18108599D03*
M02*