%FSTAX26Y26*%
%MOMM*%
%SFA1B1*%

%IPPOS*%
%ADD58C,0.100000*%
%ADD60C,0.253999*%
%LNpcb_legend_bot-1*%
%LPD*%
G36*
X16064966Y51280237D02*
X15969361D01*
Y51778966*
X15693034*
Y51329894*
X15597428*
Y51778966*
X15348585*
Y51299237*
X15252954*
Y51886739*
X16064966*
Y51280237*
G37*
G36*
Y51044602D02*
X15743758D01*
X15723158Y51044068*
X15704667Y51042493*
X15687751Y51040385*
X15671901Y5103721*
X15658185Y51034035*
X15645485Y51029819*
X15634385Y5102611*
X15624886Y51021361*
X15616428Y51017119*
X15609036Y51012902*
X1560322Y51009194*
X1559847Y51006019*
X15594787Y51002869*
X15592653Y51000736*
X15591078Y50999161*
X15590545Y50998628*
X15583154Y50989661*
X15577337Y5098067*
X1557152Y5097117*
X15566771Y50961645*
X15563088Y50952679*
X15559913Y50943154*
X15557271Y50934188*
X15555137Y5092573*
X15553029Y50918338*
X15551988Y50910947*
X15550921Y50904597*
X15550388Y5089878*
X1554988Y50894564*
Y50888214*
X15550388Y50873939*
X15552496Y50860756*
X15555671Y50849123*
X15558846Y50838557*
X15562021Y50830632*
X15563596Y50826924*
X15565196Y50824282*
X15566237Y50822174*
X15567304Y50820599*
X15567837Y50819532*
Y50818999*
X15575229Y50808966*
X15583154Y508*
X15591078Y50793116*
X15599003Y507873*
X15605861Y50783083*
X15611144Y50779908*
X15613278Y50778867*
X15614853Y50778333*
X1561592Y507778*
X15616428*
X15622244Y50775692*
X15629128Y50774092*
X15643377Y50770917*
X15658185Y50768808*
X15672968Y50767767*
X15679826Y50767234*
X15686709Y507667*
X15692526*
X15697276Y50766167*
X15701492*
X15704667*
X15706775*
X15707309*
X16064966*
Y50666319*
X157036*
X15690926*
X15679318*
X15668726Y50666853*
X15659227Y50667386*
X15650235*
X15642336Y5066792*
X15635452Y50668428*
X15629128Y50668961*
X15623311Y50669494*
X15619069Y50670028*
X15614853Y50670536*
X15611678*
X1560957Y50671069*
X15607995Y50671603*
X15606928*
X15606395*
X15591078Y50675311*
X15576804Y50680061*
X15564129Y50685344*
X15553563Y50690627*
X15548813Y50692735*
X15545104Y50695377*
X15541421Y50697485*
X15538246Y50699085*
X15536138Y5070066*
X15534538Y50701727*
X15533497Y50702235*
X15532963Y50702768*
X15527147Y5070701*
X15521863Y5071176*
X1551183Y5072286*
X15503372Y5073396*
X15495981Y50744526*
X15490164Y50754559*
X15488056Y50758775*
X15486456Y50762484*
X15484881Y50765659*
X1548384Y50767767*
X15482773Y50769342*
Y50769875*
X15476423Y50786766*
X15471673Y50803683*
X15467965Y50820066*
X15465856Y50834848*
X15464815Y50841732*
X15464282Y50848056*
X15463748Y5085334*
Y50858115*
X15463215Y50861798*
Y50878181*
X15464282Y50889281*
X15467457Y50910413*
X15472206Y50929946*
X15478556Y50947929*
X15485948Y5096482*
X15493873Y50980136*
X15502839Y50994411*
X1551183Y51006552*
X15520797Y51018186*
X15529788Y51027685*
X15537713Y5103561*
X15545104Y51042493*
X15551454Y51047777*
X15556204Y5105146*
X15559379Y51054101*
X15559913Y51054635*
X15476956*
Y51144449*
X16064966*
Y51044602*
G37*
G36*
X15800298Y50542698D02*
X15825114Y50540589D01*
X15848888Y50536881*
X15871088Y50532131*
X15891154Y50526848*
X15909645Y50520498*
X15926562Y5051364*
X15941878Y50506757*
X15955086Y50500432*
X15966719Y50493549*
X15976752Y50487224*
X15984677Y50481941*
X15991027Y50477191*
X15995777Y50473483*
X15998418Y50471374*
X1599946Y50470308*
X16013201Y50456058*
X16025368Y50440717*
X16035909Y50424867*
X160449Y50409017*
X16052825Y5039266*
X16059175Y50376277*
X16063925Y50360961*
X16068141Y50345619*
X16071316Y5033137*
X16073958Y50318162*
X16075558Y50305995*
X16077133Y50295962*
X16077666Y50287529*
Y50284354*
X160782Y50281179*
Y50275896*
X16077666Y50258446*
X16075558Y50241555*
X16072916Y50225172*
X16069208Y50209856*
X16064966Y50195581*
X16060216Y50182373*
X16054933Y50170232*
X1604965Y50158599*
X16044367Y50148566*
X16039084Y501396*
X16034334Y50132183*
X16030117Y50125325*
X16026409Y50120575*
X16023767Y50116867*
X16021659Y50114225*
X16021126Y50113692*
X16010026Y5010155*
X15997885Y50090984*
X1598521Y50081459*
X15972536Y50072493*
X15959328Y50065101*
X1594612Y50058218*
X15932886Y50052427*
X15920212Y50047118*
X15908604Y50042902*
X15897504Y50039219*
X15887979Y50036577*
X15879546Y50034444*
X15872155Y50032869*
X15866846Y50031802*
X15865271Y50031269*
X15863697Y50030761*
X15863163*
X1586263*
X15849422Y50129008*
X15863163Y50131141*
X15875838Y50134316*
X15887471Y50137466*
X15898545Y50141174*
X15908604Y50145391*
X1591757Y50149633*
X15925495Y50153849*
X15932886Y50158065*
X15939236Y50162307*
X15945053Y50166016*
X15949803Y50169699*
X15953511Y50172874*
X15956686Y50175515*
X15958794Y50177623*
X15959836Y5017869*
X15960369Y50179198*
X15966719Y50186615*
X15972002Y5019454*
X15976752Y50202998*
X15980968Y50210897*
X15984677Y50219356*
X15987318Y5022728*
X15991535Y50242597*
X15993135Y50250013*
X15994176Y50256338*
X15995243Y50262155*
X15995777Y50266904*
X15996285Y50271146*
Y50276937*
X15995777Y50290145*
X15994176Y50303379*
X15991535Y50314987*
X15987852Y5032662*
X15984143Y50337186*
X15979394Y50346686*
X15974644Y50355677*
X15969361Y50364136*
X15964585Y50370994*
X15959836Y50377318*
X15955086Y50383135*
X15951377Y50387377*
X15947694Y5039106*
X15945053Y50393701*
X15943478Y50395301*
X15942945Y50395835*
X15931845Y5040376*
X15920212Y50410618*
X15907004Y50416968*
X15893288Y50422225*
X15879013Y50426467*
X15864738Y50430176*
X15850489Y50433325*
X15836747Y50435459*
X15823539Y50437567*
X15810865Y50438608*
X15799765Y50439675*
X15790265Y50440717*
X15781807*
X15778632Y5044125*
X1577599*
X15773882*
X15772282*
X15771241*
X15770707*
X15749574Y50440717*
X15729508Y50439142*
X15711525Y50437034*
X15694634Y50433859*
X15678785Y50430176*
X15665043Y50426467*
X15652369Y50422225*
X15641269Y50417476*
X15631236Y50413259*
X15622778Y50409017*
X15615386Y50405334*
X1560957Y50401626*
X15605328Y50398476*
X15602178Y50396343*
X15600045Y50394768*
X15599537Y50394235*
X15590012Y50385268*
X15581579Y5037521*
X15574695Y50365177*
X15568345Y50355144*
X15563088Y50344578*
X15558846Y50334545*
X15555137Y50324486*
X15552496Y50314987*
X15550388Y50305995*
X15548279Y50298096*
X15547238Y50290679*
X15546705Y50284354*
X15546171Y50279071*
X15545638Y50274829*
Y5027168*
X15546171Y50262688*
X15546705Y50253696*
X15548279Y50245238*
X15550388Y50237339*
X15552496Y50229922*
X15555137Y50222531*
X15557779Y50216206*
X15560446Y50210389*
X15563596Y50205106*
X15566237Y50200356*
X15568879Y50196115*
X15570987Y5019294*
X15573121Y50190298*
X15574695Y5018819*
X15575229Y50187148*
X15575762Y50186615*
X15581579Y50180265*
X15587903Y50174448*
X15602178Y50163882*
X15616961Y50155449*
X15631236Y50148566*
X15638094Y50145924*
X15644444Y50143816*
X15649727Y50141708*
X1565501Y50140108*
X15658693Y50139066*
X15661868Y50137999*
X15663976Y50137466*
X1566451*
X15649727Y5004026*
X15633344Y50043969*
X15618028Y50048718*
X15603753Y50054002*
X15590545Y50059818*
X15578404Y50066143*
X15566771Y50073026*
X15556738Y50079351*
X15547238Y50086234*
X15539288Y50092559*
X15531896Y50098909*
X15525572Y50104192*
X15520797Y50108942*
X15517114Y50113158*
X15513939Y50116333*
X15512364Y50118467*
X1551183Y50118975*
X15503372Y50130608*
X15495981Y50143283*
X15489097Y50155957*
X1548384Y50169165*
X15479064Y50182373*
X15474848Y50195048*
X15471673Y50207748*
X15469031Y50219889*
X15467457Y50231522*
X15465856Y50242089*
X15464815Y50251055*
X15463748Y50259513*
Y50266396*
X15463215Y50271146*
Y50275363*
X15463748Y50289637*
X15464815Y50303379*
X1546639Y50316587*
X15469031Y50329261*
X15471673Y50341403*
X15474315Y50353036*
X15478023Y50364136*
X15481198Y50374169*
X15484348Y50383135*
X15487523Y50391593*
X15490698Y50398476*
X15493339Y50404801*
X15495981Y50409551*
X15497556Y50412726*
X15498622Y50415367*
X15499156Y50415901*
X15506014Y50427509*
X15513939Y50438608*
X15522397Y50448667*
X15530855Y50458166*
X15539821Y50466625*
X15548813Y50474549*
X15557779Y50481941*
X15566237Y50488265*
X15574162Y50493549*
X15582087Y50498857*
X1558897Y5050254*
X15594787Y50506249*
X15599537Y5050889*
X1560322Y50510465*
X15605328Y50511532*
X15606395Y50512065*
X15620136Y50517856*
X15633877Y50522606*
X15648127Y50526848*
X15662402Y50530556*
X15676676Y50533198*
X15690392Y5053584*
X15704134Y50537948*
X15716808Y50539523*
X15728442Y50541097*
X15739541Y50542164*
X15749041Y50542698*
X15757499Y50543231*
X15763849Y50543739*
X15769107*
X15772282*
X15772815*
X15773349*
X15800298Y50542698*
G37*
G36*
X15798165Y49981612D02*
X15823539Y49979503D01*
X15847847Y49975795*
X15869488Y49970537*
X15890113Y49965229*
X15909137Y49958371*
X15926028Y49951513*
X15941344Y49944629*
X15954552Y49937771*
X15966719Y49930888*
X15976752Y4992403*
X15984677Y49918213*
X15991027Y49913463*
X15995777Y49909755*
X15998418Y49907647*
X1599946Y49906605*
X16013201Y49891797*
X16025368Y49875948*
X16035909Y49860098*
X160449Y49843207*
X16052825Y49826291*
X16059175Y49809908*
X16063925Y49793525*
X16068141Y49778208*
X16071316Y49763426*
X16073958Y49750218*
X16075558Y49738076*
X16077133Y49727485*
Y49722735*
X16077666Y49719052*
Y49715343*
X160782Y49712168*
Y49706885*
X16077666Y49692636*
X16076599Y49678361*
X16075025Y49665153*
X16072383Y49651945*
X16069741Y49639804*
X16066566Y49628171*
X16063391Y49617071*
X16060216Y49607038*
X16057067Y49597538*
X16053358Y49589613*
X16050717Y49582197*
X16048075Y49575872*
X16045434Y49571122*
X16043859Y49567947*
X16042792Y49565306*
X16042259Y49564772*
X16035401Y49553139*
X16027476Y49542065*
X16019551Y49531498*
X16011093Y49521973*
X16003168Y49513007*
X1599471Y49505082*
X15986252Y49497665*
X15978327Y49490807*
X15970935Y49484991*
X15963544Y49480241*
X15957727Y49476025*
X15951911Y49472316*
X15947694Y49469675*
X15943986Y49467566*
X15941878Y494665*
X15941344Y49465966*
X1592867Y49460175*
X15914928Y49454892*
X15900679Y49450117*
X15885871Y494459*
X15871088Y49442725*
X15856305Y49440084*
X15841497Y49437975*
X15827756Y49435867*
X15814548Y49434267*
X15801873Y49433226*
X15791307Y49432692*
X15781274Y49432159*
X15773882Y49431625*
X15770707*
X15767532*
X15765424*
X15763849*
X15763316*
X15762782*
X157369Y49432692*
X15713125Y494348*
X15690392Y49438509*
X1566926Y49443792*
X15649727Y49449609*
X15631236Y49455933*
X15614853Y49462817*
X15600045Y49470208*
X15586837Y49477599*
X15575229Y49484457*
X15565729Y49490807*
X15557779Y49496624*
X15551454Y49501374*
X15546705Y49505616*
X15544063Y49507724*
X15542996Y49508765*
X15528747Y49523573*
X1551658Y49539423*
X15506014Y49555273*
X15497048Y49572164*
X15489097Y49588547*
X15482773Y4960493*
X1547749Y49621313*
X15473248Y49636629*
X15470098Y49650878*
X15467457Y4966462*
X15465856Y49676253*
X15464282Y49686819*
Y49691036*
X15463748Y49695277*
Y49698427*
X15463215Y49701602*
Y49706885*
X15463748Y49726977*
X15465856Y49745976*
X15469031Y49764467*
X15473248Y49781917*
X15478556Y49797766*
X1548384Y49813083*
X15489631Y49827357*
X15495981Y49840032*
X15502305Y49851665*
X15508122Y49862206*
X15513405Y49870664*
X15518688Y49878056*
X1552293Y49883872*
X15526105Y49888114*
X15528213Y49890756*
X15528747Y49891797*
X15536138Y49900255*
X15544596Y49907647*
X15561487Y49921922*
X15580512Y49934063*
X15600045Y49944096*
X15619603Y49953087*
X15640202Y49960479*
X15660293Y49966295*
X15679318Y49971045*
X15697809Y49975287*
X15715234Y49977929*
X15731083Y49980037*
X15737941Y4998057*
X15744291Y49981078*
X15750108Y49981612*
X15755391Y49982145*
X15760141*
X15763849Y49982678*
X15766999*
X15769107*
X15770707*
X15771241*
X15798165Y49981612*
G37*
G36*
X15788665Y49349736D02*
X15804515Y49348694D01*
X15819831Y4934712*
X15834639Y49344986*
X15848888Y49342878*
X15862096Y49340236*
X15874263Y49337061*
X15885871Y49333886*
X15895929Y49331245*
X15904895Y49328095*
X1591282Y49325453*
X15919678Y49322812*
X15924987Y49321212*
X1592867Y49319637*
X15930778Y4931857*
X15931845Y49318037*
X15944519Y49311712*
X15956153Y49304829*
X15967227Y49297437*
X15977819Y49290046*
X15987318Y49282121*
X15996285Y4927473*
X16004235Y49267338*
X16011626Y49259947*
X16017951Y49253063*
X16023767Y49246739*
X16028517Y49241456*
X16032759Y49236147*
X16035401Y49232464*
X16038042Y49229289*
X16039084Y49227181*
X16039617Y49226647*
X16046475Y49215548*
X16052292Y4920394*
X16057575Y4919284*
X16061817Y49181207*
X160655Y4917064*
X16068675Y49159566*
X16071316Y49149508*
X16073424Y49139475*
X16075025Y49130508*
X16076066Y49122558*
X16077133Y49115167*
X16077666Y49108842*
Y49104067*
X160782Y49100384*
Y49097209*
X16077133Y49077676*
X16074491Y49058652*
X16070275Y49041735*
X16064458Y49025352*
X16058108Y4901057*
X16050717Y48997362*
X16042792Y48985195*
X16034334Y48974121*
X16026409Y48964088*
X16018484Y48955629*
X16011093Y48948746*
X16004743Y48942955*
X15998926Y4893818*
X1599471Y48935005*
X15992068Y48932896*
X15991027Y48932388*
X16064966*
Y48839907*
X15252954*
Y48939246*
X15544596*
X15531388Y48949813*
X15520289Y48960913*
X15510256Y48971987*
X15501797Y48982579*
X15494914Y48992078*
X15492272Y48996295*
X15490164Y49000003*
X15488056Y49002645*
X15486989Y49004753*
X15485948Y49006328*
Y49006861*
X15481706Y49014786*
X15478556Y49022711*
X1547274Y49039094*
X15468498Y49054943*
X15465856Y49069726*
X15465348Y49076076*
X15464282Y49082426*
X15463748Y49087709*
Y49092459*
X15463215Y49096168*
Y49101425*
X15463748Y49115167*
X15464815Y49127867*
X15466923Y49140541*
X15469031Y49152683*
X15472206Y49164316*
X15475381Y49174882*
X15479064Y49185449*
X15482239Y49194415*
X15485948Y49202873*
X15489631Y49210798*
X15492806Y49217148*
X15495981Y49222431*
X15498089Y49227181*
X15500197Y49230356*
X15501264Y49232464*
X15501797Y49232997*
X15509189Y49243564*
X15517647Y49253597*
X15526105Y49263096*
X15535071Y49271555*
X15544063Y49279479*
X15553029Y49286871*
X15562021Y49293221*
X15570987Y49299037*
X15579445Y49304321*
X15586837Y49308537*
X1559372Y49312779*
X15600045Y49315395*
X1560482Y49318037*
X15608503Y49319637*
X15610636Y49320678*
X15611678Y49321212*
X15625419Y49326495*
X15639161Y49330737*
X15652877Y4933442*
X15667151Y49338128*
X15680893Y4934077*
X15694101Y49343411*
X15706775Y49344986*
X15718409Y49346586*
X15730016Y49347628*
X15740075Y49348694*
X15749041Y49349228*
X15756966Y49349736*
X15763316Y49350269*
X15768066*
X15770707*
X15771749*
X15788665Y49349736*
G37*
G36*
X15802406Y48715244D02*
X15826714Y48713136D01*
X15849955Y48709427*
X15871621Y48704677*
X15891154Y48698861*
X15909645Y48692511*
X15926562Y48685653*
X15941344Y48678261*
X15954552Y48671378*
X15966186Y4866452*
X15976219Y4865817*
X15984143Y48652379*
X15990493Y48647604*
X15995243Y48643921*
X15997885Y48641787*
X15998926Y48640746*
X16012668Y48625937*
X16024834Y48610088*
X16035909Y4859373*
X160449Y48576814*
X16052292Y48559389*
X16058642Y48542473*
X16063925Y48525557*
X16068141Y48509707*
X16071316Y48494391*
X16073958Y48480675*
X16075558Y48467975*
X16077133Y48456875*
Y48452125*
X16077666Y48447909*
Y48444734*
X160782Y48441559*
Y48435768*
X16077666Y48416743*
X16076066Y48399293*
X16073424Y48381869*
X16070275Y48366019*
X16066566Y48351236*
X16062325Y48337495*
X16058108Y48324795*
X16053358Y48313187*
X16048609Y48302621*
X16044367Y48293629*
X1604015Y48285704*
X16036442Y4827938*
X16033267Y48274097*
X16030625Y48270388*
X16029051Y48267747*
X16028517Y48267213*
X16019018Y48255072*
X16008451Y48244506*
X15997351Y48234473*
X15985718Y48225481*
X1597411Y48217023*
X15962477Y48209631*
X15950869Y48203307*
X1593977Y4819749*
X15929203Y48192207*
X15919678Y48187965*
X15910712Y48184282*
X15903321Y48181641*
X15896971Y48179507*
X15892221Y48177932*
X15889579Y48177399*
X15888512Y48176865*
X15875838Y48279888*
X15887471Y4828413*
X15898037Y48288879*
X15907537Y48294163*
X15916529Y48298912*
X15924987Y48304196*
X15932378Y48309479*
X15939236Y48314229*
X15945586Y48319537*
X15950869Y48323754*
X15955086Y4832797*
X15959328Y48331678*
X15962477Y48335387*
X15964585Y48338028*
X15966186Y48340137*
X15967227Y48341178*
X1596776Y48341711*
X15972536Y48349103*
X15977285Y48357028*
X15980968Y48364419*
X15984143Y48372369*
X15989427Y48388219*
X15992602Y48403002*
X15993668Y4840986*
X1599471Y48415676*
X15995243Y48421493*
X15995777Y48426243*
X15996285Y48429951*
Y48435234*
X15995777Y48448976*
X15994176Y4846165*
X15991535Y48473791*
X15988385Y48485425*
X15984143Y48496499*
X15979927Y48506557*
X15975685Y48516057*
X15970402Y48524515*
X15965652Y48531907*
X15961436Y48538765*
X15956686Y48544581*
X15952978Y48549356*
X15949803Y48553039*
X15947161Y48556214*
X15945586Y48557789*
X15945053Y48558323*
X1593502Y48566781*
X1592392Y48574706*
X15912287Y48581564*
X15900146Y4858738*
X15887471Y48592663*
X15875304Y48597413*
X15863163Y48601122*
X1585153Y48604297*
X15840456Y48606938*
X15829889Y48609046*
X15820364Y48610621*
X15812439Y48611688*
X15806115Y48612221*
X15800806Y48612755*
X15797657Y48613263*
X1579659*
Y48174249*
X15790265*
X15784957Y48173716*
X15780207*
X15776524*
X15773349*
X15771241*
X15770174*
X1576964*
X15743224Y48174757*
X15718409Y48176865*
X15694634Y48180574*
X15672968Y48185324*
X15652877Y4819114*
X15634385Y4819749*
X15617494Y48204348*
X15602178Y48211206*
X1558897Y4821809*
X15577337Y48224948*
X15567304Y48231298*
X15558846Y48237114*
X15552496Y48241864*
X15547746Y48245547*
X15545104Y48247681*
X15544063Y48248722*
X15529788Y48262997*
X15517114Y48278313*
X15506547Y48294163*
X15497556Y48310012*
X15489631Y48326395*
X15482773Y48342245*
X1547749Y48358094*
X15473248Y48372877*
X15470098Y48387152*
X15467457Y4840036*
X15465856Y48411968*
X15464282Y48422026*
X15463748Y48429951*
Y48433634*
X15463215Y48436276*
Y48441559*
X15464282Y48463758*
X15466923Y48484891*
X15470606Y48504957*
X15475915Y48523982*
X15482239Y48541406*
X15489097Y48557789*
X15496514Y48572597*
X15504439Y48586339*
X15512364Y4859848*
X15519755Y48609046*
X15526613Y48618038*
X15532963Y48625937*
X15538246Y48631754*
X15541955Y48635996*
X15544596Y48638637*
X15545638Y48639679*
X15561487Y48652887*
X15578937Y48665053*
X15597428Y48675086*
X1561592Y48684078*
X15635452Y48691469*
X15654477Y48697794*
X15673501Y48702569*
X15691459Y48706786*
X15708884Y48709961*
X15724733Y48712069*
X15739008Y48714177*
X15745358Y4871471*
X15751683Y48715244*
X15756966*
X15761716Y48715777*
X15765957*
X1576964Y48716285*
X15772282*
X15774416*
X15775457*
X1577599*
X15802406Y48715244*
G37*
G36*
X16064966Y47952863D02*
X15756966D01*
X15733725Y47952355*
X15712059Y47950221*
X15702026Y4794918*
X15692526Y4794758*
X15683534Y47946005*
X15675076Y47944405*
X15667685Y47943363*
X15660827Y47941788*
X1565501Y47940188*
X15650235Y47939147*
X15646019Y4793808*
X15643377Y47937013*
X15641269Y47936505*
X15640735*
X15628594Y4793173*
X15617494Y47925939*
X15607995Y47920122*
X15600578Y47913772*
X15594253Y47908489*
X15590012Y47903739*
X1558737Y47900564*
X15586329Y47900031*
Y47899497*
X15579979Y47889464*
X15575229Y47878898*
X1557152Y47869398*
X15569412Y47859899*
X15567837Y47851949*
X15567304Y47848799*
Y47845624*
X15566771Y47843516*
Y47840341*
X15567837Y47826599*
X15569946Y47813391*
X15573629Y4780125*
X15577337Y4779015*
X15579445Y47785401*
X15581045Y47780625*
X15583154Y47776942*
X15584728Y47773767*
X15585795Y47771126*
X15586837Y47769018*
X15587903Y47767951*
Y47767417*
X15495447Y47733077*
X15489631Y47742602*
X15484881Y47752101*
X15480665Y47761626*
X15476956Y47771126*
X15473781Y47779584*
X1547114Y47788042*
X15469031Y47796475*
X15467457Y47803892*
X15465856Y4781075*
X15464815Y47816566*
X15464282Y47822383*
X15463748Y47826599*
X15463215Y47830308*
Y47835591*
X15464282Y47848266*
X1546639Y47860407*
X15469565Y47870973*
X15473248Y47880498*
X15476956Y47888423*
X15478556Y47891598*
X15480131Y4789424*
X15481198Y47896348*
X15482239Y47897923*
X15483306Y47898989*
Y47899497*
X15487523Y47904806*
X15492806Y47910597*
X15498089Y4791588*
X15504439Y47921697*
X15518155Y47932263*
X15531896Y47942296*
X1553878Y47946538*
X15545104Y47950755*
X15550388Y4795393*
X15555671Y47957105*
X15559913Y47959746*
X15563088Y47961321*
X15565196Y47962388*
X15565729Y47962896*
X15476956*
Y48052736*
X16064966*
Y47952863*
G37*
G36*
X05974994Y4770854D02*
X05989802Y47708007D01*
X06004585Y47706432*
X0601886Y47704324*
X06032068Y47702216*
X06045276Y47699549*
X06056884Y47696907*
X06067983Y47694265*
X06078016Y47691649*
X06087008Y47689008*
X06094933Y47686366*
X06101791Y47684232*
X06107074Y47682124*
X06110782Y47680549*
X06112891Y47680016*
X06113957Y47679483*
X06126632Y47673666*
X06138773Y47667341*
X06150406Y47660458*
X06160973Y476536*
X06170472Y47646717*
X06179464Y47639325*
X06187922Y47631934*
X06195314Y47625076*
X06201638Y47618726*
X06207455Y47612376*
X06212205Y47607118*
X06216446Y47602343*
X06219088Y47598126*
X0622173Y47595485*
X06222796Y47593377*
X06223304Y47592843*
X06230188Y47581743*
X06235979Y47570644*
X06241288Y47559036*
X06246037Y47547936*
X0624972Y47536303*
X06252895Y47525228*
X06255537Y47514637*
X06257645Y47504604*
X06259245Y47495104*
X06260287Y47486646*
X06261354Y47479254*
X06261887Y47472396*
X06262395Y47467088*
Y4744913*
X06261354Y47439097*
X06260287Y47429064*
X06258712Y47420072*
X06257137Y4741164*
X06255004Y47403181*
X06253429Y47395765*
X06251321Y47388907*
X06249187Y47382557*
X06247079Y47377299*
X06244971Y47372524*
X06243396Y47368841*
X06241796Y47365666*
X06240754Y47363557*
X06240221Y47361957*
X06239687Y47361449*
X06235471Y47354032*
X06230696Y47346641*
X06219621Y47333433*
X06208522Y47320758*
X06197955Y47310192*
X06192672Y47305442*
X06187922Y473012*
X0618368Y47297517*
X06179997Y47294876*
X06176822Y47292234*
X06174714Y47290634*
X06173114Y47289593*
X06172606Y47289059*
X06248679*
Y47198178*
X054356*
Y47298025*
X057214*
X05709793Y47308084*
X0569976Y47319158*
X05690235Y47329725*
X05682843Y47340316*
X05676493Y47349283*
X05673852Y47352991*
X05671743Y47356674*
X05670169Y47359316*
X05669102Y47361449*
X05668035Y47362491*
Y47363024*
X05661177Y4737834*
X05655894Y47393656*
X05652719Y47408998*
X05650077Y47422714*
X05649036Y47429064*
X05648502Y47434881*
X05647969Y47440164*
Y4744438*
X05647436Y47448089*
Y47452838*
X05647969Y47465513*
X05649036Y47478188*
X05651144Y47490354*
X05653252Y47501962*
X05656427Y47513062*
X05659602Y47523628*
X05662777Y47533661*
X0566646Y47543186*
X05670169Y47551619*
X05673318Y47559569*
X05676493Y47565894*
X05679668Y4757171*
X05681776Y47575927*
X05683885Y47579635*
X05684951Y47581743*
X05685485Y47582277*
X05692876Y47593377*
X05701334Y47603943*
X05710326Y47613976*
X05719292Y47622968*
X05728284Y476314*
X05737783Y47639325*
X05746775Y47646209*
X05755208Y47652533*
X05763666Y47657816*
X05771591Y476631*
X05778474Y47666808*
X05784265Y47670516*
X05789549Y47673158*
X05793257Y47674733*
X05795365Y476758*
X05796432Y47676308*
X05810173Y47682124*
X05824423Y47686874*
X05838164Y47691649*
X05852439Y47695332*
X05866155Y47698507*
X05879896Y47701149*
X05892596Y47703257*
X05904738Y47704857*
X05916345Y47706432*
X05926937Y47707499*
X05935903Y47708007*
X05943828Y4770854*
X05950178Y47709074*
X05954928*
X05958103*
X05959144*
X05974994Y4770854*
G37*
G36*
X05988735Y47079839D02*
X0601251Y47077731D01*
X06035217Y47074023*
X06056376Y4706874*
X06075908Y47062948*
X06094399Y47056598*
X06110782Y47049715*
X06125565Y47042324*
X06138773Y47034932*
X06150406Y47028074*
X06159906Y47021724*
X06167831Y47015908*
X06174181Y47011158*
X06178931Y47006941*
X06181572Y47004808*
X06182639Y47003766*
X06196888Y46988958*
X06209055Y46973109*
X06219621Y46957259*
X06228588Y46940368*
X06236512Y46923985*
X06242862Y46907602*
X06248146Y46891219*
X06252362Y46875903*
X06255537Y46861653*
X06258179Y46847912*
X06259779Y46836279*
X06261354Y46825712*
Y46821496*
X06261887Y4681728*
Y46814105*
X06262395Y4681093*
Y46805646*
X06261887Y46785555*
X06259779Y46766556*
X06256604Y46748065*
X06252362Y46730615*
X06247079Y46714765*
X06241796Y46699449*
X06235979Y466852*
X06229654Y466725*
X06223304Y46660892*
X06217488Y46650325*
X06212205Y46641867*
X06206947Y46634476*
X06202705Y46628659*
X0619953Y46624417*
X06197422Y46621776*
X06196888Y46620734*
X06189497Y46612276*
X06181039Y46604885*
X06164148Y4659061*
X06145123Y46578469*
X06125565Y46568436*
X06106033Y46559444*
X06085408Y46552053*
X06065342Y46546236*
X06046317Y46541486*
X06027826Y46537245*
X06010402Y46534628*
X05994552Y46532495*
X05987669Y46531987*
X05981344Y46531453*
X05975527Y4653092*
X05970244Y46530387*
X05965494*
X05961786Y46529853*
X05958636*
X05956503*
X05954928*
X05954395*
X05927445Y4653092*
X05902096Y46533028*
X05877788Y46536737*
X05856122Y4654202*
X05835523Y46547303*
X05816498Y46554161*
X05799607Y46561019*
X05784265Y46567902*
X05771057Y4657476*
X05758916Y46581644*
X05748883Y46588502*
X05740958Y46594318*
X05734608Y46599068*
X05729859Y46602777*
X05727217Y46604885*
X05726176Y46605926*
X05712434Y46620734*
X05700268Y46636584*
X05689701Y46652434*
X05680735Y46669325*
X0567281Y46686241*
X0566646Y46702624*
X0566171Y46719007*
X05657469Y46734323*
X05654319Y46749106*
X05651677Y46762314*
X05650077Y46774481*
X05648502Y46785047*
Y46789797*
X05647969Y46793505*
Y46797188*
X05647436Y46800363*
Y46805646*
X05647969Y46819896*
X05649036Y46834171*
X05650611Y46847379*
X05653252Y46860587*
X05655894Y46872728*
X05659069Y46884361*
X05662244Y46895461*
X05665419Y46905494*
X05668568Y46915019*
X05672277Y46922918*
X05674918Y46930335*
X0567756Y4693666*
X05680202Y46941435*
X05681776Y46944584*
X05682843Y46947226*
X05683377Y46947759*
X05690235Y46959393*
X05698159Y46970467*
X05706084Y46981059*
X05714542Y46990558*
X05722467Y46999525*
X05730925Y47007475*
X05739358Y47014866*
X05747308Y47021724*
X057547Y47027541*
X05762091Y47032291*
X05767908Y47036507*
X05773699Y47040215*
X05777941Y47042857*
X05781649Y47044965*
X05783757Y47046032*
X05784265Y47046565*
X05796965Y47052357*
X05810707Y47057665*
X05824956Y47062415*
X05839739Y47066631*
X05854547Y47069806*
X0586933Y47072448*
X05884138Y47074556*
X0589788Y47076664*
X05911088Y47078265*
X05923762Y47079306*
X05934329Y47079839*
X05944362Y47080373*
X05951753Y47080906*
X05954928*
X05958103*
X05960211*
X05961786*
X05962319*
X05962853*
X05988735Y47079839*
G37*
G36*
X05749417Y46469096D02*
X0574835Y46459597D01*
X05747308Y46451139*
X05746775Y46443214*
X05746242Y46436889*
X05745708Y46432114*
Y46425256*
X05746242Y46417331*
X05746775Y46410448*
X05747816Y46404657*
X05749417Y46399907*
X05750458Y46396198*
X05751525Y46393023*
X05752058Y46391449*
X05752566Y46390915*
X05755741Y46386699*
X05758916Y46383524*
X05762091Y46380349*
X05765266Y46378241*
X05767908Y46376107*
X05770016Y46375066*
X05771591Y46374532*
X05772124Y46373999*
X05774766Y46372957*
X05777941Y46372424*
X05785866Y46370849*
X05794857Y46369782*
X05804357Y46369249*
X05812815*
X05817031Y46368716*
X05820206*
X05822848*
X0582549*
X05826556*
X05827064*
X06171539*
Y46469096*
X06248679*
Y46368716*
X0645419*
X06394475Y46269935*
X06248679*
Y46196478*
X06171539*
Y46269935*
X05832881*
X05817031*
X05802249Y46270468*
X05788507Y46270976*
X05776366Y46272043*
X057658Y46272577*
X05756275Y46273618*
X05747816Y46274685*
X05740425Y4627626*
X05734075Y46277326*
X05728817Y46278368*
X05724575Y46279435*
X05720867Y46279968*
X05718225Y46281035*
X05716651Y46281543*
X05715609Y46282076*
X05715076*
X05705017Y46287359*
X05696051Y46293709*
X0568866Y46300567*
X0568231Y46307425*
X05677027Y46313775*
X05673318Y46319059*
X05671743Y46321167*
X0567121Y46322767*
X05670169Y46323275*
Y46323808*
X05666994Y46329625*
X05664352Y46335975*
X05660644Y46349716*
X05657469Y46363966*
X0565536Y46377174*
X05654827Y46383524*
X05654319Y46389315*
X05653786Y46394598*
Y46399373*
X05653252Y46403056*
Y4640834*
X05653786Y4642104*
X05654827Y46434248*
X05655894Y46446922*
X05657469Y4645853*
X05658535Y46463813*
X05659069Y46468588*
X05659602Y46473338*
X05660644Y46477021*
X05661177Y46479663*
Y46481796*
X0566171Y46483371*
Y46483905*
X05749417Y46469096*
G37*
G36*
X05851906Y46132038D02*
X05868289Y46129397D01*
X0587568Y46127289*
X05882538Y46125155*
X05888888Y46123047*
X05895238Y46120939*
X05900496Y4611883*
X05904738Y46116722*
X05908954Y46114589*
X05912129Y4611248*
X05914771Y46110906*
X05916879Y46109839*
X05917946Y46109305*
X05918479Y46108797*
X0593062Y46099272*
X05941187Y46088706*
X05950178Y46077606*
X0595757Y46067065*
X05963386Y4605754*
X05965494Y46053857*
X05967603Y46050149*
X05968669Y46047507*
X05969711Y46045399*
X05970778Y46043799*
Y46043265*
X05974486Y46034833*
X05978169Y460248*
X05981877Y46014208*
X0598556Y460026*
X05993485Y45978292*
X06000877Y45953984*
X06004052Y45942377*
X06007227Y45931277*
X06009868Y45921777*
X0601251Y45913319*
X06014618Y45905928*
X06016218Y45900619*
X06016726Y45898511*
Y45896936*
X0601726Y45896403*
Y45895869*
X06020968Y45882661*
X06024143Y45871053*
X06027318Y45860487*
X0602996Y45850962*
X06032068Y45843037*
X06034176Y45835646*
X06035751Y45829296*
X06037351Y45824038*
X06038926Y45819796*
X06039993Y45816088*
X06041034Y45813446*
X06041567Y45811338*
X06042101Y45809763*
X06042634Y45808696*
Y45807655*
X06046851Y45798663*
X06051067Y45790739*
X06055842Y45784389*
X06060059Y45779105*
X06063767Y45774889*
X06066917Y45771714*
X0606905Y45770139*
X06069558Y45769606*
X06075375Y45765389*
X06081725Y45762748*
X06087541Y4576064*
X06092825Y45759039*
X06097574Y45757998*
X06101257Y45757465*
X06103391*
X06104432*
X06110249Y45757998*
X06115532Y45758506*
X06125565Y45762214*
X06134557Y45766431*
X06141948Y45772247*
X06148298Y45777531*
X06153048Y45781747*
X06156223Y45785455*
X06157264Y45785989*
Y45786522*
X06161506Y45792339*
X06164656Y45799197*
X06167831Y45806588*
X06170472Y45814513*
X06174714Y45830363*
X06177356Y45846746*
X06177889Y45854137*
X06178931Y45861528*
X06179464Y45867878*
Y45873695*
X06179997Y45878445*
Y45884795*
X06179464Y45895336*
X06178931Y45905394*
X06177889Y45914894*
X06176289Y45923352*
X06174181Y45931277*
X06172073Y45938668*
X06169939Y45945526*
X06167297Y45951343*
X06165189Y45956626*
X06162548Y45961376*
X06160439Y45965618*
X06158865Y45968793*
X06156756Y45971434*
X0615569Y45973009*
X06155156Y45974076*
X06154623Y45974609*
X06149873Y459804*
X06144056Y45985684*
X06138773Y45989925*
X06132957Y45994142*
X06121349Y46001025*
X06109716Y46005775*
X06099683Y46009458*
X06094933Y46010525*
X06091224Y46011566*
X06088075Y46012633*
X06085941*
X06084366Y46013166*
X06083833*
X06097041Y46110906*
X06107607Y46108797*
X06117107Y46106689*
X06126632Y46104048*
X0613509Y46101406*
X06143548Y46098739*
X0615094Y46095589*
X06157798Y46092948*
X06164148Y46089773*
X06169431Y46087131*
X06174181Y4608449*
X06178397Y46082381*
X06181572Y46080248*
X06184214Y46078673*
X06186322Y46077098*
X06187389Y46076565*
X06187922Y46076031*
X06194247Y46071282*
X06200063Y46065465*
X06211163Y46053324*
X06220155Y46040649*
X0622808Y46027949*
X06234404Y46016875*
X06236512Y46011566*
X06238646Y4600735*
X06240221Y46003667*
X06241288Y46001025*
X06242329Y45999425*
Y45998892*
X06249187Y45978826*
X06253962Y45957693*
X06257645Y45937627*
X06258712Y45927568*
X06259779Y45918602*
X0626082Y45910144*
X06261354Y45902219*
X06261887Y45894828*
Y45889011*
X06262395Y45884261*
Y45877378*
X06261887Y45860487*
X06260287Y45844637*
X06258712Y45829829*
X06257645Y45823505*
X06256604Y45817155*
X06255004Y45811338*
X06253962Y45806588*
X06252895Y45801838*
X06252362Y4579813*
X06251321Y45795488*
X06250787Y45792847*
X06250254Y45791805*
Y45791272*
X06245504Y45776997*
X06240754Y45764323*
X06235979Y45753756*
X06231229Y45744765*
X06227013Y45737373*
X06223838Y4573209*
X0622173Y45728915*
X06221196Y45728407*
Y45727874*
X06212205Y45716774*
X06203238Y45707274*
X06193739Y45698816*
X06184747Y45691425*
X06176822Y45686141*
X06171006Y456819*
X06168364Y45680858*
X06166789Y45679791*
X06165723Y45678725*
X06165189*
X06152515Y45672933*
X0613984Y45668158*
X06127699Y45665009*
X06116599Y45662875*
X06107074Y45661834*
X06102858Y456613*
X06099683*
X06096508Y45660767*
X06094399*
X06093358*
X06092825*
X06076975Y45661834*
X06062167Y45663942*
X06048959Y4566765*
X06036818Y45671867*
X06032068Y45673467*
X06027318Y45675575*
X06023076Y45677683*
X06019901Y45679258*
X0601726Y45680325*
X06015151Y45681366*
X06014085Y45682433*
X06013577*
X06000877Y45691425*
X05989802Y45701991*
X05980277Y45712557*
X05972352Y45723124*
X05966028Y45732623*
X05963386Y45736332*
X05961278Y45740015*
X05959678Y45742656*
X05958636Y45745298*
X0595757Y45746365*
Y45746898*
X05953861Y45755356*
X05949645Y45765389*
X05945936Y45776489*
X0594172Y4578863*
X05937478Y45800772*
X05933795Y45813446*
X0592587Y45838821*
X05922695Y45850962*
X0591952Y45862062*
X05916345Y45872095*
X05914237Y45881086*
X05912129Y45888478*
X05910554Y45894294*
X05910021Y45896403*
Y45897977*
X05909487Y45898511*
Y45899044*
X05905779Y45913827*
X05902096Y45927035*
X05898921Y45938668*
X05895746Y45949235*
X05893104Y4595876*
X05889955Y45967192*
X05887821Y45974076*
X0588518Y459804*
X05883071Y45985684*
X05881497Y45990459*
X05879896Y45993608*
X05878855Y45996783*
X05877788Y45998358*
X05876747Y45999958*
X05876213Y46001025*
X05872505Y46006308*
X05868289Y46011058*
X05864047Y46014741*
X0585983Y46017916*
X05850839Y46023199*
X05842406Y46026908*
X05834456Y46029016*
X05828665Y46030057*
X05826023Y46030591*
X05824423*
X05823381*
X05822848*
X05815965Y46030057*
X05809107Y46029016*
X05802757Y46027416*
X05796432Y46025308*
X05785332Y46020024*
X05775833Y46014208*
X05767908Y46007883*
X05764733Y46005242*
X05761558Y460026*
X0575945Y46000492*
X05757875Y45998892*
X05757341Y4599785*
X05756808Y45997317*
X05752058Y45990459*
X05747816Y45983575*
X05744133Y45975651*
X05740958Y45967192*
X05736209Y45950301*
X05733034Y45933918*
X05731459Y45925994*
X05730925Y45918602*
X05730392Y45912252*
X05729859Y45906436*
X05729325Y45901686*
Y45895336*
X05729859Y45883195*
X05730925Y45871053*
X05731967Y45860487*
X05734075Y45849921*
X05736717Y45840396*
X05739358Y45831937*
X05742025Y45824038*
X05745175Y45816621*
X05747816Y45810297*
X05750458Y45805013*
X057531Y45800238*
X05755741Y45796022*
X05757875Y4579338*
X05758916Y45790739*
X05759983Y45789697*
X05760516Y45789164*
X05766841Y4578228*
X05773699Y45776489*
X05780582Y45770673*
X05787974Y45765897*
X05795899Y45761681*
X0580329Y45757998*
X05818098Y45751648*
X05824423Y4574954*
X05830773Y45747406*
X05836589Y45745831*
X05841873Y45744765*
X05845556Y45743723*
X05848731Y4574319*
X05850839Y45742656*
X05851372*
X05836056Y45644409*
X0581914Y45648092*
X0580329Y45652309*
X05788507Y45657617*
X05774766Y45663408*
X05762091Y45669225*
X05750458Y45676108*
X05739892Y45682433*
X05730392Y45688783*
X05721934Y45695108*
X05715076Y45700924*
X05708726Y45706741*
X05703976Y45711491*
X05700268Y45715199*
X05697118Y45718349*
X05695518Y45720482*
X05694984Y45721016*
X05686526Y45733157*
X05679135Y45745831*
X0567281Y45759573*
X05667527Y45773848*
X05662777Y45788097*
X05659069Y45802905*
X05655894Y45817155*
X05653252Y45830896*
X05651677Y45844104*
X05650077Y45856245*
X05649036Y45867345*
X05647969Y45876845*
Y45884795*
X05647436Y45887944*
Y45895869*
X05647969Y45908569*
X05648502Y45921244*
X05649569Y45932852*
X05651144Y45944485*
X05652719Y45955585*
X05654827Y45965618*
X05656961Y45975117*
X05659602Y45984109*
X0566171Y45992034*
X05663819Y45998892*
X05665927Y46005242*
X05667527Y46010525*
X05669102Y46014741*
X05670169Y46017383*
X0567121Y46019516*
Y46020024*
X05675985Y46030057*
X05681268Y46039582*
X05686526Y46048041*
X05692343Y46056499*
X05697626Y4606389*
X05703443Y46070748*
X05709259Y46077098*
X05714542Y46082915*
X05719292Y46087665*
X05724042Y46091881*
X05728284Y46095589*
X05731967Y46098739*
X05735142Y46100873*
X0573725Y46102447*
X0573885Y46103514*
X05739358Y46104048*
X05747816Y46109305*
X05756275Y46113547*
X05764199Y46117764*
X05772658Y46120939*
X05788507Y46126222*
X05802757Y46129397*
X05809107Y46130438*
X05815457Y46131505*
X05820206Y46132038*
X05824956Y46132572*
X05828665Y46133105*
X05831306*
X05832881*
X05833414*
X05842914*
X05851906Y46132038*
G37*
G36*
X06472682Y45427798D02*
X06181039D01*
X06194247Y45417206*
X06205347Y45406132*
X0621538Y45395032*
X06223838Y45384466*
X06230696Y45374966*
X06233337Y45370724*
X06235471Y45367016*
X06237579Y453644*
X06238646Y45362266*
X06239687Y45360691*
Y45360158*
X06243929Y45352233*
X06247079Y45344308*
X06252895Y45327925*
X06257137Y45312076*
X06259779Y45297293*
X06260287Y45290943*
X06261354Y45284618*
X06261887Y45279335*
Y45274585*
X06262395Y45270877*
Y45265594*
X06261887Y45251852*
X0626082Y45239178*
X06258712Y45226503*
X06256604Y45214336*
X06253429Y45202729*
X06250254Y45192162*
X06246545Y45181596*
X06243396Y45172604*
X06239687Y45164146*
X06235979Y45156221*
X06232829Y45149897*
X06229654Y45144613*
X06227546Y45139838*
X06225438Y45136689*
X06224371Y45134555*
X06223838Y45134047*
X06216446Y45123481*
X06207988Y45113448*
X0619953Y45103923*
X06190564Y45095464*
X06181572Y4508754*
X06172606Y45080148*
X06163614Y45073798*
X06154623Y45068007*
X06146165Y45062724*
X06138773Y45058482*
X06131915Y45054266*
X06125565Y45051624*
X06120815Y45048982*
X06117107Y45047408*
X06114999Y45046341*
X06113957Y45045807*
X06100216Y45040524*
X06086475Y45036308*
X06072733Y45032599*
X06058484Y45028916*
X06044742Y45026275*
X06031534Y45023608*
X0601886Y45022033*
X06007227Y45020458*
X05995619Y45019391*
X0598556Y45018325*
X05976594Y45017817*
X05968669Y45017283*
X05962319Y4501675*
X0595757*
X05954928*
X05953861*
X0593697Y45017283*
X05921121Y45018325*
X05905779Y45019925*
X05890996Y45022033*
X05876747Y45024141*
X05863539Y45026783*
X05851372Y45029958*
X05839739Y45033133*
X05829706Y45035774*
X0582074Y45038949*
X05812815Y45041591*
X05805932Y45044233*
X05800648Y45045807*
X05796965Y45047408*
X05794857Y45048449*
X0579379Y45048982*
X05781116Y45055307*
X05769483Y4506219*
X05758383Y45069582*
X05747816Y45076973*
X05738317Y45084898*
X05729325Y45092315*
X057214Y45099706*
X05714009Y45107098*
X05707659Y45113956*
X05701868Y45120306*
X05697118Y45125589*
X05692876Y45130872*
X05690235Y45134555*
X05687593Y4513773*
X05686526Y45139838*
X05686018Y45140372*
X05679135Y45151471*
X05673318Y45163105*
X05668035Y45174179*
X05663819Y45185812*
X05660136Y45196379*
X05656961Y45207478*
X05654319Y45217511*
X05652185Y45227544*
X05650611Y45236536*
X05649569Y45244461*
X05648502Y45251852*
X05647969Y45258202*
Y45262952*
X05647436Y45266635*
Y4526981*
X05648502Y45289368*
X05651144Y45308393*
X0565536Y45325284*
X05661177Y45341667*
X05667527Y45356475*
X05674918Y45369657*
X05682843Y45381824*
X05691301Y45392924*
X05699226Y45402957*
X05707151Y45411415*
X05714542Y45418273*
X05720867Y4542409*
X05726684Y45428839*
X05730925Y45432014*
X05733567Y45434123*
X05734608Y45434656*
X05660644*
Y45527112*
X06472682*
Y45427798*
G37*
G36*
X06056884Y44898945D02*
X06066409Y44898411D01*
X06075375*
X060833Y44897878*
X06090183Y44897344*
X06096508Y44896836*
X06102324Y44896303*
X06106566Y4489577*
X06110782Y44895236*
X06113957*
X06116066Y44894703*
X0611764Y44894195*
X06118707*
X06119241*
X06134557Y44890486*
X06148806Y44885737*
X06161506Y44880453*
X06172073Y4487517*
X06176822Y44873037*
X06180505Y44870395*
X06184214Y44868287*
X06187389Y44866712*
X06189497Y44865137*
X06191097Y4486407*
X06192139Y44863537*
X06192672Y44863004*
X06198489Y44858787*
X06203772Y44854037*
X06213805Y44842938*
X06222263Y44831838*
X06229654Y44821271*
X06235471Y44811238*
X06237579Y44806997*
X06239154Y44803314*
X06240754Y44800139*
X06241796Y4479803*
X06242862Y44796456*
Y44795922*
X06249187Y44779006*
X06253962Y44762115*
X06257645Y44745732*
X06259779Y44730924*
X0626082Y44724066*
X06261354Y44717716*
X06261887Y44712432*
Y44707683*
X06262395Y44704*
Y44687617*
X06261354Y44676517*
X06258179Y44655384*
X06253429Y44635826*
X06247079Y44617868*
X06239687Y44600977*
X06231763Y44585636*
X06222796Y44571386*
X06213805Y4455922*
X06204813Y44547612*
X06195847Y44538087*
X06187922Y44530162*
X06180505Y44523304*
X06174181Y44518021*
X06169431Y44514312*
X06166256Y44511671*
X06165723Y44511137*
X06248679*
Y44421348*
X05660644*
Y44521196*
X05981877*
X06002477Y44521729*
X06020968Y44523304*
X06037859Y44525412*
X06053709Y44528587*
X0606745Y44531762*
X06080125Y44535979*
X06091224Y44539687*
X06100749Y44544437*
X06109208Y44548653*
X06116599Y44552895*
X06122416Y44556578*
X06127165Y44559753*
X06130848Y44562928*
X06132957Y44565036*
X06134557Y44566636*
X0613509Y44567144*
X06142482Y44576136*
X06148298Y44585128*
X06154115Y44594627*
X06158865Y44604127*
X06162548Y44613118*
X06165723Y44622618*
X06168364Y4463161*
X06170472Y44640068*
X06172606Y44647459*
X06173647Y44654851*
X06174714Y44661201*
X06175248Y44667017*
X06175756Y44671234*
Y44677558*
X06175248Y44691833*
X06173114Y44705041*
X06169939Y44716674*
X06166789Y44727241*
X06163614Y44735165*
X0616204Y44738848*
X06160439Y4474149*
X06159398Y44743598*
X06158331Y44745198*
X06157798Y44746265*
Y44746773*
X06150406Y44756806*
X06142482Y44765798*
X06134557Y44772656*
X06126632Y44778472*
X06119749Y44782714*
X06114465Y44785889*
X06112357Y44786931*
X06110782Y44787464*
X06109716Y44787997*
X06109208*
X06103391Y44790106*
X06096508Y4479168*
X06082258Y44794855*
X0606745Y44796964*
X06052667Y4479803*
X06045809Y44798564*
X06038926Y44799097*
X06033109*
X06028359Y44799605*
X06024143*
X06020968*
X0601886*
X06018326*
X05660644*
Y44899478*
X06022035*
X06034709*
X06046317*
X06056884Y44898945*
G37*
G36*
X05756275Y43786831D02*
X06032576D01*
Y44235903*
X06128207*
Y43786831*
X06377051*
Y44266535*
X06472682*
Y43679059*
X05660644*
Y4428556*
X05756275*
Y43786831*
G37*
%LNpcb_legend_bot-2*%
%LPC*%
G36*
X15778632Y49880189D02*
X1577599D01*
X15773882*
X15772282*
X15771749*
X15771241*
X15750616Y49879656*
X15731617Y49878056*
X15713659Y4987544*
X15697276Y49872265*
X1568196Y49868556*
X15668218Y49864848*
X15655518Y49860098*
X15644444Y49855348*
X15634385Y49851132*
X15625953Y49846357*
X15618536Y49842674*
X15612745Y49838457*
X15607995Y49835816*
X1560482Y49833149*
X15602686Y49831574*
X15602178Y4983104*
X15592145Y49821541*
X15583687Y49811508*
X15576296Y49800941*
X15569946Y49790908*
X15564129Y49780317*
X15559913Y49769776*
X15556204Y49759717*
X15553029Y49750218*
X15550921Y49741226*
X15549346Y49733301*
X15547746Y4972591*
X15547238Y49719052*
X15546705Y49714277*
X15546171Y4971006*
Y49706885*
X15546705Y49693169*
X15548813Y49680469*
X15551454Y49667795*
X15555137Y49656187*
X15559379Y49645595*
X15564129Y49635562*
X15568879Y49626062*
X15574162Y49617604*
X15579445Y49610213*
X15584728Y49603355*
X15589478Y49597538*
X1559372Y49592788*
X15597428Y49588547*
X15600045Y49585905*
X15602178Y4958433*
X15602686Y49583797*
X15613786Y49574805*
X15625953Y49567414*
X15638627Y49560556*
X15651835Y49555273*
X15665577Y49550497*
X15679318Y49546281*
X15693034Y49543106*
X15706242Y49540464*
X15718409Y49538356*
X15730016Y49536781*
X15740583Y49535715*
X15749574Y49534648*
X15756966*
X15762782Y4953414*
X15764891*
X15766465*
X15766999*
X15767532*
X15788665Y49534648*
X15808223Y49536248*
X15826181Y4953889*
X15843097Y49541531*
X15858947Y49545748*
X15872663Y49549456*
X15885871Y49554206*
X15896971Y49558448*
X15907004Y49563197*
X15915995Y49567947*
X15922853Y49571656*
X15929203Y49575339*
X15933953Y49578514*
X15937128Y49581155*
X15939236Y4958273*
X1593977Y49583263*
X15949803Y49592788*
X15958261Y49602821*
X15966186Y49612854*
X15972536Y49623421*
X15977819Y49633454*
X15982569Y4964402*
X15986252Y49654053*
X15989427Y49663578*
X15991535Y49672544*
X15993135Y49680469*
X1599471Y49687886*
X15995243Y49694211*
X15995777Y49699494*
X15996285Y49703736*
Y49706885*
X15995777Y49720627*
X15993668Y49733835*
X15991027Y49745976*
X15987318Y49757609*
X15983077Y49768709*
X15978327Y49778742*
X15973577Y49788267*
X15968294Y497967*
X15963011Y49804624*
X15958261Y49811508*
X15953511Y49817299*
X15949269Y49822074*
X15945586Y49825757*
X15942945Y49828932*
X15940836Y49830507*
X15940303Y4983104*
X15929203Y49839499*
X15917037Y49847423*
X15903829Y49853773*
X15890113Y49859565*
X15876371Y4986434*
X15862096Y49868023*
X15848355Y49871198*
X15834639Y49873839*
X15821939Y49875948*
X15809798Y49877548*
X15799231Y49878589*
X15789732Y49879656*
X15781807*
X15778632Y49880189*
G37*
G36*
X15779165Y4924778D02*
X15776524D01*
X15774416*
X15772815*
X15772282*
X15771749*
X15750616Y49247247*
X1573055Y49245672*
X15712592Y49243564*
X15695676Y49240922*
X15679826Y49237214*
X15666085Y49233505*
X1565341Y49229822*
X15642336Y49225606*
X15632277Y49221364*
X15623819Y49217656*
X15616428Y49213439*
X15610636Y49210264*
X15606395Y49207623*
X1560322Y49205515*
X15601111Y4920394*
X15600578Y49203406*
X15591078Y49194948*
X1558262Y49185449*
X15575229Y49176457*
X15568879Y49166957*
X15563596Y49157432*
X15559379Y49148466*
X15555671Y49139475*
X15553029Y49131016*
X15550921Y49122558*
X15548813Y49115167*
X15547746Y49108842*
X15547238Y49103026*
X15546705Y49098276*
X15546171Y49095101*
Y49091926*
X15546705Y49079251*
X15548813Y49067618*
X15551454Y4905601*
X15555137Y49045444*
X15559379Y49034877*
X15564129Y49025886*
X15568879Y4901692*
X15574162Y49008995*
X15579445Y49002111*
X15584728Y48995787*
X15589478Y4898997*
X1559372Y48985728*
X15597428Y48982045*
X15600045Y48979404*
X15602178Y48977804*
X15602686Y48977296*
X15613786Y48968837*
X15626486Y48961954*
X15640202Y48955629*
X15653943Y48950346*
X15668726Y48946104*
X15683534Y48941888*
X15698317Y48939246*
X15712592Y48936605*
X157258Y48934497*
X15738475Y4893343*
X15750108Y48932388*
X15760141Y48931322*
X15768066*
X15771749Y48930788*
X15774416*
X15776524*
X15778099*
X15779165*
X15779699*
X15799765Y48931322*
X15818256Y48932896*
X1583568Y48935005*
X1585153Y4893818*
X15866338Y48941355*
X15879546Y48945063*
X15891687Y48949279*
X15902254Y48953496*
X15911779Y48958271*
X15920212Y48961954*
X15927095Y48966196*
X15932886Y48969345*
X15937128Y4897252*
X15940303Y48974629*
X15942411Y48976229*
X15942945Y48976762*
X15952444Y48985195*
X15960369Y4899472*
X1596776Y49003686*
X15973577Y49013211*
X1597886Y49022711*
X15983077Y49031702*
X15986785Y49040669*
X15989427Y49049127*
X15992068Y49057052*
X15993668Y49064468*
X1599471Y49071326*
X15995243Y4907661*
X15995777Y49081359*
X15996285Y49084534*
Y49087709*
X15995777Y49099851*
X15993668Y4911095*
X15991027Y4912205*
X15987852Y49132617*
X1598361Y4914265*
X1597886Y49151616*
X15973577Y49160607*
X15968294Y49168532*
X15963544Y49175416*
X15958261Y4918174*
X15953511Y49187023*
X15949269Y49191773*
X1594612Y49195482*
X15942945Y49198123*
X15941344Y49199698*
X15940836Y49200231*
X15929737Y4920869*
X1591757Y49216081*
X15904362Y49222431*
X15890646Y49227714*
X15876905Y49232464*
X1586263Y49236147*
X15848888Y49239322*
X15835147Y49241964*
X15822472Y49243564*
X15810331Y49245139*
X15799765Y49246205*
X15790265Y49247247*
X15782315*
X15779165Y4924778*
G37*
G36*
X157147Y48607446D02*
X15700425Y48605871D01*
X15687217Y48603763*
X15674543Y48601122*
X15662935Y48597413*
X15651835Y48593197*
X15641802Y48588955*
X15632811Y48584739*
X15624352Y48579989*
X15616961Y48575747*
X15610103Y48570997*
X1560482Y48567314*
X15600045Y48563606*
X15596362Y48560431*
X1559372Y48558323*
X15592145Y48556748*
X15591612Y48556214*
X15583687Y48547223*
X15576296Y48537723*
X15570479Y48528198*
X15565196Y48518165*
X15560446Y48508666*
X15556738Y48499166*
X15553563Y48489641*
X15551454Y48480675*
X15549346Y48472217*
X15548279Y48464825*
X15547238Y48457942*
X15546171Y48452125*
Y48447375*
X15545638Y48443667*
Y48440517*
X15546171Y48426776*
X15548279Y48413568*
X15550921Y48400893*
X15554629Y4838926*
X15558846Y4837816*
X15563596Y48368127*
X15568879Y48358628*
X15574162Y4835017*
X15579979Y48342778*
X15584728Y48335895*
X15590012Y48330078*
X15594253Y48325328*
X15597936Y48321645*
X15600578Y48319004*
X15602686Y48317404*
X1560322Y48316896*
X15610636Y48311079*
X15618536Y48306329*
X15626994Y48301554*
X15635986Y48297871*
X15654477Y48290988*
X15672968Y48286238*
X15681426Y4828413*
X15689351Y48282555*
X15696209Y48281488*
X15702559Y48280421*
X15707309Y48279888*
X15711525Y4827938*
X15713659Y48278846*
X157147*
Y48607446*
G37*
G36*
X05967069Y47607118D02*
X05964428D01*
X05962319*
X05960745*
X05960211*
X05959678*
X05938012Y47606585*
X05918479Y47604984*
X05899454Y47602876*
X05882538Y47599701*
X05866688Y47596018*
X05852439Y4759231*
X05839739Y4758756*
X05828131Y47583318*
X05818098Y47579102*
X05809107Y47574885*
X05801715Y47570644*
X05795899Y47566961*
X05791149Y47563786*
X05787974Y47561677*
X05785866Y47560077*
X05785332Y47559569*
X05775299Y47550578*
X05766841Y47541078*
X0575945Y47531553*
X057531Y47522053*
X05747308Y47512528*
X05743067Y47503029*
X05739358Y47494037*
X05736209Y47485071*
X05734075Y47477146*
X057325Y47469755*
X05730925Y47462871*
X05730392Y47457055*
X05729859Y47452305*
X05729325Y4744913*
Y47445955*
X05729859Y47433814*
X05731459Y47422206*
X05734075Y4741164*
X05737783Y47401048*
X05742025Y47391015*
X05746242Y47382049*
X05751525Y4737359*
X05756275Y47365666*
X05761558Y47358808*
X05766308Y47352458*
X05770549Y47347174*
X05774766Y47342958*
X05778474Y4733925*
X05781116Y47336608*
X05782691Y47335008*
X05783224Y473345*
X05794324Y47326575*
X05805932Y47319158*
X0581914Y47313367*
X05832348Y47308084*
X05846089Y47303309*
X05860364Y47299626*
X05874105Y47296984*
X05887821Y47294342*
X05900496Y47292234*
X05912662Y47291167*
X05923229Y47290126*
X05932728Y47289059*
X05940653*
X05943828Y47288526*
X0594647*
X05948578*
X05950178*
X05950686*
X0595122*
X05971819Y47289059*
X05991377Y47290634*
X06009335Y47293276*
X06026251Y47296451*
X06041567Y47300159*
X06055842Y47303842*
X0606905Y47308617*
X06080658Y47313367*
X06090716Y47317583*
X06099683Y47322333*
X06107074Y47326042*
X06113424Y47330258*
X06118174Y473329*
X06121882Y47335541*
X0612399Y47337141*
X06124524Y47337675*
X0613509Y47347174*
X06144056Y47356674*
X06151981Y47366199*
X06158865Y47376232*
X06164656Y47385732*
X06169431Y47394723*
X06173647Y47403715*
X06176822Y47412148*
X06179464Y47420072*
X06181039Y47427489*
X06182639Y47433814*
X06183147Y4743963*
X0618368Y47443847*
X06184214Y47447555*
Y47450197*
X0618368Y47461805*
X06181572Y47473438*
X06178931Y47484538*
X06175248Y47494571*
X06171006Y47504604*
X06166256Y47513595*
X06161506Y47522053*
X06156223Y47529445*
X0615094Y47536303*
X06146165Y47542653*
X06141415Y47547936*
X06137198Y47552686*
X0613349Y47555861*
X06130848Y47558502*
X0612874Y47560077*
X06128207Y47560611*
X06117107Y47569069*
X06104966Y47575927*
X06091758Y47582277*
X06078016Y4758756*
X06064275Y47591776*
X06050559Y47596018*
X06036284Y4759866*
X06023076Y47601301*
X06010402Y4760341*
X05998235Y47604476*
X05987669Y47605518*
X05978169Y47606585*
X05970244*
X05967069Y47607118*
G37*
G36*
X05962853Y46978417D02*
X05960745D01*
X05959144*
X05958636*
X05958103*
X0593697Y46977884*
X05917412Y46976284*
X05899454Y46973642*
X05882538Y46971*
X05866688Y46966784*
X05852947Y46963076*
X05839739Y46958326*
X05828665Y46954109*
X05818606Y4694936*
X0580964Y46944584*
X05802757Y46940901*
X05796432Y46937193*
X05791682Y46934018*
X05788507Y46931376*
X05786399Y46929802*
X05785866Y46929268*
X05775833Y46919769*
X05767374Y46909736*
X0575945Y46899677*
X057531Y46889111*
X05747816Y46879078*
X05743067Y46868511*
X05739358Y46858478*
X05736209Y46848979*
X05734075Y46839987*
X057325Y46832062*
X05730925Y46824671*
X05730392Y46818321*
X05729859Y46813038*
X05729325Y46808821*
Y46805646*
X05729859Y46791905*
X05731967Y46778697*
X05734608Y46766556*
X05738317Y46754923*
X05742533Y46743823*
X05747308Y4673379*
X05752058Y4672429*
X05757341Y46715832*
X05762625Y46707907*
X05767374Y46701049*
X05772124Y46695233*
X05776366Y46690457*
X05780049Y46686774*
X05782691Y46683599*
X05784799Y46682025*
X05785332Y46681491*
X05796432Y46673033*
X05808573Y46665108*
X05821781Y46658758*
X05835523Y46652967*
X05849264Y46648217*
X05863539Y46644509*
X05877255Y46641334*
X05890996Y46638692*
X05903671Y46636584*
X05915837Y46635009*
X05926404Y46633942*
X05935903Y46632876*
X05943828*
X05947003Y46632368*
X05949645*
X05951753*
X05953328*
X05953861*
X05954395*
X05974994Y46632876*
X05994019Y46634476*
X06011976Y46637117*
X06028359Y46640267*
X06043676Y46643975*
X06057417Y46647684*
X06070092Y46652434*
X06081191Y46657183*
X06091224Y46661425*
X06099683Y46666175*
X06107074Y46669858*
X06112891Y466741*
X0611764Y46676741*
X06120815Y46679383*
X06122924Y46680958*
X06123457Y46681491*
X0613349Y46690991*
X06141948Y46701049*
X0614934Y46711616*
X0615569Y46721649*
X06161506Y46732215*
X06165723Y46742781*
X06169431Y46752814*
X06172606Y46762314*
X06174714Y46771306*
X06176289Y4677923*
X06177889Y46786622*
X06178397Y46793505*
X06178931Y46798255*
X06179464Y46802471*
Y46805646*
X06178931Y46819388*
X06176822Y46832062*
X06174181Y46844737*
X06170472Y4685637*
X06166256Y46866937*
X06161506Y4687697*
X06156756Y46886469*
X06151448Y46894927*
X06146165Y46902319*
X06140907Y46909202*
X06136132Y46915019*
X06131915Y46919769*
X06128207Y46923985*
X06125565Y46926627*
X06123457Y46928227*
X06122924Y46928735*
X06111849Y46937726*
X06099683Y46945118*
X06087008Y46951976*
X060738Y46957259*
X06060059Y46962034*
X06046317Y46966251*
X06032576Y46969426*
X06019368Y46972067*
X06007227Y46974175*
X05995619Y46975776*
X05985027Y46976817*
X05976061Y46977884*
X05968669*
X05962853Y46978417*
G37*
G36*
X05953861Y45436231D02*
X0595122D01*
X05949111*
X05947537*
X0594647*
X05945936*
X0592587Y45435697*
X05907379Y45434123*
X05889955Y45432014*
X05874105Y45428839*
X05859297Y45425664*
X05846089Y45421981*
X05833948Y4541774*
X05823381Y45413523*
X05813856Y45408773*
X05805398Y45405065*
X0579854Y45400849*
X05792724Y45397674*
X05788507Y45394499*
X05785332Y4539239*
X05783224Y45390816*
X05782691Y45390282*
X05773191Y45381824*
X05765266Y45372299*
X05757875Y45363333*
X05752058Y45353808*
X05746775Y45344308*
X05742533Y45335317*
X0573885Y4532635*
X05736209Y45317892*
X05733567Y45309967*
X05731967Y45302576*
X05730925Y45295718*
X05730392Y45290435*
X05729859Y4528566*
X05729325Y45282485*
Y45279335*
X05729859Y45267168*
X05731967Y45256069*
X05734608Y45244994*
X05737783Y45234428*
X05742025Y45224395*
X05746775Y45215403*
X05752058Y45206412*
X05757341Y45198487*
X05762091Y45191629*
X05767374Y45185279*
X05772124Y45179996*
X05776366Y45175246*
X05779516Y45171537*
X05782691Y45168896*
X05784265Y45167321*
X05784799Y45166788*
X05795899Y45158355*
X05808065Y45150938*
X05821248Y45144613*
X05834989Y4513933*
X05848731Y45134555*
X05863005Y45130872*
X05876747Y45127697*
X05890463Y45125055*
X05903137Y45123481*
X05915304Y4512188*
X0592587Y45120839*
X0593537Y45119772*
X05943295*
X0594647Y45119239*
X05949111*
X0595122*
X0595282*
X05953328*
X05953861*
X05974994Y45119772*
X05995085Y45121347*
X06013043Y45123481*
X0602996Y45126122*
X06045809Y45129805*
X06059525Y45133514*
X06072225Y45137197*
X060833Y45141438*
X06093358Y45145655*
X06101791Y45149363*
X06109208Y4515358*
X06114999Y45156755*
X06119241Y45159396*
X06122416Y45161504*
X06124524Y45163105*
X06125057Y45163638*
X06134557Y45172071*
X06143015Y45181596*
X06150406Y45190562*
X06156756Y45200087*
X0616204Y45209587*
X06166256Y45218578*
X06169939Y45227544*
X06172606Y45236003*
X06174714Y45244461*
X06176822Y45251852*
X06177889Y45258202*
X06178397Y45264019*
X06178931Y45268769*
X06179464Y45271918*
Y45275093*
X06178931Y45287768*
X06176822Y45299401*
X06174181Y45311034*
X06170472Y45321601*
X06166256Y45332167*
X06161506Y45341133*
X06156756Y45350125*
X06151448Y4535805*
X06146165Y45364908*
X06140907Y45371258*
X06136132Y45377074*
X06131915Y45381291*
X06128207Y45384999*
X06125565Y45387641*
X06123457Y45389215*
X06122924Y45389749*
X06111849Y45398207*
X06099149Y45405065*
X06085408Y45411415*
X06071692Y45416698*
X06056884Y45420915*
X06042101Y45425156*
X06027318Y45427798*
X06013043Y4543044*
X05999835Y45432548*
X05987161Y45433589*
X05975527Y45434656*
X05965494Y45435697*
X0595757*
X05953861Y45436231*
G37*
%LNpcb_legend_bot-3*%
%LPD*%
G54D58*
X10345978Y5925218D02*
Y5988718D01*
Y6039518D02*
Y6103018D01*
X11107978*
Y6039518*
Y5988718D02*
Y5925218D01*
X10345978*
G54D60*
X14687118Y6148738D02*
D01*
X14686788Y614966*
X14685822Y61505769*
X14684222Y61514863*
X14681987Y61523803*
X14679142Y61532592*
X14675688Y61541152*
X14671649Y61549432*
X14667026Y61557433*
X1466187Y61565078*
X14656181Y61572343*
X14650008Y61579201*
X14643379Y61585602*
X14636318Y6159152*
X1462885Y61596955*
X14621027Y61601832*
X14612874Y61606176*
X14604466Y61609935*
X14595779Y61613084*
X14586915Y61615624*
X14577898Y61617529*
X14568754Y61618825*
X14559559Y6161946*
X14550339*
X14541144Y61618825*
X14532Y61617529*
X14522983Y61615624*
X14514118Y61613084*
X14505432Y61609935*
X14497024Y61606176*
X14488871Y61601832*
X14481048Y61596955*
X1447358Y6159152*
X14466519Y61585602*
X14459889Y61579201*
X14453717Y61572343*
X14448028Y61565078*
X14442871Y61557433*
X14438249Y61549432*
X1443421Y61541152*
X14430756Y61532592*
X14427911Y61523803*
X14425676Y61514863*
X14424075Y61505769*
X1442311Y614966*
X1442278Y6148738*
X1442311Y6147816*
X14424075Y6146899*
X14425676Y61459897*
X14427911Y61450956*
X14430756Y61442193*
X1443421Y61433633*
X14438249Y61425353*
X14442871Y61417352*
X14448028Y61409707*
X14453717Y61402442*
X14459889Y61395584*
X14466519Y61389183*
X1447358Y6138324*
X14481048Y6137783*
X14488871Y61372927*
X14497024Y61368609*
X14505432Y6136485*
X14514118Y61361701*
X14522983Y61359161*
X14532Y6135723*
X14541144Y6135596*
X14550339Y613553*
X14559559*
X14568754Y6135596*
X14577898Y6135723*
X14586915Y61359161*
X14595779Y61361701*
X14604466Y6136485*
X14612874Y61368609*
X14621027Y61372927*
X1462885Y6137783*
X14636318Y6138324*
X14643379Y61389183*
X14650008Y61395584*
X14656181Y61402442*
X1466187Y61409707*
X14667026Y61417352*
X14671649Y61425353*
X14675688Y61433633*
X14679142Y61442193*
X14681987Y61450956*
X14684222Y61459897*
X14685822Y6146899*
X14686788Y6147816*
X14687118Y6148738*
X15028976Y61834979D02*
Y63834975D01*
Y61834979D02*
X10028986D01*
Y63834975*
X01333398Y606044D02*
D01*
X01333068Y60613594*
X01332103Y60622789*
X01330502Y60631857*
X01328267Y60640823*
X01325422Y60649586*
X01321968Y60658146*
X01317929Y60666426*
X01313307Y60674427*
X0130815Y60682073*
X01302461Y60689337*
X01296289Y60696195*
X01289659Y60702596*
X01282598Y6070854*
X0127513Y6071395*
X01267307Y60718852*
X01259154Y6072317*
X01250746Y60726929*
X0124206Y60730079*
X01233195Y60732619*
X01224178Y60734549*
X01215034Y60735819*
X01205839Y60736454*
X01196619*
X01187424Y60735819*
X0117828Y60734549*
X01169263Y60732619*
X01160399Y60730079*
X01151712Y60726929*
X01143304Y6072317*
X01135151Y60718852*
X01127328Y6071395*
X0111986Y6070854*
X01112799Y60702596*
X0110617Y60696195*
X01099997Y60689337*
X01094308Y60682073*
X01089152Y60674427*
X01084529Y60666426*
X0108049Y60658146*
X01077036Y60649586*
X01074191Y60640823*
X01071956Y60631857*
X01070356Y60622789*
X0106939Y60613594*
X0106906Y606044*
X0106939Y60595179*
X01070356Y60585985*
X01071956Y60576917*
X01074191Y60567951*
X01077036Y60559188*
X0108049Y60550628*
X01084529Y60542347*
X01089152Y60534346*
X01094308Y60526701*
X01099997Y60519437*
X0110617Y60512579*
X01112799Y60506178*
X0111986Y60500234*
X01127328Y60494824*
X01135151Y60489922*
X01143304Y60485604*
X01151712Y60481845*
X01160399Y60478695*
X01169263Y60476155*
X0117828Y60474225*
X01187424Y60472955*
X01196619Y6047232*
X01205839*
X01215034Y60472955*
X01224178Y60474225*
X01233195Y60476155*
X0124206Y60478695*
X01250746Y60481845*
X01259154Y60485604*
X01267307Y60489922*
X0127513Y60494824*
X01282598Y60500234*
X01289659Y60506178*
X01296289Y60512579*
X01302461Y60519437*
X0130815Y60526701*
X01313307Y60534346*
X01317929Y60542347*
X01321968Y60550628*
X01325422Y60559188*
X01328267Y60567951*
X01330502Y60576917*
X01332103Y60585985*
X01333068Y60595179*
X01333398Y606044*
M02*