%FSTAX26Y26*%
%MOMM*%
%SFA1B1*%

%IPPOS*%
%ADD47C,0.999998*%
%ADD48R,0.999998X0.999998*%
%ADD49C,0.399999*%
%ADD50C,0.499999*%
%ADD51C,0.507999*%
%ADD52C,1.523997*%
%LNpcb_copper_signal_1-1*%
%LPD*%
G36*
X06434378Y17043374D02*
X07747Y15730778D01*
X07746974Y15340965*
X0757113Y15278455*
X07451953Y15290647*
X07430058Y15331236*
X0741238Y15373883*
X07405547Y15376728*
X07402017Y15383256*
X06792417Y15879953*
X06748195Y15893186*
X067056Y15910839*
X00287959Y15910864*
Y170434*
X06434378Y17043374*
G37*
G36*
X067056Y157734D02*
X073152Y15276677D01*
Y14975255*
X06731Y145034*
X00287959*
Y157734*
X067056*
G37*
G36*
X07747Y14910409D02*
Y14520595D01*
X06459778Y132334*
X00287959Y13233374*
Y14365909*
X06731Y14365935*
X06773367Y14383486*
X0681736Y1439644*
X0740156Y14868296*
X07405268Y14875078*
X0741238Y1487805*
X07429931Y14920417*
X07451877Y14960701*
X07571181Y14972893*
X07747Y14910409*
G37*
G36*
X05043881Y58068006D02*
X1103282D01*
X11058093Y57941006*
X10962436Y57901408*
X10856366Y57795337*
X10798987Y5765678*
Y57506793*
X10856366Y57368236*
X10962436Y57262166*
X11100993Y57204787*
X1125098*
X11389537Y57262166*
X11495608Y57368236*
X11552986Y57506793*
Y5765678*
X11495608Y57795337*
X11389537Y57901408*
X11293881Y57941006*
X11319154Y58068006*
X18528995*
Y58066609*
X18720409Y58041413*
X18898793Y57967524*
X19051981Y57849998*
X19169532Y57696785*
X19243421Y57518427*
X19268617Y57326987*
X19270014*
Y01126998*
X19268617*
X19243421Y00935558*
X19169532Y00757174*
X19051981Y00603986*
X18898793Y00486435*
X18720409Y00412546*
X18528995Y0038735*
Y00385978*
X08603462*
X08540673Y00512978*
X08581186Y00610793*
Y0076078*
X08523808Y00899337*
X08445246Y009779*
X08523808Y01056436*
X08581186Y01194993*
Y0134498*
X08523808Y01483537*
X08417737Y01589608*
X0827918Y01646986*
X08129193*
X07990636Y01589608*
X079375Y01536446*
X07884337Y01589608*
X0774578Y01646986*
X07595793*
X07457236Y01589608*
X074041Y01536446*
X07350937Y01589608*
X0721238Y01646986*
X07062393*
X06923836Y01589608*
X068707Y01536446*
X06817537Y01589608*
X0667898Y01646986*
X06528993*
X06390436Y01589608*
X06284366Y01483537*
X06226987Y0134498*
Y01194993*
X06284366Y01056436*
X06362928Y009779*
X06284366Y00899337*
X06226987Y0076078*
Y00610793*
X062675Y00512978*
X06204712Y00385978*
X01028979*
Y0038735*
X00854075Y00410387*
X00861898Y00529945*
X00865225Y00538556*
X01000937Y00594766*
X010541Y00647928*
X01107236Y00594766*
X01245793Y00537387*
X0139578*
X01534337Y00594766*
X01640408Y00700836*
X01697786Y00839393*
Y0098938*
X01640408Y01127937*
X01534337Y01234008*
X0139578Y01291386*
X01245793*
X01150162Y01389227*
X01164386Y01423593*
Y0157358*
X01107008Y01712137*
X01000937Y01818208*
X0086238Y01875586*
X00712393*
X00573836Y01818208*
X00467766Y01712137*
X00410387Y0157358*
X00287959Y01584629*
Y06867169*
X0657799Y131572*
X07655128Y14234337*
X07655737Y14234566*
X07761808Y14340636*
X07762036Y14341246*
X0784418Y1442339*
X07884464Y14520595*
X07884439*
Y14910409*
X07872704Y14938756*
X07871129Y14969439*
X07853349Y14985466*
X0784418Y15007615*
X07815808Y1501935*
X07793024Y15039924*
X07741335Y15058288*
Y15193086*
X07793024Y1521145*
X07815808Y15232024*
X0784418Y15243759*
X07853349Y15265882*
X07871129Y15281935*
X07872704Y15312618*
X07884439Y15340965*
X07884464Y15730778*
X07874Y15756051*
Y183642*
X046736Y18364174*
X040132Y190246*
X00287959*
Y57326987*
X00289356*
X00314553Y57518427*
X00388442Y57696785*
X00505993Y57849998*
X0065918Y57967524*
X00837565Y58041413*
X01028979Y58066609*
Y58068006*
X01043889*
X01043914*
X05043881*
G37*
%LNpcb_copper_signal_1-2*%
%LPC*%
G36*
X16028974Y56591809D02*
X15701619Y56548705D01*
X15396565Y56422366*
X15134615Y5622135*
X14933625Y559594*
X1480726Y55654346*
X14764156Y55326991*
X1480726Y54999636*
X14933625Y54694582*
X15134615Y54432606*
X15396565Y54231616*
X15701619Y54105276*
X16028974Y54062172*
X16356355Y54105276*
X16661409Y54231616*
X16923359Y54432606*
X17124349Y54694582*
X17250714Y54999636*
X17293818Y55326991*
X17250714Y55654346*
X17124349Y559594*
X16923359Y5622135*
X16661409Y56422366*
X16356355Y56548705*
X16028974Y56591809*
G37*
G36*
X03528999D02*
X03201619Y56548705D01*
X02896565Y56422366*
X02634615Y5622135*
X02433624Y559594*
X02307259Y55654346*
X02264156Y55326991*
X02307259Y54999636*
X02433624Y54694582*
X02634615Y54432606*
X02896565Y54231616*
X03201619Y54105276*
X03528999Y54062172*
X03856355Y54105276*
X04161409Y54231616*
X04423359Y54432606*
X04624349Y54694582*
X04750714Y54999636*
X04793818Y55326991*
X04750714Y55654346*
X04624349Y559594*
X04423359Y5622135*
X04161409Y56422366*
X03856355Y56548705*
X03528999Y56591809*
G37*
G36*
X1170818Y53513786D02*
X11558193D01*
X11419636Y53456408*
X11313566Y53350337*
X11256187Y5321178*
Y53061793*
X11313566Y52923236*
X11419636Y52817166*
X11558193Y52759787*
X1170818*
X11846737Y52817166*
X11952808Y52923236*
X12010186Y53061793*
Y5321178*
X11952808Y53350337*
X11846737Y53456408*
X1170818Y53513786*
G37*
G36*
X1076838D02*
X10618393D01*
X10479836Y53456408*
X10373766Y53350337*
X10316387Y5321178*
Y53061793*
X10373766Y52923236*
X10479836Y52817166*
X10618393Y52759787*
X1076838*
X10906937Y52817166*
X11013008Y52923236*
X11070386Y53061793*
Y5321178*
X11013008Y53350337*
X10906937Y53456408*
X1076838Y53513786*
G37*
G36*
X1602618Y53310586D02*
X15876193D01*
X15737636Y53253208*
X15631566Y53147137*
X15574187Y5300858*
Y52858593*
X15631566Y52720036*
X15737636Y52613966*
X15876193Y52556587*
X1602618*
X16164737Y52613966*
X16270808Y52720036*
X16328186Y52858593*
Y5300858*
X16270808Y53147137*
X16164737Y53253208*
X1602618Y53310586*
G37*
G36*
X1879478Y53107386D02*
X18644793D01*
X18506236Y53050008*
X18400166Y52943937*
X18342787Y5280538*
Y52655393*
X18400166Y52516836*
X18506236Y52410766*
X18644793Y52353387*
X1879478*
X18933337Y52410766*
X19039408Y52516836*
X19096786Y52655393*
Y5280538*
X19039408Y52943937*
X18933337Y53050008*
X1879478Y53107386*
G37*
G36*
X1554358Y51735786D02*
X15393593D01*
X15255036Y51678408*
X15148966Y51572337*
X15091587Y5143378*
Y51283793*
X15148966Y51145236*
X15255036Y51039166*
X15393593Y50981787*
X1554358*
X15682137Y51039166*
X15788208Y51145236*
X15845586Y51283793*
Y5143378*
X15788208Y51572337*
X15682137Y51678408*
X1554358Y51735786*
G37*
G36*
X04823714Y50614173D02*
X0457426D01*
X04343806Y5051872*
X04167454Y50342342*
X04071975Y50111888*
Y4986246*
X04167454Y49632006*
X04343806Y49455628*
X0457426Y49360175*
X04823714*
X05054168Y49455628*
X0523052Y49632006*
X05325999Y4986246*
Y50111888*
X0523052Y50342342*
X05054168Y5051872*
X04823714Y50614173*
G37*
G36*
X1772798Y48941786D02*
X17577993D01*
X17439436Y48884408*
X17333366Y48778337*
X17275987Y4863978*
Y48489793*
X17333366Y48351236*
X17439436Y48245166*
X17577993Y48187787*
X1772798*
X17866537Y48245166*
X17972608Y48351236*
X18029986Y48489793*
Y4863978*
X17972608Y48778337*
X17866537Y48884408*
X1772798Y48941786*
G37*
G36*
X1023498Y49881586D02*
X10084993D01*
X09946436Y49824208*
X09840366Y49718137*
X09782987Y4957958*
Y49429593*
X09840366Y49291036*
X09925278Y4920615*
X09840366Y49121237*
X09782987Y4898268*
Y48832693*
X09840366Y48694136*
X09925278Y4860925*
X09840366Y48524337*
X09782987Y4838578*
Y48235793*
X09840366Y48097236*
X09925278Y4801235*
X09840366Y47927437*
X09782987Y4778888*
Y47638893*
X09840366Y47500336*
X09925278Y4741545*
X09840366Y47330537*
X09782987Y4719198*
Y47041993*
X09840366Y46903436*
X09946436Y46797366*
X10084993Y46739987*
X1023498*
X10373537Y46797366*
X10479608Y46903436*
X10536986Y47041993*
Y4719198*
X10479608Y47330537*
X10394696Y4741545*
X10479608Y47500336*
X10536986Y47638893*
Y4778888*
X10479608Y47927437*
X10394696Y4801235*
X10479608Y48097236*
X10536986Y48235793*
Y4838578*
X10479608Y48524337*
X10394696Y4860925*
X10479608Y48694136*
X10536986Y48832693*
Y4898268*
X10479608Y49121237*
X10394696Y4920615*
X10479608Y49291036*
X10536986Y49429593*
Y4957958*
X10479608Y49718137*
X10373537Y49824208*
X1023498Y49881586*
G37*
G36*
X1798198Y47443186D02*
X17831993D01*
X17693436Y47385808*
X17587366Y47279737*
X17529987Y4714118*
Y46991193*
X17587366Y46852636*
X17693436Y46746566*
X17831993Y46689187*
X1798198*
X18120537Y46746566*
X18226608Y46852636*
X18283986Y46991193*
Y4714118*
X18226608Y47279737*
X18120537Y47385808*
X1798198Y47443186*
G37*
G36*
X1262258Y44877786D02*
X12472593D01*
X12334036Y44820408*
X12227966Y44714337*
X12222607Y44701409*
X12085167*
X12079808Y44714337*
X11973737Y44820408*
X1183518Y44877786*
X11685193*
X11546636Y44820408*
X11450955Y44724726*
X113792Y44719138*
X11307419Y44724726*
X11211737Y44820408*
X1107318Y44877786*
X10923193*
X10784636Y44820408*
X10678566Y44714337*
X10621187Y4457578*
Y44425793*
X10678566Y44287236*
X10784636Y44181166*
X10923193Y44123787*
X1107318*
X11211737Y44181166*
X11307419Y44276848*
X113792Y44282436*
X11450955Y44276848*
X11546636Y44181166*
X11685193Y44123787*
X1183518*
X11973737Y44181166*
X12079808Y44287236*
X12085167Y44300165*
X12222607*
X12227966Y44287236*
X12334036Y44181166*
X12472593Y44123787*
X1262258*
X12761137Y44181166*
X12867208Y44287236*
X12924586Y44425793*
Y4457578*
X12867208Y44714337*
X12761137Y44820408*
X1262258Y44877786*
G37*
G36*
Y43988786D02*
X12472593D01*
X12334036Y43931408*
X12227966Y43825337*
X12223826Y4381533*
X12086361*
X12084786Y4381914*
X11978741Y43925185*
X11840184Y43982589*
X11690197*
X1155164Y43925185*
X11454231Y43827801*
X11360505Y43823255*
X11317782Y43825337*
X11211737Y43931408*
X1107318Y43988786*
X10923193*
X10784636Y43931408*
X10678566Y43825337*
X10621187Y4368678*
Y43536793*
X10678566Y43398236*
X10784636Y43292166*
X10923193Y43234787*
X1107318*
X11211737Y43292166*
X11309146Y43389575*
X11402898Y43394096*
X11445595Y43392039*
X1155164Y43285994*
X11690197Y4322859*
X11840184*
X11978741Y43285994*
X12084786Y43392039*
X12088926Y43402046*
X12226417*
X12227966Y43398236*
X12334036Y43292166*
X12472593Y43234787*
X1262258*
X12761137Y43292166*
X12867208Y43398236*
X12924586Y43536793*
Y4368678*
X12867208Y43825337*
X12761137Y43931408*
X1262258Y43988786*
G37*
G36*
X04823714Y48074199D02*
X0457426D01*
X04343806Y4797872*
X04167454Y47802342*
X04071975Y47571914*
Y4732246*
X04167454Y47092006*
X04343806Y46915628*
X04427651Y46880907*
Y46743467*
X04343806Y4670872*
X04167454Y46532368*
X04071975Y46301914*
Y4605246*
X04167454Y45822006*
X04343806Y45645654*
X04427651Y45610907*
Y45473467*
X04343806Y4543872*
X04167454Y45262342*
X04071975Y45031914*
Y4478246*
X04167454Y44552006*
X04328287Y44391199*
X04315587Y44317869*
X04289348Y44264199*
X04071975*
Y43010175*
X05325999*
Y44264199*
X05108625*
X05082387Y44317869*
X05069687Y44391199*
X0523052Y44552006*
X05325999Y4478246*
Y45031914*
X0523052Y45262342*
X05054168Y4543872*
X04970322Y45473467*
Y45610907*
X05054168Y45645654*
X0523052Y45822006*
X05325999Y4605246*
Y46301914*
X0523052Y46532368*
X05054168Y4670872*
X04970322Y46743467*
Y46880907*
X05054168Y46915628*
X0523052Y47092006*
X05325999Y4732246*
Y47571914*
X0523052Y47802342*
X05054168Y4797872*
X04823714Y48074199*
G37*
G36*
X1262258Y43099786D02*
X12472593D01*
X12334036Y43042408*
X12227966Y42936337*
X12222607Y42923409*
X12085167*
X12079808Y42936337*
X11973737Y43042408*
X1183518Y43099786*
X11685193*
X11546636Y43042408*
X11450955Y42946726*
X113792Y42941138*
X11307419Y42946726*
X11211737Y43042408*
X1107318Y43099786*
X10923193*
X10784636Y43042408*
X10678566Y42936337*
X10621187Y4279778*
Y42647793*
X10678566Y42509236*
X10784636Y42403166*
X10923193Y42345787*
X1107318*
X11211737Y42403166*
X11307419Y42498848*
X113792Y42504436*
X11450955Y42498848*
X11546636Y42403166*
X11685193Y42345787*
X1183518*
X11973737Y42403166*
X12079808Y42509236*
X12085167Y42522165*
X12222607*
X12227966Y42509236*
X12334036Y42403166*
X12472593Y42345787*
X1262258*
X12761137Y42403166*
X12867208Y42509236*
X12924586Y42647793*
Y4279778*
X12867208Y42936337*
X12761137Y43042408*
X1262258Y43099786*
G37*
G36*
X1440058Y45182586D02*
X14250593D01*
X14112036Y45125208*
X14005966Y45019137*
X13948587Y4488058*
Y44730593*
X14005966Y44592036*
X14112036Y44485966*
X14124965Y44480607*
Y44343167*
X14112036Y44337808*
X14005966Y44231737*
X13948587Y4409318*
Y43943193*
X14005966Y43804636*
X14112036Y43698566*
X14155648Y43680507*
Y43543067*
X14112036Y43525008*
X14005966Y43418937*
X13948587Y4328038*
Y43130393*
X14005966Y42991836*
X14112036Y42885766*
X14250593Y42828387*
X1440058*
X14539137Y42885766*
X14645208Y42991836*
X14702586Y43130393*
Y4328038*
X14645208Y43418937*
X14539137Y43525008*
X14495526Y43543067*
Y43680507*
X14539137Y43698566*
X14645208Y43804636*
X14702586Y43943193*
Y4409318*
X14645208Y44231737*
X14539137Y44337808*
X14526209Y44343167*
Y44480607*
X14539137Y44485966*
X14645208Y44592036*
X14702586Y44730593*
Y4488058*
X14645208Y45019137*
X14539137Y45125208*
X1440058Y45182586*
G37*
G36*
X0926978Y41245586D02*
X09119793D01*
X08981236Y41188208*
X08875166Y41082137*
X08865692Y41059227*
X08857284Y4105755*
X08722817Y41046196*
X0860938Y41093186*
X08459393*
X08320836Y41035808*
X08214766Y40929737*
X08157387Y4079118*
Y40641193*
X08214766Y40502636*
X08320836Y40396566*
X08459393Y40339187*
X0860938*
X08747937Y40396566*
X08854008Y40502636*
X08863482Y40525547*
X08871889Y40527224*
X09006357Y40538577*
X09119793Y40491587*
X0926978*
X09408337Y40548966*
X09514408Y40655036*
X09571786Y40793593*
Y4094358*
X09514408Y41082137*
X09408337Y41188208*
X0926978Y41245586*
G37*
G36*
X16028974Y41591814D02*
X15701619Y4154871D01*
X15396565Y41422345*
X15134615Y41221355*
X14933625Y40959405*
X1480726Y40654351*
X14764156Y40326995*
X1480726Y39999615*
X14933625Y39694586*
X15134615Y39432636*
X15396565Y3923162*
X15701619Y39105255*
X16028974Y39062177*
X16356355Y39105255*
X16661409Y3923162*
X16923359Y39432636*
X17124349Y39694586*
X17250714Y39999615*
X17293818Y40326995*
X17250714Y40654351*
X17124349Y40959405*
X16923359Y41221355*
X16661409Y41422345*
X16356355Y4154871*
X16028974Y41591814*
G37*
G36*
X03528999D02*
X03201619Y4154871D01*
X02896565Y41422345*
X02634615Y41221355*
X02433624Y40959405*
X02307259Y40654351*
X02264156Y40326995*
X02307259Y39999615*
X02433624Y39694586*
X02634615Y39432636*
X02896565Y3923162*
X03201619Y39105255*
X03528999Y39062177*
X03856355Y39105255*
X04161409Y3923162*
X04423359Y39432636*
X04624349Y39694586*
X04750714Y39999615*
X04793818Y40326995*
X04750714Y40654351*
X04624349Y40959405*
X04423359Y41221355*
X04161409Y41422345*
X03856355Y4154871*
X03528999Y41591814*
G37*
G36*
X1485778Y38527786D02*
X14707793D01*
X14569236Y38470408*
X14463166Y38364337*
X14405787Y3822578*
Y38075793*
X14463166Y37937236*
X14569236Y37831166*
X14707793Y37773787*
X1485778*
X14996337Y37831166*
X15102408Y37937236*
X15159786Y38075793*
Y3822578*
X15102408Y38364337*
X14996337Y38470408*
X1485778Y38527786*
G37*
G36*
X0713618Y38070586D02*
X06986193D01*
X06847636Y38013208*
X06741566Y37907137*
X06684187Y3776858*
Y37618593*
X06741566Y37480036*
X06847636Y37373966*
X06986193Y37316587*
X0713618*
X07274737Y37373966*
X07380808Y37480036*
X07438186Y37618593*
Y3776858*
X07380808Y37907137*
X07274737Y38013208*
X0713618Y38070586*
G37*
G36*
X1404498Y37714986D02*
X13894993D01*
X13756436Y37657608*
X13650366Y37551537*
X13592987Y3741298*
Y37262993*
X13650366Y37124436*
X13756436Y37018366*
X13894993Y36960987*
X1404498*
X14183537Y37018366*
X14289608Y37124436*
X14346986Y37262993*
Y3741298*
X14289608Y37551537*
X14183537Y37657608*
X1404498Y37714986*
G37*
G36*
Y36698986D02*
X13894993D01*
X13756436Y36641608*
X13650366Y36535537*
X13592987Y3639698*
Y36246993*
X13650366Y36108436*
X13756436Y36002366*
X13894993Y35944987*
X1404498*
X14183537Y36002366*
X14289608Y36108436*
X14346986Y36246993*
Y3639698*
X14289608Y36535537*
X14183537Y36641608*
X1404498Y36698986*
G37*
G36*
X0589158D02*
X05741593D01*
X05603036Y36641608*
X05496966Y36535537*
X05439587Y3639698*
Y36246993*
X05496966Y36108436*
X05603036Y36002366*
X05741593Y35944987*
X0589158*
X06030137Y36002366*
X06136208Y36108436*
X06193586Y36246993*
Y3639698*
X06136208Y36535537*
X06030137Y36641608*
X0589158Y36698986*
G37*
G36*
X1122558Y36470386D02*
X11075593D01*
X10937036Y36413008*
X10830966Y36306937*
X10773587Y3616838*
Y36018393*
X10830966Y35879836*
X10937036Y35773766*
X11075593Y35716387*
X11148085*
X1123447Y3559307*
X11230787Y3558418*
Y35434193*
X11288166Y35295636*
X11394236Y35189566*
X11532793Y35132187*
X1168278*
X11821337Y35189566*
X11927408Y35295636*
X11984786Y35434193*
Y35573665*
X11988698Y35588676*
X12078004Y35690987*
X1216538*
X12303937Y35748366*
X12410008Y35854436*
X12467386Y35992993*
Y3614298*
X12410008Y36281537*
X12303937Y36387608*
X1216538Y36444986*
X12015393*
X11876836Y36387608*
X11770766Y36281537*
X11713387Y3614298*
Y36102467*
X11604498Y35994162*
X11527586Y36018393*
Y3616838*
X11470208Y36306937*
X11364137Y36413008*
X1122558Y36470386*
G37*
G36*
X0576458Y31695186D02*
X05614593D01*
X05476036Y31637808*
X05369966Y31531737*
X05312587Y3139318*
Y31243193*
X05369966Y31104636*
X05476036Y30998566*
X05614593Y30941187*
X0576458*
X05903137Y30998566*
X06009208Y31104636*
X06066586Y31243193*
Y3139318*
X06009208Y31531737*
X05903137Y31637808*
X0576458Y31695186*
G37*
G36*
X10762589Y30038395D02*
X10612602D01*
X10474045Y29981017*
X10420756Y29927727*
X10358348Y29879442*
X10254818Y29927727*
X10221137Y29961408*
X1008258Y30018786*
X09932593*
X09794036Y29961408*
X09687966Y29855337*
X09630587Y2971678*
Y29566793*
X09687966Y29428236*
X09794036Y29322166*
X09932593Y29264787*
X1008258*
X10221137Y29322166*
X10274427Y29375481*
X10336834Y29423741*
X10440365Y29375481*
X10474045Y293418*
X10612602Y29284396*
X10762589*
X10901146Y293418*
X11007217Y29447845*
X11064595Y29586402*
Y29736389*
X11007217Y29874946*
X10901146Y29981017*
X10762589Y30038395*
G37*
G36*
X1694058Y31923786D02*
X16790593D01*
X16652036Y31866408*
X16545966Y31760337*
X16488587Y3162178*
Y31471793*
X16545966Y31333236*
X16605732Y3127347*
X16637939Y311912*
X16605732Y31108904*
X16545966Y31049137*
X16488587Y3091058*
Y30760593*
X16545966Y30622036*
X16605732Y3056227*
X16637939Y3048*
X16605732Y30397704*
X16545966Y30337937*
X16488587Y3019938*
Y30049393*
X16545966Y29910836*
X16652036Y29804766*
X16790593Y29747387*
X1694058*
X17079137Y29804766*
X17185208Y29910836*
X17242586Y30049393*
Y3019938*
X17185208Y30337937*
X17125442Y30397704*
X17093234Y3048*
X17125442Y3056227*
X17185208Y30622036*
X17242586Y30760593*
Y3091058*
X17185208Y31049137*
X17125442Y31108904*
X17093234Y311912*
X17125442Y3127347*
X17185208Y31333236*
X17242586Y31471793*
Y3162178*
X17185208Y31760337*
X17079137Y31866408*
X1694058Y31923786*
G37*
G36*
X0805058Y30145786D02*
X07900593D01*
X07762036Y30088408*
X07655966Y29982337*
X07598587Y2984378*
Y29693793*
X07655966Y29555236*
X07762036Y29449166*
X07900593Y29391787*
X0805058*
X08189137Y29449166*
X08295208Y29555236*
X08352586Y29693793*
Y2984378*
X08295208Y29982337*
X08189137Y30088408*
X0805058Y30145786*
G37*
G36*
X0713618D02*
X06986193D01*
X06847636Y30088408*
X06741566Y29982337*
X06684187Y2984378*
Y29693793*
X06741566Y29555236*
X06847636Y29449166*
X06986193Y29391787*
X0713618*
X07274737Y29449166*
X07380808Y29555236*
X07438186Y29693793*
Y2984378*
X07380808Y29982337*
X07274737Y30088408*
X0713618Y30145786*
G37*
G36*
X1363858Y29764786D02*
X13488593D01*
X13350036Y29707408*
X13243966Y29601337*
X13186587Y2946278*
Y29312793*
X13243966Y29174236*
X13350036Y29068166*
X13488593Y29010787*
X1363858*
X13777137Y29068166*
X13883208Y29174236*
X13940586Y29312793*
Y2946278*
X13883208Y29601337*
X13777137Y29707408*
X1363858Y29764786*
G37*
G36*
X1452758Y29383786D02*
X14377593D01*
X14239036Y29326408*
X14132966Y29220337*
X14075587Y2908178*
Y28931793*
X14132966Y28793236*
X14239036Y28687166*
X14377593Y28629787*
X1452758*
X14666137Y28687166*
X14762302Y28603727*
X14767966Y28590036*
X14874036Y28483966*
X15012593Y28426587*
X1516258*
X15301137Y28483966*
X15407208Y28590036*
X15464586Y28728593*
Y2887858*
X15407208Y29017137*
X15301137Y29123208*
X1516258Y29180586*
X15012593*
X14874036Y29123208*
X14777872Y29206647*
X14772208Y29220337*
X14666137Y29326408*
X1452758Y29383786*
G37*
G36*
X16869359Y28951986D02*
X16719346D01*
X16580789Y28894608*
X16474744Y28788537*
X16417366Y2864998*
Y28499993*
X16474744Y28361436*
X16580789Y28255366*
X16719346Y28197987*
X16869359*
X17007916Y28255366*
X17113961Y28361436*
X17171365Y28499993*
Y2864998*
X17113961Y28788537*
X17007916Y28894608*
X16869359Y28951986*
G37*
G36*
X16028974Y28091815D02*
X15701619Y28048712D01*
X15396565Y27922347*
X15134615Y27721356*
X14933625Y27459406*
X1480726Y27154352*
X14764156Y26826997*
X1480726Y26499616*
X14933625Y26194588*
X15134615Y25932638*
X15396565Y25731622*
X15701619Y25605257*
X16028974Y25562179*
X16356355Y25605257*
X16661409Y25731622*
X16923359Y25932638*
X17124349Y26194588*
X17250714Y26499616*
X17293818Y26826997*
X17250714Y27154352*
X17124349Y27459406*
X16923359Y27721356*
X16661409Y27922347*
X16356355Y28048712*
X16028974Y28091815*
G37*
G36*
X03528999D02*
X03201619Y28048712D01*
X02896565Y27922347*
X02634615Y27721356*
X02433624Y27459406*
X02307259Y27154352*
X02264156Y26826997*
X02307259Y26499616*
X02433624Y26194588*
X02634615Y25932638*
X02896565Y25731622*
X03201619Y25605257*
X03528999Y25562179*
X03856355Y25605257*
X04161409Y25731622*
X04423359Y25932638*
X04624349Y26194588*
X04750714Y26499616*
X04793818Y26826997*
X04750714Y27154352*
X04624349Y27459406*
X04423359Y27721356*
X04161409Y27922347*
X03856355Y28048712*
X03528999Y28091815*
G37*
G36*
X0451998Y23922786D02*
X04369993D01*
X04231436Y23865408*
X04125366Y23759337*
X04067987Y2362078*
Y23470793*
X04125366Y23332236*
X04231436Y23226166*
X04369993Y23168787*
X0451998*
X04658537Y23226166*
X04764608Y23332236*
X04821986Y23470793*
Y2362078*
X04764608Y23759337*
X04658537Y23865408*
X0451998Y23922786*
G37*
G36*
X1127638Y23871986D02*
X11126393D01*
X10987836Y23814608*
X10881766Y23708537*
X10824387Y2356998*
Y23419993*
X10881766Y23281436*
X10987836Y23175366*
X11126393Y23117987*
X1127638*
X11414937Y23175366*
X11521008Y23281436*
X11523268Y23286948*
X11660733*
X11694566Y23205236*
X11800636Y23099166*
X11939193Y23041787*
X1208918*
X12227737Y23099166*
X12333808Y23205236*
X12391186Y23343793*
Y2349378*
X12333808Y23632337*
X12227737Y23738408*
X1208918Y23795786*
X11939193*
X11800636Y23738408*
X11694566Y23632337*
X11692305Y23626826*
X11554841*
X11521008Y23708537*
X11414937Y23814608*
X1127638Y23871986*
G37*
G36*
X1188598Y22728986D02*
X11735993D01*
X11597436Y22671608*
X11491366Y22565537*
X11433987Y2242698*
Y22276993*
X11491366Y22138436*
X11597436Y22032366*
X11735993Y21974987*
X1188598*
X12024537Y22032366*
X12130608Y22138436*
X12187986Y22276993*
Y2242698*
X12130608Y22565537*
X12024537Y22671608*
X1188598Y22728986*
G37*
G36*
X1572138Y22474986D02*
X15571393D01*
X15432836Y22417608*
X15326766Y22311537*
X15269387Y2217298*
Y22022993*
X15326766Y21884436*
X15432836Y21778366*
X15571393Y21720987*
X1572138*
X15859937Y21778366*
X15966008Y21884436*
X16023386Y22022993*
Y2217298*
X15966008Y22311537*
X15859937Y22417608*
X1572138Y22474986*
G37*
G36*
X1414658Y21662186D02*
X13996593D01*
X13858036Y21604808*
X13751966Y21498737*
X13694587Y2136018*
Y21210193*
X13751966Y21071636*
X13858036Y20965566*
X13996593Y20908187*
X1414658*
X14285137Y20965566*
X14391208Y21071636*
X14448586Y21210193*
Y2136018*
X14391208Y21498737*
X14285137Y21604808*
X1414658Y21662186*
G37*
G36*
X0429138Y22195586D02*
X04141393D01*
X04002836Y22138208*
X03896766Y22032137*
X03839387Y2189358*
Y21743593*
X03896766Y21605036*
X03992448Y21509355*
X03998036Y214376*
X03992448Y21365819*
X03896766Y21270137*
X03839387Y2113158*
Y20981593*
X03896766Y20843036*
X03943146Y20796656*
X03989755Y207137*
X03943146Y20630718*
X03896766Y20584337*
X03839387Y2044578*
Y20295793*
X03896766Y20157236*
X04002836Y20051166*
X04141393Y19993787*
X0429138*
X04429937Y20051166*
X04536008Y20157236*
X04593386Y20295793*
Y2044578*
X04536008Y20584337*
X04489627Y20630718*
X04443018Y207137*
X04489627Y20796656*
X04536008Y20843036*
X04593386Y20981593*
Y2113158*
X04536008Y21270137*
X04440326Y21365819*
X04434738Y214376*
X04440326Y21509355*
X04536008Y21605036*
X04593386Y21743593*
Y2189358*
X04536008Y22032137*
X04429937Y22138208*
X0429138Y22195586*
G37*
G36*
X1346078Y20544586D02*
X13310793D01*
X13172236Y20487208*
X13066166Y20381137*
X13008787Y2024258*
Y20092593*
X13066166Y19954036*
X13172236Y19847966*
X13310793Y19790587*
X1346078*
X13599337Y19847966*
X13705408Y19954036*
X13762786Y20092593*
Y2024258*
X13705408Y20381137*
X13599337Y20487208*
X1346078Y20544586*
G37*
G36*
X1363858Y19452386D02*
X13488593D01*
X13350036Y19395008*
X13243966Y19288937*
X13186587Y1915038*
Y19000393*
X13243966Y18861836*
X13350036Y18755766*
X13488593Y18698387*
X1363858*
X13777137Y18755766*
X13883208Y18861836*
X13940586Y19000393*
Y1915038*
X13883208Y19288937*
X13777137Y19395008*
X1363858Y19452386*
G37*
G36*
X1168278Y18309386D02*
X11532793D01*
X11394236Y18252008*
X11347856Y18205627*
X112649Y18159018*
X11181918Y18205627*
X11135537Y18252008*
X1099698Y18309386*
X10846993*
X10708436Y18252008*
X10602366Y18145937*
X10544987Y1800738*
Y17857393*
X10602366Y17718836*
X10708436Y17612766*
X10846993Y17555387*
X1099698*
X11135537Y17612766*
X11181918Y17659146*
X112649Y17705755*
X11347856Y17659146*
X11394236Y17612766*
X11532793Y17555387*
X1168278*
X11821337Y17612766*
X11927408Y17718836*
X11984786Y17857393*
Y1800738*
X11927408Y18145937*
X11821337Y18252008*
X1168278Y18309386*
G37*
G36*
X1343538Y18080786D02*
X13285393D01*
X13146836Y18023408*
X13040766Y17917337*
X12983387Y1777878*
Y17628793*
X13040766Y17490236*
X13146836Y17384166*
X13285393Y17326787*
X1343538*
X13573937Y17384166*
X13680008Y17490236*
X13737386Y17628793*
Y1777878*
X13680008Y17917337*
X13573937Y18023408*
X1343538Y18080786*
G37*
G36*
X1272418Y17471186D02*
X12574193D01*
X12435636Y17413808*
X12329566Y17307737*
X12272187Y1716918*
Y17019193*
X12329566Y16880636*
X12435636Y16774566*
X12574193Y16717187*
X1272418*
X12862737Y16774566*
X12968808Y16880636*
X13026186Y17019193*
Y1716918*
X12968808Y17307737*
X12862737Y17413808*
X1272418Y17471186*
G37*
G36*
X1188598Y16531386D02*
X11735993D01*
X11597436Y16474008*
X11491366Y16367937*
X11433987Y1622938*
Y16079393*
X11491366Y15940836*
X11525732Y1590647*
X11568455Y15797326*
X11525046Y15741218*
X11465966Y15682137*
X11408587Y1554358*
Y15393593*
X11465966Y15255036*
X11512346Y15208656*
X11558955Y151257*
X11512346Y15042718*
X11465966Y14996337*
X11408587Y1485778*
Y14707793*
X11465966Y14569236*
X11572036Y14463166*
X11710593Y14405787*
X1186058*
X11999137Y14463166*
X12105208Y14569236*
X12162586Y14707793*
Y1485778*
X12105208Y14996337*
X12058827Y15042718*
X12012218Y151257*
X12058827Y15208656*
X12105208Y15255036*
X12162586Y15393593*
Y1554358*
X12105208Y15682137*
X12070842Y15716504*
X12028119Y15825647*
X12071527Y15881756*
X12130608Y15940836*
X12187986Y16079393*
Y1622938*
X12130608Y16367937*
X12024537Y16474008*
X1188598Y16531386*
G37*
G36*
X16068217Y156718D02*
X15834156D01*
X15608046Y15611195*
X15405328Y15494177*
X15239796Y15328646*
X15122779Y15125928*
X150622Y14899817*
Y14665756*
X15122779Y14439646*
X15239796Y14236928*
X15405328Y14071396*
X15608046Y13954379*
X15834156Y138938*
X16068217*
X16294328Y13954379*
X16497046Y14071396*
X16662577Y14236928*
X16779595Y14439646*
X168402Y14665756*
Y14899817*
X16779595Y15125928*
X16662577Y15328646*
X16497046Y15494177*
X16294328Y15611195*
X16068217Y156718*
G37*
G36*
X0947298Y13788186D02*
X09322993D01*
X09184436Y13730808*
X09078366Y13624737*
X09020987Y1348618*
Y13383336*
X08981008Y13347928*
X08911056Y13309904*
X08903665Y13308126*
X0878718Y13356386*
X08637193*
X08498636Y13299008*
X08392566Y13192937*
X08335187Y1305438*
Y12904393*
X08372576Y12814173*
X08373668Y12811455*
X08266023Y12739522*
X08265591Y12739928*
X08214537Y12791008*
X0807598Y12848386*
X07925993*
X07787436Y12791008*
X07681366Y12684937*
X07623987Y1254638*
Y12396393*
X07681366Y12257836*
X07787436Y12151766*
X07925993Y12094387*
X0807598*
X08214537Y12151766*
X08320608Y12257836*
X08377986Y12396393*
Y1254638*
X08340597Y12636601*
X08339505Y12639319*
X08447151Y12711252*
X08447582Y12710845*
X08498636Y12659766*
X08637193Y12602387*
X0878718*
X08925737Y12659766*
X09031808Y12765836*
X09089186Y12904393*
Y13007238*
X09129166Y13042646*
X09199118Y13080669*
X09206509Y13082447*
X09322993Y13034187*
X0947298*
X09611537Y13091566*
X09717608Y13197636*
X09774986Y13336193*
Y1348618*
X09717608Y13624737*
X09611537Y13730808*
X0947298Y13788186*
G37*
G36*
X1231778Y12543586D02*
X12167793D01*
X12029236Y12486208*
X11995556Y12452527*
X119126Y12388342*
X11829618Y12452527*
X11795937Y12486208*
X1165738Y12543586*
X11507393*
X11368836Y12486208*
X11335156Y12452527*
X112522Y12388342*
X11169218Y12452527*
X11135537Y12486208*
X1099698Y12543586*
X10846993*
X10708436Y12486208*
X10602366Y12380137*
X10544987Y1224158*
Y12091593*
X10602366Y11953036*
X10708436Y11846966*
X10846993Y11789587*
X1099698*
X11135537Y11846966*
X11169218Y11880646*
X112522Y11944832*
X11335156Y11880646*
X11368836Y11846966*
X11507393Y11789587*
X1165738*
X11795937Y11846966*
X11829618Y11880646*
X119126Y11944832*
X11995556Y11880646*
X12029236Y11846966*
X12167793Y11789587*
X1231778*
X12456337Y11846966*
X12562408Y11953036*
X12619786Y12091593*
Y1224158*
X12562408Y12380137*
X12456337Y12486208*
X1231778Y12543586*
G37*
G36*
X1249558Y11095786D02*
X12345593D01*
X12207036Y11038408*
X12100966Y10932337*
X12043587Y1079378*
Y10643793*
X12100966Y10505236*
X12207036Y10399166*
X12345593Y10341787*
X1249558*
X12634137Y10399166*
X12740208Y10505236*
X12797586Y10643793*
Y1079378*
X12740208Y10932337*
X12634137Y11038408*
X1249558Y11095786*
G37*
G36*
X16093617Y119634D02*
X15859556D01*
X15633446Y11902795*
X15430728Y11785777*
X15265196Y11620246*
X15148179Y11417528*
X150876Y11191417*
Y10957356*
X15148179Y10731246*
X15265196Y10528528*
X15430728Y10362996*
X15633446Y10245979*
X15859556Y101854*
X16093617*
X16319728Y10245979*
X16522446Y10362996*
X16687977Y10528528*
X16804995Y10731246*
X168656Y10957356*
Y11191417*
X16804995Y11417528*
X16687977Y11620246*
X16522446Y11785777*
X16319728Y11902795*
X16093617Y119634*
G37*
G36*
X1249558Y09165386D02*
X12345593D01*
X12207036Y09108008*
X12100966Y09001937*
X12043587Y0886338*
Y08713393*
X12100966Y08574836*
X12207036Y08468766*
X12345593Y08411387*
X1249558*
X12634137Y08468766*
X12740208Y08574836*
X12797586Y08713393*
Y0886338*
X12740208Y09001937*
X12634137Y09108008*
X1249558Y09165386*
G37*
G36*
Y07234986D02*
X12345593D01*
X12207036Y07177608*
X12100966Y07071537*
X12043587Y0693298*
Y06782993*
X12100966Y06644436*
X12207036Y06538366*
X12345593Y06480987*
X1249558*
X12634137Y06538366*
X12740208Y06644436*
X12797586Y06782993*
Y0693298*
X12740208Y07071537*
X12634137Y07177608*
X1249558Y07234986*
G37*
G36*
X16028974Y04691811D02*
X15701619Y04648708D01*
X15396565Y04522368*
X15134615Y04321352*
X14933625Y04059402*
X1480726Y03754348*
X14764156Y03426993*
X1480726Y03099638*
X14933625Y02794584*
X15134615Y02532634*
X15396565Y02331618*
X15701619Y02205278*
X16028974Y02162175*
X16356355Y02205278*
X16661409Y02331618*
X16923359Y02532634*
X17124349Y02794584*
X17250714Y03099638*
X17293818Y03426993*
X17250714Y03754348*
X17124349Y04059402*
X16923359Y04321352*
X16661409Y04522368*
X16356355Y04648708*
X16028974Y04691811*
G37*
G36*
X03528999D02*
X03201619Y04648708D01*
X02896565Y04522368*
X02634615Y04321352*
X02433624Y04059402*
X02307259Y03754348*
X02264156Y03426993*
X02307259Y03099638*
X02433624Y02794584*
X02634615Y02532634*
X02896565Y02331618*
X03201619Y02205278*
X03528999Y02162175*
X03856355Y02205278*
X04161409Y02331618*
X04423359Y02532634*
X04624349Y02794584*
X04750714Y03099638*
X04793818Y03426993*
X04750714Y03754348*
X04624349Y04059402*
X04423359Y04321352*
X04161409Y04522368*
X03856355Y04648708*
X03528999Y04691811*
G37*
%LNpcb_copper_signal_1-3*%
%LPD*%
G54D47*
X011938Y151384D03*
Y164084D03*
X04699Y449072D03*
Y461772D03*
Y474472D03*
Y48717174D03*
Y49987174D03*
G54D48*
X011938Y138684D03*
X04699Y436372D03*
G54D49*
X15477058Y585724D03*
X16044316D03*
X16611574D03*
X14909774D03*
X14342516D03*
X13775258D03*
X13208D03*
X12640716D03*
X12073458D03*
X115062D03*
X04571974D03*
X04059758D03*
X03547516D03*
X03035274D03*
X02523058D03*
X02010816D03*
X014986D03*
G54D50*
X007874Y009144D03*
X013208D03*
X04112361Y01503857D03*
X06604Y006858D03*
X071374D03*
X076708D03*
X082042D03*
X111252Y02921D03*
Y034544D03*
Y039878D03*
Y045212D03*
X124206Y06858D03*
Y087884D03*
Y107188D03*
X122428Y121666D03*
X115824D03*
X10922D03*
X117856Y147828D03*
Y154686D03*
X11811Y161544D03*
X10199598Y15654578D03*
X126492Y170942D03*
X133604Y177038D03*
X157734Y164084D03*
X163068Y159258D03*
X1524Y10033D03*
Y094742D03*
X157734D03*
X122682Y177038D03*
X116078Y179324D03*
X10922D03*
X12446Y184658D03*
X124714Y189992D03*
X135636Y190754D03*
X133858Y201676D03*
X140716Y212852D03*
X164084Y211836D03*
X18669Y203454D03*
X164338Y228092D03*
X161798Y24003D03*
X156464Y22098D03*
X168656Y24765D03*
X186944Y287528D03*
X168656Y301244D03*
Y308356D03*
Y315468D03*
X16794353Y28575D03*
X135636Y293878D03*
X144526Y290068D03*
X150876Y288036D03*
X12954Y247142D03*
X118618Y264922D03*
X103124Y24989586D03*
X112014Y23495D03*
X120142Y234188D03*
X11811Y22352D03*
X11938Y21717D03*
X116332Y21082D03*
X112268Y207264D03*
X099314Y219202D03*
X087884D03*
X090932Y249936D03*
X07874Y24989586D03*
X066294Y249936D03*
X072644Y242062D03*
X071374Y230378D03*
Y224028D03*
X07239Y202184D03*
X056642Y197612D03*
X060452Y175768D03*
X063246Y16763999D03*
Y161798D03*
Y15494D03*
Y147828D03*
Y14097D03*
X074422Y145542D03*
X070358Y151384D03*
X074422Y156972D03*
X063246Y135128D03*
X071628Y123698D03*
X068072Y104902D03*
X073406Y087376D03*
Y082042D03*
Y076708D03*
Y071374D03*
X079248D03*
Y076708D03*
Y082042D03*
Y087376D03*
X092456Y102616D03*
X099822D03*
X09398Y134112D03*
X087122Y129794D03*
X08001Y124714D03*
X094996Y1495458D03*
Y15654578D03*
X08799576D03*
X094996Y16354577D03*
X085852Y18702604D03*
X042164Y218186D03*
X030988Y222758D03*
X04445Y235458D03*
X042164Y210566D03*
Y203708D03*
X02921Y19304D03*
X03079165Y17520208D03*
X03556Y16763999D03*
X047498Y190246D03*
X03556Y161798D03*
Y15494D03*
Y147828D03*
Y14097D03*
Y135128D03*
X040894Y124968D03*
Y119634D03*
Y1143D03*
X035052Y119634D03*
Y114046D03*
Y108712D03*
X02921D03*
Y114046D03*
Y103378D03*
X023368Y103124D03*
Y09779D03*
X017526D03*
Y103124D03*
Y092456D03*
X011684Y092202D03*
Y09779D03*
X005842Y092202D03*
X023368Y108712D03*
X011684Y086868D03*
X005842D03*
Y081534D03*
X00762Y06604D03*
X01756613Y04374337D03*
X007874Y014986D03*
X06604Y0127D03*
X071374D03*
X076708D03*
X082042D03*
X01883587Y17471186D03*
X00941781Y17498593D03*
X006096Y19304D03*
X018034D03*
X020066Y235458D03*
X04640122Y28489935D03*
X060706Y295656D03*
X070612Y297688D03*
X056896Y313182D03*
X079756Y297688D03*
X100076Y296418D03*
X10687608Y29661408D03*
X107696Y30607D03*
X123698Y3175D03*
X1397Y36322D03*
X168656Y357886D03*
X147828Y381508D03*
X1397Y37338D03*
X13716Y418846D03*
X143256Y418592D03*
X14351Y423926D03*
X143256Y432054D03*
Y440182D03*
Y448056D03*
X145796Y47117D03*
Y477139D03*
Y483108D03*
Y489077D03*
Y495046D03*
X154686Y513588D03*
X17018Y50292D03*
X176276D03*
X17653Y485648D03*
X17907Y470662D03*
X184912Y454152D03*
Y44704D03*
Y439928D03*
Y432816D03*
X1016Y47117D03*
Y477139D03*
Y483108D03*
Y489077D03*
Y495046D03*
X109982Y445008D03*
X117602D03*
X125476D03*
Y436118D03*
X11765178Y43605577D03*
X109982Y436118D03*
Y427228D03*
X117602D03*
X125476D03*
X080518D03*
X085344Y407162D03*
X091948Y408686D03*
X05715Y423672D03*
X065532Y405638D03*
X070612Y376936D03*
X058166Y36322D03*
X056896Y320294D03*
X080264Y362712D03*
X111506Y360934D03*
X120904Y36068D03*
X116078Y355092D03*
X123952Y346202D03*
X024384Y43053D03*
X028702Y462788D03*
X008382Y462534D03*
X015494Y41783D03*
X007366Y369824D03*
X01905Y36449D03*
X005842Y344932D03*
X023876Y34163D03*
X005842Y311658D03*
X00558977Y29224147D03*
X025908Y381762D03*
X024384Y502158D03*
X106934Y531368D03*
X116332D03*
X133604Y541274D03*
X159512Y529336D03*
X187198Y527304D03*
X186944Y574294D03*
X18042178Y5986178D03*
X18092978Y6280818D03*
X16086378Y5986178D03*
X14486178Y6280818D03*
Y6021738D03*
X10726978Y6301138D03*
X10041178Y6064918D03*
X11971578Y5963318D03*
X11176Y575818D03*
X051054Y615188D03*
X009906Y615442D03*
X00889Y574294D03*
G54D51*
X185928Y010922D03*
G54D52*
X16165576Y077486D03*
X159766Y110744D03*
X159512Y147828D03*
X16165576Y18108599D03*
M02*