%FSTAX26Y26*%
%MOMM*%
%SFA1B1*%

%IPPOS*%
%ADD60C,0.253999*%
%LNpcb_keep-out-1*%
%LPD*%
G54D60*
X00028981Y01126998D02*
D01*
X00031419Y01057224*
X00038709Y00987806*
X0005085Y00919073*
X00067716Y00851357*
X00089306Y00784961*
X00115443Y00720242*
X0014605Y00657504*
X00180949Y00597077*
X00219964Y00539191*
X0026294Y004842*
X00309651Y00432333*
X00359867Y00383844*
X00413334Y00338988*
X00469798Y00297942*
X0052898Y00260959*
X00590626Y00228193*
X0065438Y00199796*
X00719963Y0017592*
X00787069Y00156692*
X00855345Y00142189*
X00924458Y00132461*
X00994079Y00127584*
X01028979Y00127*
X18528995*
D01*
X18598743Y00129413*
X18668161Y00136728*
X18736894Y00148844*
X18804636Y00165735*
X18871006Y00187299*
X18935725Y00213436*
X18998463Y00244043*
X19058915Y00278942*
X19116776Y00317982*
X19171767Y00360934*
X19223634Y00407644*
X19272123Y0045786*
X19317004Y00511327*
X19358025Y00567791*
X19395008Y00626999*
X19427774Y00688619*
X19456171Y00752373*
X19480047Y00817981*
X19499275Y00885063*
X19513804Y00953338*
X19523506Y01022451*
X19528383Y01092098*
X19528993Y01126998*
Y57326987*
D01*
X19526554Y57396735*
X19519265Y57466153*
X19507123Y57534911*
X19490258Y57602628*
X19468668Y57668998*
X19442531Y57733717*
X19411924Y57796455*
X19377025Y57856907*
X1933801Y57914768*
X19295033Y57969785*
X19248323Y58021651*
X19198107Y5807014*
X1914464Y58114996*
X19088176Y58156017*
X19028994Y58193*
X18967348Y58225791*
X18903594Y58254163*
X18838011Y58278039*
X18770904Y58297292*
X18702629Y58311796*
X18633516Y58321498*
X18563894Y58326375*
X18528995Y58326985*
X170688*
Y58834985*
X18528995*
D01*
X18598743Y58837423*
X18668161Y58844713*
X18736894Y58856829*
X18804636Y5887372*
X18871006Y58895284*
X18935725Y58921446*
X18998463Y58952028*
X19058915Y58986928*
X19116776Y59025967*
X19171767Y59068944*
X19223634Y59115655*
X19272123Y59165845*
X19317004Y59219338*
X19358025Y59275802*
X19395008Y59334984*
X19427774Y59396604*
X19456171Y59460384*
X19480047Y59525966*
X19499275Y59593073*
X19513804Y59661348*
X19523506Y59730462*
X19528383Y59800083*
X19528993Y59834983*
Y62834977D01*
D01*
X19526554Y62904751*
X19519265Y62974169*
X19507123Y63042901*
X19490258Y63110618*
X19468668Y63177013*
X19442531Y63241732*
X19411924Y6330447*
X19377025Y63364897*
X1933801Y63422784*
X19295033Y63477775*
X19248323Y63529641*
X19198107Y6357813*
X1914464Y63622986*
X19088176Y63664033*
X19028994Y63701015*
X18967348Y63733781*
X18903594Y63762178*
X18838011Y63786054*
X18770904Y63805282*
X18702629Y63819786*
X18633516Y63829514*
X18563894Y63834365*
X18528995Y63834975*
X09528987D01*
D01*
X09459239Y63832562*
X09389821Y63825247*
X09321063Y63813131*
X09253347Y6379624*
X09186976Y63774675*
X09122257Y63748539*
X09059519Y63717932*
X08999067Y63683032*
X08941206Y63643992*
X0888619Y63601041*
X08834323Y6355433*
X08785834Y63504114*
X08740978Y63450647*
X08699957Y63394183*
X08662949Y63334976*
X08630183Y63273355*
X08601811Y63209601*
X08577935Y63143993*
X08558682Y63076912*
X08544179Y63008637*
X08534476Y62939523*
X08529599Y62869876*
X08528989Y62834977*
Y59834983D01*
D01*
X08531428Y59765234*
X08538718Y59695816*
X08550833Y59627084*
X08567724Y59559342*
X08589289Y59492972*
X08615451Y59428253*
X08646033Y59365515*
X08680932Y59305063*
X08719972Y59247201*
X08762949Y5919221*
X08809659Y59140318*
X0885985Y5909183*
X08913317Y59046973*
X08969806Y59005952*
X09028988Y5896897*
X09090609Y58936204*
X09154388Y58907807*
X09219971Y58883931*
X09287052Y58864703*
X09355328Y58850174*
X09424466Y58840471*
X09494088Y58835594*
X09528987Y58834985*
X11049*
Y58326985*
X09528987*
X05043881*
X05043906*
Y58832978*
X05043881D02*
D01*
X05113655Y58835417*
X05183047Y58842706*
X05251805Y58854848*
X05319522Y58871713*
X05385917Y58893303*
X05450611Y5891944*
X05513349Y58950047*
X05573801Y58984946*
X05631662Y59023961*
X05686679Y59066938*
X05738545Y59113648*
X05787034Y59163864*
X0583189Y59217331*
X05872937Y59273795*
X05909919Y59332977*
X05942685Y59394623*
X05971082Y59458377*
X05994933Y5952396*
X06014186Y59591067*
X0602869Y59659342*
X06038418Y59728455*
X06043269Y59798077*
X06043879Y59832976*
Y61832998D01*
X06043904D02*
D01*
X06041466Y61902746*
X06034176Y61972164*
X06022035Y62040897*
X06005169Y62108613*
X05983579Y62175009*
X05957443Y62239728*
X05926836Y62302466*
X05891936Y62362918*
X05852922Y62420779*
X05809945Y6247577*
X05763234Y62527637*
X05713018Y62576125*
X05659551Y62621007*
X05603087Y62662028*
X05543905Y62699011*
X05482259Y62731777*
X05418505Y62760174*
X05352923Y6278405*
X05285816Y62803278*
X05217541Y62817806*
X05148427Y62827509*
X05078806Y62832386*
X05043906Y62832996*
X05043881D02*
X01043889D01*
D01*
X0097414Y62830557*
X00904722Y62823267*
X00835964Y62811126*
X00768248Y62794261*
X00701878Y62772671*
X00637159Y62746534*
X00574421Y62715927*
X00513969Y62681027*
X00456107Y62642013*
X00401091Y62599036*
X00349224Y62552326*
X00300736Y6250211*
X00255879Y62448643*
X00214858Y62392179*
X0017785Y62332997*
X00145084Y62271351*
X00116713Y62207597*
X00092837Y62142014*
X00073583Y62074907*
X0005908Y62006632*
X00049377Y61937519*
X000445Y61867897*
X00043891Y61832998*
Y59832976*
D01*
X00046329Y59763228*
X00053619Y5969381*
X00065735Y59625077*
X00082626Y59557361*
X0010419Y59490965*
X00130352Y59426246*
X00160934Y59363508*
X00195834Y59303056*
X00234873Y59245195*
X0027785Y59190204*
X00324535Y59138337*
X00374751Y59089848*
X00428218Y59044967*
X00484682Y59003946*
X0054389Y58966963*
X0060551Y58934197*
X0066929Y589058*
X00734872Y58881924*
X00801954Y58862696*
X00870229Y58848167*
X00939368Y58838465*
X01008989Y58833588*
X01043889Y58832978*
Y58326985D01*
X01028979*
D01*
X00959231Y58324546*
X00889812Y58317257*
X0082108Y58305141*
X00753338Y5828825*
X00686968Y58266685*
X00622249Y58240523*
X00559511Y58209942*
X00499059Y58175042*
X00441198Y58136002*
X00386207Y58093025*
X0033434Y58046315*
X00285851Y57996124*
X00240969Y57942657*
X00199948Y57886168*
X00162966Y57826986*
X001302Y57765365*
X00101803Y57701586*
X00077927Y57636003*
X00058699Y57568896*
X0004417Y57500647*
X00034467Y57431508*
X00029591Y57361886*
X00028981Y57326987*
Y01126998*
X04528997Y03426993D02*
D01*
X04526559Y03496741*
X04519244Y0356616*
X04507128Y03634892*
X04490237Y03702634*
X04468672Y03769004*
X04442536Y03833723*
X04411929Y03896461*
X04377029Y03956913*
X04338015Y04014774*
X04295038Y04069765*
X04248327Y04121658*
X04198112Y04170121*
X04144645Y04215003*
X0408818Y04256024*
X04028998Y04293006*
X03967353Y04325772*
X03903599Y04354169*
X03838016Y04378045*
X03770909Y04397273*
X03702634Y04411802*
X0363352Y04421505*
X03563899Y04426381*
X034941*
X03424453Y04421505*
X0335534Y04411802*
X03287064Y04397273*
X03219958Y04378045*
X03154375Y04354169*
X03090621Y04325772*
X03028975Y04293006*
X02969793Y04256024*
X02913329Y04215003*
X02859862Y04170121*
X02809646Y04121658*
X02762935Y04069765*
X02719959Y04014774*
X02680944Y03956913*
X02646045Y03896461*
X02615438Y03833723*
X02589301Y03769004*
X02567736Y03702634*
X02550845Y03634892*
X0253873Y0356616*
X02531414Y03496741*
X02528976Y03426993*
X02531414Y03357219*
X0253873Y03287826*
X02550845Y03219069*
X02567736Y03151352*
X02589301Y03084957*
X02615438Y03020263*
X02646045Y02957525*
X02680944Y02897073*
X02719959Y02839212*
X02762935Y02784195*
X02809646Y02732328*
X02859862Y0268384*
X02913329Y02638983*
X02969793Y02597937*
X03028975Y02560955*
X03090621Y02528189*
X03154375Y02499791*
X03219958Y02475941*
X03287064Y02456688*
X0335534Y02442184*
X03424453Y02432456*
X034941Y02427605*
X03563899*
X0363352Y02432456*
X03702634Y02442184*
X03770909Y02456688*
X03838016Y02475941*
X03903599Y02499791*
X03967353Y02528189*
X04028998Y02560955*
X0408818Y02597937*
X04144645Y02638983*
X04198112Y0268384*
X04248327Y02732328*
X04295038Y02784195*
X04338015Y02839212*
X04377029Y02897073*
X04411929Y02957525*
X04442536Y03020263*
X04468672Y03084957*
X04490237Y03151352*
X04507128Y03219069*
X04519244Y03287826*
X04526559Y03357219*
X04528997Y03426993*
X17028998D02*
D01*
X17026559Y03496741*
X17019244Y0356616*
X17007128Y03634892*
X16990237Y03702634*
X16968673Y03769004*
X16942536Y03833723*
X16911929Y03896461*
X1687703Y03956913*
X16838015Y04014774*
X16795038Y04069765*
X16748328Y04121658*
X16698112Y04170121*
X16644645Y04215003*
X16588181Y04256024*
X16528999Y04293006*
X16467353Y04325772*
X16403599Y04354169*
X16338016Y04378045*
X16270909Y04397273*
X16202634Y04411802*
X16133521Y04421505*
X16063874Y04426381*
X15994075*
X15924453Y04421505*
X1585534Y04411802*
X15787065Y04397273*
X15719958Y04378045*
X15654375Y04354169*
X15590621Y04325772*
X15528975Y04293006*
X15469793Y04256024*
X15413329Y04215003*
X15359862Y04170121*
X15309646Y04121658*
X15262936Y04069765*
X15219959Y04014774*
X15180945Y03956913*
X15146045Y03896461*
X15115438Y03833723*
X15089301Y03769004*
X15067737Y03702634*
X15050846Y03634892*
X1503873Y0356616*
X15031415Y03496741*
X15028976Y03426993*
X15031415Y03357219*
X1503873Y03287826*
X15050846Y03219069*
X15067737Y03151352*
X15089301Y03084957*
X15115438Y03020263*
X15146045Y02957525*
X15180945Y02897073*
X15219959Y02839212*
X15262936Y02784195*
X15309646Y02732328*
X15359862Y0268384*
X15413329Y02638983*
X15469793Y02597937*
X15528975Y02560955*
X15590621Y02528189*
X15654375Y02499791*
X15719958Y02475941*
X15787065Y02456688*
X1585534Y02442184*
X15924453Y02432456*
X15994075Y02427605*
X16063874*
X16133521Y02432456*
X16202634Y02442184*
X16270909Y02456688*
X16338016Y02475941*
X16403599Y02499791*
X16467353Y02528189*
X16528999Y02560955*
X16588181Y02597937*
X16644645Y02638983*
X16698112Y0268384*
X16748328Y02732328*
X16795038Y02784195*
X16838015Y02839212*
X1687703Y02897073*
X16911929Y02957525*
X16942536Y03020263*
X16968673Y03084957*
X16990237Y03151352*
X17007128Y03219069*
X17019244Y03287826*
X17026559Y03357219*
X17028998Y03426993*
Y26826997D02*
D01*
X17026559Y26896745*
X17019244Y26966164*
X17007128Y27034896*
X16990237Y27102612*
X16968673Y27169008*
X16942536Y27233727*
X16911929Y27296465*
X1687703Y27356917*
X16838015Y27414778*
X16795038Y27469769*
X16748328Y27521636*
X16698112Y27570125*
X16644645Y27615007*
X16588181Y27656028*
X16528999Y2769301*
X16467353Y27725776*
X16403599Y27754173*
X16338016Y27778049*
X16270909Y27797277*
X16202634Y27811806*
X16133521Y27821509*
X16063874Y27826385*
X15994075*
X15924453Y27821509*
X1585534Y27811806*
X15787065Y27797277*
X15719958Y27778049*
X15654375Y27754173*
X15590621Y27725776*
X15528975Y2769301*
X15469793Y27656028*
X15413329Y27615007*
X15359862Y27570125*
X15309646Y27521636*
X15262936Y27469769*
X15219959Y27414778*
X15180945Y27356917*
X15146045Y27296465*
X15115438Y27233727*
X15089301Y27169008*
X15067737Y27102612*
X15050846Y27034896*
X1503873Y26966164*
X15031415Y26896745*
X15028976Y26826997*
X15031415Y26757223*
X1503873Y26687805*
X15050846Y26619073*
X15067737Y26551356*
X15089301Y26484961*
X15115438Y26420241*
X15146045Y26357503*
X15180945Y26297077*
X15219959Y2623919*
X15262936Y26184199*
X15309646Y26132332*
X15359862Y26083844*
X15413329Y26038987*
X15469793Y25997941*
X15528975Y25960959*
X15590621Y25928193*
X15654375Y25899795*
X15719958Y25875919*
X15787065Y25856692*
X1585534Y25842188*
X15924453Y2583246*
X15994075Y25827609*
X16063874*
X16133521Y2583246*
X16202634Y25842188*
X16270909Y25856692*
X16338016Y25875919*
X16403599Y25899795*
X16467353Y25928193*
X16528999Y25960959*
X16588181Y25997941*
X16644645Y26038987*
X16698112Y26083844*
X16748328Y26132332*
X16795038Y26184199*
X16838015Y2623919*
X1687703Y26297077*
X16911929Y26357503*
X16942536Y26420241*
X16968673Y26484961*
X16990237Y26551356*
X17007128Y26619073*
X17019244Y26687805*
X17026559Y26757223*
X17028998Y26826997*
Y40326995D02*
D01*
X17026559Y40396744*
X17019244Y40466162*
X17007128Y40534894*
X16990237Y40602636*
X16968673Y40669006*
X16942536Y40733726*
X16911929Y40796464*
X1687703Y40856916*
X16838015Y40914777*
X16795038Y40969768*
X16748328Y41021635*
X16698112Y41070123*
X16644645Y41115005*
X16588181Y41156026*
X16528999Y41193008*
X16467353Y41225774*
X16403599Y41254172*
X16338016Y41278048*
X16270909Y41297275*
X16202634Y41311804*
X16133521Y41321507*
X16063874Y41326384*
X15994075*
X15924453Y41321507*
X1585534Y41311804*
X15787065Y41297275*
X15719958Y41278048*
X15654375Y41254172*
X15590621Y41225774*
X15528975Y41193008*
X15469793Y41156026*
X15413329Y41115005*
X15359862Y41070123*
X15309646Y41021635*
X15262936Y40969768*
X15219959Y40914777*
X15180945Y40856916*
X15146045Y40796464*
X15115438Y40733726*
X15089301Y40669006*
X15067737Y40602636*
X15050846Y40534894*
X1503873Y40466162*
X15031415Y40396744*
X15028976Y40326995*
X15031415Y40257222*
X1503873Y40187803*
X15050846Y40119071*
X15067737Y40051355*
X15089301Y39984959*
X15115438Y3992024*
X15146045Y39857527*
X15180945Y39797075*
X15219959Y39739214*
X15262936Y39684198*
X15309646Y39632331*
X15359862Y39583842*
X15413329Y39538986*
X15469793Y39497939*
X15528975Y39460957*
X15590621Y39428191*
X15654375Y39399794*
X15719958Y39375918*
X15787065Y3935669*
X1585534Y39342187*
X15924453Y39332458*
X15994075Y39327607*
X16063874*
X16133521Y39332458*
X16202634Y39342187*
X16270909Y3935669*
X16338016Y39375918*
X16403599Y39399794*
X16467353Y39428191*
X16528999Y39460957*
X16588181Y39497939*
X16644645Y39538986*
X16698112Y39583842*
X16748328Y39632331*
X16795038Y39684198*
X16838015Y39739214*
X1687703Y39797075*
X16911929Y39857527*
X16942536Y3992024*
X16968673Y39984959*
X16990237Y40051355*
X17007128Y40119071*
X17019244Y40187803*
X17026559Y40257222*
X17028998Y40326995*
X04528997D02*
D01*
X04526559Y40396744*
X04519244Y40466162*
X04507128Y40534894*
X04490237Y40602636*
X04468672Y40669006*
X04442536Y40733726*
X04411929Y40796464*
X04377029Y40856916*
X04338015Y40914777*
X04295038Y40969768*
X04248327Y41021635*
X04198112Y41070123*
X04144645Y41115005*
X0408818Y41156026*
X04028998Y41193008*
X03967353Y41225774*
X03903599Y41254172*
X03838016Y41278048*
X03770909Y41297275*
X03702634Y41311804*
X0363352Y41321507*
X03563899Y41326384*
X034941*
X03424453Y41321507*
X0335534Y41311804*
X03287064Y41297275*
X03219958Y41278048*
X03154375Y41254172*
X03090621Y41225774*
X03028975Y41193008*
X02969793Y41156026*
X02913329Y41115005*
X02859862Y41070123*
X02809646Y41021635*
X02762935Y40969768*
X02719959Y40914777*
X02680944Y40856916*
X02646045Y40796464*
X02615438Y40733726*
X02589301Y40669006*
X02567736Y40602636*
X02550845Y40534894*
X0253873Y40466162*
X02531414Y40396744*
X02528976Y40326995*
X02531414Y40257222*
X0253873Y40187803*
X02550845Y40119071*
X02567736Y40051355*
X02589301Y39984959*
X02615438Y3992024*
X02646045Y39857527*
X02680944Y39797075*
X02719959Y39739214*
X02762935Y39684198*
X02809646Y39632331*
X02859862Y39583842*
X02913329Y39538986*
X02969793Y39497939*
X03028975Y39460957*
X03090621Y39428191*
X03154375Y39399794*
X03219958Y39375918*
X03287064Y3935669*
X0335534Y39342187*
X03424453Y39332458*
X034941Y39327607*
X03563899*
X0363352Y39332458*
X03702634Y39342187*
X03770909Y3935669*
X03838016Y39375918*
X03903599Y39399794*
X03967353Y39428191*
X04028998Y39460957*
X0408818Y39497939*
X04144645Y39538986*
X04198112Y39583842*
X04248327Y39632331*
X04295038Y39684198*
X04338015Y39739214*
X04377029Y39797075*
X04411929Y39857527*
X04442536Y3992024*
X04468672Y39984959*
X04490237Y40051355*
X04507128Y40119071*
X04519244Y40187803*
X04526559Y40257222*
X04528997Y40326995*
Y26826997D02*
D01*
X04526559Y26896745*
X04519244Y26966164*
X04507128Y27034896*
X04490237Y27102612*
X04468672Y27169008*
X04442536Y27233727*
X04411929Y27296465*
X04377029Y27356917*
X04338015Y27414778*
X04295038Y27469769*
X04248327Y27521636*
X04198112Y27570125*
X04144645Y27615007*
X0408818Y27656028*
X04028998Y2769301*
X03967353Y27725776*
X03903599Y27754173*
X03838016Y27778049*
X03770909Y27797277*
X03702634Y27811806*
X0363352Y27821509*
X03563899Y27826385*
X034941*
X03424453Y27821509*
X0335534Y27811806*
X03287064Y27797277*
X03219958Y27778049*
X03154375Y27754173*
X03090621Y27725776*
X03028975Y2769301*
X02969793Y27656028*
X02913329Y27615007*
X02859862Y27570125*
X02809646Y27521636*
X02762935Y27469769*
X02719959Y27414778*
X02680944Y27356917*
X02646045Y27296465*
X02615438Y27233727*
X02589301Y27169008*
X02567736Y27102612*
X02550845Y27034896*
X0253873Y26966164*
X02531414Y26896745*
X02528976Y26826997*
X02531414Y26757223*
X0253873Y26687805*
X02550845Y26619073*
X02567736Y26551356*
X02589301Y26484961*
X02615438Y26420241*
X02646045Y26357503*
X02680944Y26297077*
X02719959Y2623919*
X02762935Y26184199*
X02809646Y26132332*
X02859862Y26083844*
X02913329Y26038987*
X02969793Y25997941*
X03028975Y25960959*
X03090621Y25928193*
X03154375Y25899795*
X03219958Y25875919*
X03287064Y25856692*
X0335534Y25842188*
X03424453Y2583246*
X034941Y25827609*
X03563899*
X0363352Y2583246*
X03702634Y25842188*
X03770909Y25856692*
X03838016Y25875919*
X03903599Y25899795*
X03967353Y25928193*
X04028998Y25960959*
X0408818Y25997941*
X04144645Y26038987*
X04198112Y26083844*
X04248327Y26132332*
X04295038Y26184199*
X04338015Y2623919*
X04377029Y26297077*
X04411929Y26357503*
X04442536Y26420241*
X04468672Y26484961*
X04490237Y26551356*
X04507128Y26619073*
X04519244Y26687805*
X04526559Y26757223*
X04528997Y26826997*
X17028998Y55326991D02*
D01*
X17026559Y55396739*
X17019244Y55466157*
X17007128Y5553489*
X16990237Y55602632*
X16968673Y55669002*
X16942536Y55733721*
X16911929Y55796459*
X1687703Y55856911*
X16838015Y55914772*
X16795038Y55969763*
X16748328Y56021655*
X16698112Y56070144*
X16644645Y56115*
X16588181Y56156021*
X16528999Y56193004*
X16467353Y5622577*
X16403599Y56254167*
X16338016Y56278043*
X16270909Y56297271*
X16202634Y563118*
X16133521Y56321502*
X16063874Y56326379*
X15994075*
X15924453Y56321502*
X1585534Y563118*
X15787065Y56297271*
X15719958Y56278043*
X15654375Y56254167*
X15590621Y5622577*
X15528975Y56193004*
X15469793Y56156021*
X15413329Y56115*
X15359862Y56070144*
X15309646Y56021655*
X15262936Y55969763*
X15219959Y55914772*
X15180945Y55856911*
X15146045Y55796459*
X15115438Y55733721*
X15089301Y55669002*
X15067737Y55602632*
X15050846Y5553489*
X1503873Y55466157*
X15031415Y55396739*
X15028976Y55326991*
X15031415Y55257242*
X1503873Y55187824*
X15050846Y55119066*
X15067737Y5505135*
X15089301Y54984954*
X15115438Y54920261*
X15146045Y54857523*
X15180945Y54797071*
X15219959Y54739209*
X15262936Y54684193*
X15309646Y54632326*
X15359862Y54583838*
X15413329Y54538981*
X15469793Y5449796*
X15528975Y54460952*
X15590621Y54428186*
X15654375Y54399815*
X15719958Y54375939*
X15787065Y54356685*
X1585534Y54342182*
X15924453Y54332454*
X15994075Y54327602*
X16063874*
X16133521Y54332454*
X16202634Y54342182*
X16270909Y54356685*
X16338016Y54375939*
X16403599Y54399815*
X16467353Y54428186*
X16528999Y54460952*
X16588181Y5449796*
X16644645Y54538981*
X16698112Y54583838*
X16748328Y54632326*
X16795038Y54684193*
X16838015Y54739209*
X1687703Y54797071*
X16911929Y54857523*
X16942536Y54920261*
X16968673Y54984954*
X16990237Y5505135*
X17007128Y55119066*
X17019244Y55187824*
X17026559Y55257242*
X17028998Y55326991*
X05043881Y58832978D02*
X0504256Y58834324D01*
X04528997Y55326991D02*
D01*
X04526559Y55396739*
X04519244Y55466157*
X04507128Y5553489*
X04490237Y55602632*
X04468672Y55669002*
X04442536Y55733721*
X04411929Y55796459*
X04377029Y55856911*
X04338015Y55914772*
X04295038Y55969763*
X04248327Y56021655*
X04198112Y56070144*
X04144645Y56115*
X0408818Y56156021*
X04028998Y56193004*
X03967353Y5622577*
X03903599Y56254167*
X03838016Y56278043*
X03770909Y56297271*
X03702634Y563118*
X0363352Y56321502*
X03563899Y56326379*
X034941*
X03424453Y56321502*
X0335534Y563118*
X03287064Y56297271*
X03219958Y56278043*
X03154375Y56254167*
X03090621Y5622577*
X03028975Y56193004*
X02969793Y56156021*
X02913329Y56115*
X02859862Y56070144*
X02809646Y56021655*
X02762935Y55969763*
X02719959Y55914772*
X02680944Y55856911*
X02646045Y55796459*
X02615438Y55733721*
X02589301Y55669002*
X02567736Y55602632*
X02550845Y5553489*
X0253873Y55466157*
X02531414Y55396739*
X02528976Y55326991*
X02531414Y55257242*
X0253873Y55187824*
X02550845Y55119066*
X02567736Y5505135*
X02589301Y54984954*
X02615438Y54920261*
X02646045Y54857523*
X02680944Y54797071*
X02719959Y54739209*
X02762935Y54684193*
X02809646Y54632326*
X02859862Y54583838*
X02913329Y54538981*
X02969793Y5449796*
X03028975Y54460952*
X03090621Y54428186*
X03154375Y54399815*
X03219958Y54375939*
X03287064Y54356685*
X0335534Y54342182*
X03424453Y54332454*
X034941Y54327602*
X03563899*
X0363352Y54332454*
X03702634Y54342182*
X03770909Y54356685*
X03838016Y54375939*
X03903599Y54399815*
X03967353Y54428186*
X04028998Y54460952*
X0408818Y5449796*
X04144645Y54538981*
X04198112Y54583838*
X04248327Y54632326*
X04295038Y54684193*
X04338015Y54739209*
X04377029Y54797071*
X04411929Y54857523*
X04442536Y54920261*
X04468672Y54984954*
X04490237Y5505135*
X04507128Y55119066*
X04519244Y55187824*
X04526559Y55257242*
X04528997Y55326991*
M02*