%FSTAX26Y26*%
%MOMM*%
%SFA1B1*%

%IPPOS*%
%ADD76R,0.699999X0.699999*%
%ADD86C,1.152398*%
%ADD87R,1.152398X1.152398*%
%ADD88C,1.676397*%
%ADD89R,0.401599X3.101594*%
%ADD90R,1.152398X0.652399*%
%ADD91R,2.552395X2.152396*%
%LNpcb_soldermask_bot-1*%
%LPD*%
G54D76*
X10726978Y59641181D03*
Y60641179D03*
G54D86*
X011938Y151384D03*
Y164084D03*
X04699Y449072D03*
Y461772D03*
Y474472D03*
Y48717174D03*
Y49987174D03*
G54D87*
X011938Y138684D03*
X04699Y436372D03*
G54D88*
X16165576Y077486D03*
X159766Y110744D03*
X159512Y147828D03*
X16165576Y18108599D03*
G54D89*
X12958191Y6148738D03*
X1345819D03*
X13958189D03*
X12458192D03*
X11958193D03*
X11458194D03*
X04297984Y606044D03*
X03797985D03*
X03297986D03*
X02797987D03*
X02297988D03*
X01797989D03*
G54D90*
X16770578Y46572779D03*
X187706Y47072778D03*
Y48072776D03*
Y490728D03*
X16770578Y48572775D03*
Y47572777D03*
X028702Y48066198D03*
Y49066196D03*
Y470662D03*
X00870178Y47566199D03*
Y48566197D03*
Y46566175D03*
G54D91*
X17770576Y44772783D03*
Y50872796D03*
X01870176Y50866192D03*
Y44766179D03*
M02*