%FSTAX26Y26*%
%MOMM*%
%SFA1B1*%

%IPPOS*%
%ADD39C,0.152400*%
%ADD40C,0.253999*%
%ADD44C,0.507999*%
%ADD45C,0.406399*%
%ADD47C,0.999998*%
%ADD48R,0.999998X0.999998*%
%ADD49C,0.399999*%
%ADD50C,0.499999*%
%ADD51C,0.507999*%
%ADD52C,1.523997*%
%LNpcb_copper_signal_2-1*%
%LPD*%
G36*
X05043881Y58068006D02*
X10818901D01*
X10853242Y57944766*
X10824768Y5793298*
X10342219Y57450431*
Y57450405*
X10342168Y5745038*
X10320731Y57398615*
X10301909Y57353225*
Y573532*
Y57353174*
X10299319Y50632639*
X04699*
X04654397Y50614173*
X0457426*
X04343806Y5051872*
X04167454Y50342342*
X04071975Y50111888*
Y4986246*
X04167454Y49632006*
X04343806Y49455628*
X0457426Y49360175*
X04654423*
X04699Y49341735*
X09565309*
Y431292*
Y41210839*
X09438309Y41158236*
X09408337Y41188208*
X0926978Y41245586*
X09119793*
X08981236Y41188208*
X08875166Y41082137*
X08865692Y41059227*
X08857284Y4105755*
X08722817Y41046196*
X0860938Y41093186*
X08459393*
X08320836Y41035808*
X08214766Y40929737*
X08157387Y4079118*
Y40641193*
X08214766Y40502636*
X08320836Y40396566*
X08459393Y40339187*
X0860938*
X08747937Y40396566*
X08854008Y40502636*
X08863482Y40525547*
X08871889Y40527224*
X09006357Y40538577*
X09036913Y40525928*
X09066707Y40376119*
X06659168Y3796858*
X06618909Y378714*
Y37871374*
Y36957*
Y31959321*
X06420053Y31760439*
X05461*
Y31760464*
X05363768Y31720205*
Y3172018*
X05262194Y3161858*
X05221909Y315214*
X05221935Y31521374*
Y310896*
X05221909*
X05262194Y30992368*
X05338368Y30916194*
X054356Y30875909*
Y30875935*
X06420053Y30875909*
X06618909Y30677053*
X06618935Y29591*
X06618909Y29590974*
X06659194Y29493768*
X06786168Y29366794*
Y29366768*
X068834Y29326509*
Y29326535*
X07239*
X0733618Y29366794*
X07336205*
X0746318Y29493768*
X07503439Y29590974*
X07620787Y29614952*
X07630439Y29616882*
X07655966Y29555236*
X07762036Y29449166*
X07900593Y29391787*
X0805058*
X08189137Y29449166*
X08295208Y29555236*
X08352586Y29693793*
Y2984378*
X08295208Y29982337*
X08189137Y30088408*
X0805058Y30145786*
X07900593*
X07762036Y30088408*
X07655966Y29982337*
X07630439Y29920717*
X07503439Y29945965*
X07503464Y30702453*
X07676921Y30875909*
X11398453*
X13313994Y28960368*
X134112Y28920109*
X13716*
X1381318Y28960368*
Y28960394*
X13958265Y29105453*
X13959332Y29105225*
X14075587Y29043172*
Y28931793*
X14132966Y28793236*
X14239036Y28687166*
X14377593Y28629787*
X1452758*
X14666137Y28687166*
X14762302Y28603727*
X14767966Y28590036*
X14874036Y28483966*
X15012593Y28426587*
X1516258*
X15301137Y28483966*
X15407208Y28590036*
X15464586Y28728593*
Y2887858*
X15407208Y29017137*
X15301137Y29123208*
X1516258Y29180586*
X15012593*
X14874036Y29123208*
X14777872Y29206647*
X14772208Y29220337*
X14666137Y29326408*
X1452758Y29383786*
X14377593*
X14239036Y29326408*
X14158239Y2924561*
X14040383Y29278783*
X14031239Y29284549*
Y29540174*
X14031264Y295402*
X13991005Y29637405*
X1399098*
X12024639Y31603746*
Y34766427*
X13475665Y36217453*
X13619886Y36182071*
X13650366Y36108436*
X13756436Y36002366*
X13894993Y35944987*
X1404498*
X14183537Y36002366*
X14289608Y36108436*
X14346986Y36246993*
Y3639698*
X14289608Y36535537*
X14183537Y36641608*
X14109903Y36672088*
X14074521Y36816309*
X1437198Y37113794*
X14412264Y37211*
X14412239*
Y3780856*
X14539239Y37861163*
X14569236Y37831166*
X14707793Y37773787*
X1485778*
X14996337Y37831166*
X15102408Y37937236*
X15159786Y38075793*
Y3822578*
X15102408Y38364337*
X14996337Y38470408*
X1485778Y38527786*
X14707793*
X14569236Y38470408*
X14539239Y3844041*
X14412239Y38493014*
Y38862*
X14412264*
X14372005Y38959205*
X1437198*
X13040639Y40290521*
X13040664Y57556374*
X13000405Y5765358*
X1300038*
X1272098Y5793298*
Y57933005*
X12701625Y57941006*
X12726898Y58068006*
X18528995*
Y58066609*
X18720409Y58041413*
X18898793Y57967524*
X19051981Y57849998*
X19169532Y57696785*
X19243421Y57518427*
X19268617Y57326987*
X19270014*
Y53121839*
X184658*
X18368594Y5308158*
X18328335Y529844*
Y50094921*
X17224451Y48991062*
X17204486Y48942828*
X17184217Y48895101*
X17150842Y45197039*
X14097*
X13999794Y4515678*
X13959535Y450596*
Y44906971*
X13948587Y4488058*
Y44730593*
X13959535Y44704203*
Y44119571*
X13948587Y4409318*
Y43943193*
X13959535Y43916803*
Y43306771*
X13948587Y4328038*
Y43130393*
X13959535Y43104003*
Y429514*
X13999794Y42854194*
X14097Y42813935*
X17159909*
Y424688*
Y41823335*
X14882164*
X14772335*
X14757374Y418084*
X14764156Y41801618*
Y41699713*
Y40326995*
X1480726Y39999615*
X14933625Y39694586*
X15134615Y39432636*
X15396565Y3923162*
X15701619Y39105255*
X16028974Y39062177*
X17159909*
Y31951549*
X17032909Y31885534*
X1694058Y31923786*
X16790593*
X16652036Y31866408*
X16545966Y31760337*
X16488587Y3162178*
Y31471793*
X16545966Y31333236*
X16605732Y3127347*
X16637939Y311912*
X16605732Y31108904*
X16545966Y31049137*
X16488587Y3091058*
Y30760593*
X16545966Y30622036*
X16605732Y3056227*
X16637939Y3048*
X16605732Y30397704*
X16545966Y30337937*
X16488587Y3019938*
Y30049393*
X16545966Y29910836*
X16652036Y29804766*
X16790593Y29747387*
X1694058*
X17032909Y2978564*
X17159909Y29719625*
Y28922192*
X17032909Y28869589*
X17007916Y28894608*
X16869359Y28951986*
X16719346*
X16580789Y28894608*
X16474744Y28788537*
X16417366Y2864998*
Y28499993*
X16474744Y28361436*
X16580789Y28255366*
X16719346Y28197987*
X16869359*
X17007916Y28255366*
X17032909Y28280385*
X17159909Y28227782*
Y27621687*
X17032909Y27578558*
X16923359Y27721356*
X16661409Y27922347*
X16356355Y28048712*
X16028974Y28091815*
X15701619Y28048712*
X15396565Y27922347*
X15134615Y27721356*
X14933625Y27459406*
X1480726Y27154352*
X14764156Y26826997*
X1480726Y26499616*
X14933625Y26194588*
X15134615Y25932638*
X15396565Y25731622*
X15701619Y25605257*
X16028974Y25562179*
X16356355Y25605257*
X16661409Y25731622*
X16923359Y25932638*
X17032909Y26075411*
X17159909Y26032307*
Y23755451*
X12186539*
X1208918Y23795786*
X11939193*
X11800636Y23738408*
X11694566Y23632337*
X11692305Y23626826*
X11554841*
X11521008Y23708537*
X11414937Y23814608*
X1127638Y23871986*
X11126393*
X10987836Y23814608*
X10881766Y23708537*
X10824387Y2356998*
Y23419993*
X10881766Y23281436*
X10987836Y23175366*
X11126393Y23117987*
X1127638*
X11414937Y23175366*
X11521008Y23281436*
X11523268Y23286948*
X11660733*
X11694566Y23205236*
X11800636Y23099166*
X11939193Y23041787*
X1208918*
X12186539Y23082123*
X17159909*
Y15682239*
X16323818*
X16317163Y15679496*
X16316579Y15679597*
X163068Y15677667*
X16296995Y15679597*
X16296411Y15679496*
X16289756Y15682239*
X151892*
X15091994Y1564198*
X15051735Y155448*
Y10459059*
X15054478Y10452455*
X15052395Y10445597*
X15074239Y10404703*
X15091994Y10361853*
X15098598Y1035911*
X15101976Y10352786*
X15152776Y10311104*
X15185085Y103013*
X15213177Y10282555*
X15333446Y10258628*
X15424048Y101981*
X15463367Y10190276*
X15500426Y10174935*
X17159909*
Y04221683*
X17032909Y04178553*
X16923359Y04321352*
X16661409Y04522368*
X16356355Y04648708*
X16028974Y04691811*
X15701619Y04648708*
X15396565Y04522368*
X15134615Y04321352*
X14933625Y04059402*
X1480726Y03754348*
X14764156Y03426993*
X1480726Y03099638*
X14933625Y02794584*
X15134615Y02532634*
X15276906Y02423439*
X15233777Y02296439*
X06762521*
X06081039Y02977946*
X06081064Y12813385*
X06040805Y12910591*
X05982462Y12968935*
X06026962Y13095935*
X06459778*
Y13095909*
X06556984Y13136168*
Y13136194*
X07655128Y14234337*
X07655737Y14234566*
X07761808Y14340636*
X07762036Y14341246*
X0784418Y1442339*
X07884464Y14520595*
X07884439*
Y14910409*
X07872704Y14938756*
X07871129Y14969439*
X07853349Y14985466*
X0784418Y15007615*
X07815808Y1501935*
X07793024Y15039924*
X07741335Y15058288*
Y15193086*
X07793024Y1521145*
X07815808Y15232024*
X0784418Y15243759*
X07853349Y15265882*
X07871129Y15281935*
X07872704Y15312618*
X07884439Y15340965*
X07884464Y15730778*
X07844205Y15827984*
X0784418*
X07762036Y15910128*
X07761808Y15910737*
X07655737Y16016808*
X07655128Y16017036*
X06531584Y1714058*
X06434378Y17180864*
X06395262Y17209693*
X06379387Y17361611*
X06573875Y17556099*
X06658076Y17682133*
X06687667Y178308*
Y216916*
X06658076Y2184024*
X06573875Y21966275*
X04719675Y23820475*
X04670806Y23853114*
X04658537Y23865408*
X0464251Y23872037*
X0459364Y23904676*
X04536008Y23916157*
X0451998Y23922786*
X04502632*
X04445Y23934267*
X04387342Y23922786*
X04369993*
X04353966Y23916157*
X04296333Y23904676*
X04247464Y23872037*
X04231436Y23865408*
X04219168Y23853114*
X04170298Y23820475*
X0413766Y23771606*
X04125366Y23759337*
X04118737Y2374331*
X04086098Y2369444*
X04074617Y23636808*
X04067987Y2362078*
Y23603432*
X04056507Y235458*
X04067987Y23488142*
Y23470793*
X04074617Y23454766*
X04086098Y23397133*
X04118737Y23348264*
X04125366Y23332236*
X0413766Y23319968*
X04170298Y23271099*
X05910707Y21530665*
Y186182*
X04474362*
X04423562Y18669*
Y19963028*
X04429912Y19976617*
X04430649Y19992873*
X04431969Y20002703*
X04434179Y20012482*
X04437405Y20022464*
X04441748Y20032827*
X04447489Y20043775*
X04454779Y20055408*
X04463796Y20067676*
X04474743Y20080605*
X04490466Y20096988*
X04499965Y20121219*
X04536008Y20157236*
X04593386Y20295793*
Y2044578*
X04536008Y20584337*
X04489627Y20630718*
X04443018Y207137*
X04489627Y20796656*
X04536008Y20843036*
X04593386Y20981593*
Y2113158*
X04536008Y21270137*
X04440326Y21365819*
X04434738Y214376*
X04440326Y21509355*
X04536008Y21605036*
X04593386Y21743593*
Y2189358*
X04536008Y22032137*
X04429937Y22138208*
X0429138Y22195586*
X04141393*
X04002836Y22138208*
X03896766Y22032137*
X03839387Y2189358*
Y21864294*
X03829939Y21846209*
X03827856Y21822587*
X03825189Y21804325*
X03821734Y21787815*
X03817645Y21773108*
X03812971Y21759951*
X03807815Y21748292*
X03802253Y21737955*
X03796258Y21728709*
X03789781Y21720352*
X03778758Y21708364*
X03773576Y21694165*
X03231692Y21152281*
X03186785Y21085073*
X03171012Y210058*
Y21005774*
Y19110401*
X03110585Y1905*
X00287959*
Y57326987*
X00289356*
X00314553Y57518427*
X00388442Y57696785*
X00505993Y57849998*
X0065918Y57967524*
X00837565Y58041413*
X01028979Y58066609*
Y58068006*
X01043889*
X01043914*
X05043881*
G37*
G36*
X129032Y57556374D02*
Y402336D01*
X142748Y38862*
Y37211*
X11887174Y34823374*
Y315468*
X138938Y295402*
Y292354*
X13716Y290576*
X134112*
X114554Y310134*
X0762*
X07366Y307594*
Y29591*
X07239Y29464*
X068834*
X067564Y29590974*
Y30734*
X06477Y310134*
X054356*
X053594Y310896*
Y315214*
X05461Y31623*
X06477*
X067564Y31902374*
Y36957*
Y378714*
X09702774Y40817774*
Y431292*
X097028Y494792*
X04699*
Y504952*
X10436733*
X104394Y573532*
X10922Y57835774*
X12623774Y578358*
X129032Y57556374*
G37*
G36*
X04195927Y21569426D02*
X04169435Y21570721D01*
X0414401Y21570188*
X04119651Y21567775*
X0409641Y21563558*
X04074236Y21557488*
X04053128Y21549563*
X04033139Y21539784*
X0401419Y21528176*
X03996359Y21514739*
X03979595Y21499423*
X03879977Y21615349*
X03894937Y21631605*
X03908475Y21649105*
X03920642Y21667851*
X03931412Y21687866*
X03940784Y217091*
X03948785Y21731605*
X03955389Y21755354*
X03960596Y21780347*
X03964432Y2180656*
X0396687Y21834068*
X04195927Y21569426*
G37*
G36*
X04177995Y20809559D02*
X04152239Y20812607D01*
X04127449Y20813598*
X04103624Y20812556*
X04080789Y20809432*
X04058945Y20804251*
X04038066Y20797037*
X04018178Y20787766*
X03999255Y20776412*
X03981297Y20763026*
X0396433Y20747583*
X03873042Y20871815*
X03887749Y2088774*
X03901338Y20904987*
X03913759Y20923554*
X03925036Y20943417*
X03935171Y20964575*
X03944162Y20987054*
X03951986Y21010854*
X03958691Y21035949*
X03964228Y2106234*
X03968648Y21090026*
X04177995Y20809559*
G37*
G36*
X0437261Y2017273D02*
X0435582Y20152868D01*
X04340987Y20132725*
X0432816Y20112228*
X04317288Y20091425*
X04308398Y20070318*
X0430149Y2004888*
X04296537Y20027138*
X04293565Y20005065*
X042926Y19982688*
X041402*
X04139209Y20005065*
X04136237Y20027138*
X0413131Y2004888*
X04124375Y20070318*
X04115485Y20091425*
X04104614Y20112228*
X04091787Y20132725*
X04076954Y20152868*
X04060164Y2017273*
X04041394Y20192238*
X0439138*
X0437261Y2017273*
G37*
G36*
X03403447Y17748275D02*
X03388233Y17731638D01*
X03374745Y17713858*
X03362985Y1769496*
X03352952Y1767492*
X03344646Y17653736*
X03338068Y17631435*
X03333191Y17608016*
X03330041Y17583429*
X03328644Y17557724*
X03328949Y17530876*
X03073476Y17770144*
X03100781Y17771516*
X03126867Y17774437*
X03151733Y17778857*
X03175381Y177848*
X03197834Y17792268*
X03219069Y17801259*
X03239109Y1781175*
X03257956Y17823764*
X03275558Y17837277*
X03291967Y17852339*
X03403447Y17748275*
G37*
G36*
X01270101Y17719116D02*
X01254988Y17702606D01*
X01241475Y17684902*
X01229588Y1766603*
X01219301Y17645989*
X01210665Y17624755*
X01203655Y17602377*
X01198245Y17578806*
X0119446Y17554067*
X01192301Y17528159*
X01191768Y17501082*
X00944295Y17748554*
X00971372Y17749113*
X0099728Y17751247*
X01022019Y17755031*
X0104559Y17760442*
X01067968Y17767452*
X01089202Y17776113*
X01109243Y17786375*
X01128115Y17798262*
X01145819Y17811775*
X01162329Y17826888*
X01270101Y17719116*
G37*
G36*
X02054529Y17656632D02*
X02100173Y17629454D01*
X02122754Y17618405*
X02145157Y17609058*
X02167407Y17601438*
X0218948Y17595469*
X02211374Y17591227*
X02233117Y17588687*
X02254707Y17587849*
X02281021Y17435449*
X0225806Y17434356*
X02235885Y17431105*
X02214549Y17425695*
X02194026Y17418151*
X02174316Y17408423*
X02155444Y17396536*
X02137359Y1738249*
X02120138Y17366284*
X02103704Y17347895*
X02088108Y17327372*
X02031466Y17672761*
X02054529Y17656632*
G37*
G36*
X19270014Y01126998D02*
X19268617D01*
X19243421Y00935558*
X19169532Y00757174*
X19051981Y00603986*
X18898793Y00486435*
X18720409Y00412546*
X18528995Y0038735*
Y00385978*
X01028979*
Y0038735*
X00837565Y00412546*
X0065918Y00486435*
X00505993Y00603986*
X00388442Y00757174*
X00314553Y00935558*
X00289356Y01126998*
X00287959*
Y0635889*
X00309295Y06374511*
X00481965Y06344462*
X00490194Y06332194*
X00614883Y06248857*
X00762Y06219596*
X00909091Y06248857*
X0103378Y06332194*
X01117117Y06456883*
X01146378Y06604*
X01117117Y06751091*
X0103378Y0687578*
X00909091Y06959117*
X00762Y06988378*
X00614883Y06959117*
X00490194Y0687578*
X00481965Y06863511*
X00309295Y06833463*
X00287959Y0684911*
Y09355759*
X03835374Y12903174*
X05853785Y129032*
X059436Y12813385*
X05943574Y02921*
X067056Y02159*
X16560774*
X172974Y028956*
Y103124*
X15500426*
X15387091Y10388117*
X1524Y10417378*
X151892Y10459059*
Y155448*
X16289756*
X163068Y15541396*
X16323818Y155448*
X172974*
X17297374Y419608*
X172974Y424688*
Y429514*
X14097*
Y450596*
X17287062*
X17321657Y48893857*
X184658Y50038*
Y529844*
X19270014*
Y01126998*
G37*
G36*
X06434378Y17043374D02*
X07747Y15730778D01*
X07746974Y15340965*
X0757113Y15278455*
X07451953Y15290647*
X07430058Y15331236*
X0741238Y15373883*
X07405547Y15376728*
X07402017Y15383256*
X06792417Y15879953*
X06748195Y15893186*
X067056Y15910839*
X00287959*
Y170434*
X06434378Y17043374*
G37*
G36*
X073152Y15276677D02*
Y14975255D01*
X06731Y145034*
X00287959*
Y157734*
X067056*
X073152Y15276677*
G37*
G36*
X07747Y14910409D02*
Y14520595D01*
X06459778Y132334*
X00287959Y13233349*
Y14365935*
X06731*
X06773367Y14383486*
X0681736Y1439644*
X0740156Y14868296*
X07405268Y14875078*
X0741238Y1487805*
X07429931Y14920417*
X07451877Y14960701*
X07571181Y14972893*
X07747Y14910409*
G37*
%LNpcb_copper_signal_2-2*%
%LPC*%
G36*
X16028974Y56591809D02*
X15701619Y56548705D01*
X15396565Y56422366*
X15134615Y5622135*
X14933625Y559594*
X1480726Y55654346*
X14764156Y55326991*
X1480726Y54999636*
X14933625Y54694582*
X15134615Y54432606*
X15396565Y54231616*
X15701619Y54105276*
X16028974Y54062172*
X16356355Y54105276*
X16661409Y54231616*
X16923359Y54432606*
X17124349Y54694582*
X17250714Y54999636*
X17293818Y55326991*
X17250714Y55654346*
X17124349Y559594*
X16923359Y5622135*
X16661409Y56422366*
X16356355Y56548705*
X16028974Y56591809*
G37*
G36*
X03528999D02*
X03201619Y56548705D01*
X02896565Y56422366*
X02634615Y5622135*
X02433624Y559594*
X02307259Y55654346*
X02264156Y55326991*
X02307259Y54999636*
X02433624Y54694582*
X02634615Y54432606*
X02896565Y54231616*
X03201619Y54105276*
X03528999Y54062172*
X03856355Y54105276*
X04161409Y54231616*
X04423359Y54432606*
X04624349Y54694582*
X04750714Y54999636*
X04793818Y55326991*
X04750714Y55654346*
X04624349Y559594*
X04423359Y5622135*
X04161409Y56422366*
X03856355Y56548705*
X03528999Y56591809*
G37*
G36*
X1602618Y53310586D02*
X15876193D01*
X15737636Y53253208*
X15631566Y53147137*
X15574187Y5300858*
Y52858593*
X15631566Y52720036*
X15737636Y52613966*
X15876193Y52556587*
X1602618*
X16164737Y52613966*
X16270808Y52720036*
X16328186Y52858593*
Y5300858*
X16270808Y53147137*
X16164737Y53253208*
X1602618Y53310586*
G37*
G36*
X1554358Y51735786D02*
X15393593D01*
X15255036Y51678408*
X15148966Y51572337*
X15091587Y5143378*
Y51283793*
X15148966Y51145236*
X15255036Y51039166*
X15393593Y50981787*
X1554358*
X15682137Y51039166*
X15788208Y51145236*
X15845586Y51283793*
Y5143378*
X15788208Y51572337*
X15682137Y51678408*
X1554358Y51735786*
G37*
G36*
X04823714Y48074199D02*
X0457426D01*
X04343806Y4797872*
X04167454Y47802342*
X04071975Y47571914*
Y4732246*
X04167454Y47092006*
X04343806Y46915628*
X04427651Y46880907*
Y46743467*
X04343806Y4670872*
X04167454Y46532368*
X04071975Y46301914*
Y4605246*
X04167454Y45822006*
X04343806Y45645654*
X04427651Y45610907*
Y45473467*
X04343806Y4543872*
X04167454Y45262342*
X04071975Y45031914*
Y4478246*
X04167454Y44552006*
X04328287Y44391199*
X04315587Y44317869*
X04289348Y44264199*
X04071975*
Y43010175*
X05325999*
Y44264199*
X05108625*
X05082387Y44317869*
X05069687Y44391199*
X0523052Y44552006*
X05325999Y4478246*
Y45031914*
X0523052Y45262342*
X05054168Y4543872*
X04970322Y45473467*
Y45610907*
X05054168Y45645654*
X0523052Y45822006*
X05325999Y4605246*
Y46301914*
X0523052Y46532368*
X05054168Y4670872*
X04970322Y46743467*
Y46880907*
X05054168Y46915628*
X0523052Y47092006*
X05325999Y4732246*
Y47571914*
X0523052Y47802342*
X05054168Y4797872*
X04823714Y48074199*
G37*
G36*
X03528999Y41591814D02*
X03201619Y4154871D01*
X02896565Y41422345*
X02634615Y41221355*
X02433624Y40959405*
X02307259Y40654351*
X02264156Y40326995*
X02307259Y39999615*
X02433624Y39694586*
X02634615Y39432636*
X02896565Y3923162*
X03201619Y39105255*
X03528999Y39062177*
X03856355Y39105255*
X04161409Y3923162*
X04423359Y39432636*
X04624349Y39694586*
X04750714Y39999615*
X04793818Y40326995*
X04750714Y40654351*
X04624349Y40959405*
X04423359Y41221355*
X04161409Y41422345*
X03856355Y4154871*
X03528999Y41591814*
G37*
G36*
X0589158Y36698986D02*
X05741593D01*
X05603036Y36641608*
X05496966Y36535537*
X05439587Y3639698*
Y36246993*
X05496966Y36108436*
X05603036Y36002366*
X05741593Y35944987*
X0589158*
X06030137Y36002366*
X06136208Y36108436*
X06193586Y36246993*
Y3639698*
X06136208Y36535537*
X06030137Y36641608*
X0589158Y36698986*
G37*
G36*
X10762589Y30038395D02*
X10612602D01*
X10474045Y29981017*
X10420756Y29927727*
X10358348Y29879442*
X10254818Y29927727*
X10221137Y29961408*
X1008258Y30018786*
X09932593*
X09794036Y29961408*
X09687966Y29855337*
X09630587Y2971678*
Y29566793*
X09687966Y29428236*
X09794036Y29322166*
X09932593Y29264787*
X1008258*
X10221137Y29322166*
X10274427Y29375481*
X10336834Y29423741*
X10440365Y29375481*
X10474045Y293418*
X10612602Y29284396*
X10762589*
X10901146Y293418*
X11007217Y29447845*
X11064595Y29586402*
Y29736389*
X11007217Y29874946*
X10901146Y29981017*
X10762589Y30038395*
G37*
G36*
X03528999Y28091815D02*
X03201619Y28048712D01*
X02896565Y27922347*
X02634615Y27721356*
X02433624Y27459406*
X02307259Y27154352*
X02264156Y26826997*
X02307259Y26499616*
X02433624Y26194588*
X02634615Y25932638*
X02896565Y25731622*
X03201619Y25605257*
X03528999Y25562179*
X03856355Y25605257*
X04161409Y25731622*
X04423359Y25932638*
X04624349Y26194588*
X04750714Y26499616*
X04793818Y26826997*
X04750714Y27154352*
X04624349Y27459406*
X04423359Y27721356*
X04161409Y27922347*
X03856355Y28048712*
X03528999Y28091815*
G37*
G36*
X1188598Y22728986D02*
X11735993D01*
X11597436Y22671608*
X11491366Y22565537*
X11433987Y2242698*
Y22276993*
X11491366Y22138436*
X11597436Y22032366*
X11735993Y21974987*
X1188598*
X12024537Y22032366*
X12058548Y22066402*
X1207201Y22070999*
X12076328Y22071888*
X12078208Y22073158*
X12080494Y2207392*
X12082983Y22076105*
X12086793Y22077629*
X12094184Y22079813*
X12104827Y2208215*
X12116892Y22084055*
X12155982Y22087128*
X12178766Y22087535*
X12191339Y22092996*
X1349441*
X13672566Y21914866*
X13756589Y21858732*
X138557Y21838996*
X15264206*
X15275991Y21833611*
X15323667Y21831858*
X15338882Y21830309*
X15352547Y2182815*
X15363215Y21825813*
X15370606Y21823603*
X15374391Y21822105*
X1537688Y2181992*
X15379166Y21819158*
X15381046Y21817888*
X15385364Y21816999*
X15398826Y21812402*
X15432836Y21778366*
X15571393Y21720987*
X1572138*
X15859937Y21778366*
X15966008Y21884436*
X16023386Y22022993*
Y2217298*
X15966008Y22311537*
X15859937Y22417608*
X1572138Y22474986*
X15571393*
X15432836Y22417608*
X15398826Y22383572*
X15385364Y22378974*
X15381046Y22378085*
X15379166Y22376815*
X1537688Y22376053*
X15374391Y22373869*
X15370581Y22372345*
X1536319Y22370161*
X15352547Y22367824*
X15340482Y22365919*
X15301391Y22362845*
X15278608Y22362439*
X15266035Y22356978*
X13962964*
X13784808Y22535108*
X13700785Y22591242*
X136017Y22610978*
X12193168*
X12181382Y22616363*
X12133707Y22618115*
X12118492Y22619665*
X12104827Y22621824*
X12094159Y22624161*
X12086767Y2262637*
X12082983Y22627869*
X12080494Y22630053*
X12078208Y22630815*
X12076328Y22632085*
X1207201Y22632974*
X12058548Y22637572*
X12024537Y22671608*
X1188598Y22728986*
G37*
G36*
X1414658Y21662186D02*
X13996593D01*
X13858036Y21604808*
X13751966Y21498737*
X13694587Y2136018*
Y21210193*
X13751966Y21071636*
X13858036Y20965566*
X13996593Y20908187*
X1414658*
X14285137Y20965566*
X14391208Y21071636*
X14448586Y21210193*
Y2136018*
X14391208Y21498737*
X14285137Y21604808*
X1414658Y21662186*
G37*
G36*
X1346078Y20544586D02*
X13310793D01*
X13172236Y20487208*
X13066166Y20381137*
X13008787Y2024258*
Y20092593*
X13066166Y19954036*
X13172236Y19847966*
X13310793Y19790587*
X1346078*
X13599337Y19847966*
X13705408Y19954036*
X13762786Y20092593*
Y2024258*
X13705408Y20381137*
X13599337Y20487208*
X1346078Y20544586*
G37*
G36*
X1363858Y19452386D02*
X13488593D01*
X13350036Y19395008*
X13243966Y19288937*
X13186587Y1915038*
Y19000393*
X13243966Y18861836*
X13350036Y18755766*
X13488593Y18698387*
X1363858*
X13777137Y18755766*
X13883208Y18861836*
X13940586Y19000393*
Y1915038*
X13883208Y19288937*
X13777137Y19395008*
X1363858Y19452386*
G37*
G36*
X1168278Y18309386D02*
X11532793D01*
X11394236Y18252008*
X11347856Y18205627*
X112649Y18159018*
X11181918Y18205627*
X11135537Y18252008*
X1099698Y18309386*
X10846993*
X10708436Y18252008*
X10602366Y18145937*
X10544987Y1800738*
Y17857393*
X10602366Y17718836*
X10708436Y17612766*
X10846993Y17555387*
X1099698*
X11135537Y17612766*
X11181918Y17659146*
X112649Y17705755*
X11347856Y17659146*
X11394236Y17612766*
X11532793Y17555387*
X1168278*
X11821337Y17612766*
X11927408Y17718836*
X11984786Y17857393*
Y1800738*
X11927408Y18145937*
X11821337Y18252008*
X1168278Y18309386*
G37*
G36*
X1343538Y18080786D02*
X13285393D01*
X13146836Y18023408*
X13040766Y17917337*
X12983387Y1777878*
Y17628793*
X13040766Y17490236*
X13146836Y17384166*
X13285393Y17326787*
X1343538*
X13573937Y17384166*
X13680008Y17490236*
X13737386Y17628793*
Y1777878*
X13680008Y17917337*
X13573937Y18023408*
X1343538Y18080786*
G37*
G36*
X1272418Y17471186D02*
X12574193D01*
X12435636Y17413808*
X12329566Y17307737*
X12272187Y1716918*
Y17019193*
X12329566Y16880636*
X12435636Y16774566*
X12574193Y16717187*
X1272418*
X12862737Y16774566*
X12968808Y16880636*
X13026186Y17019193*
Y1716918*
X12968808Y17307737*
X12862737Y17413808*
X1272418Y17471186*
G37*
G36*
X0947298Y13788186D02*
X09322993D01*
X09184436Y13730808*
X09078366Y13624737*
X09020987Y1348618*
Y13383336*
X08981008Y13347928*
X08911056Y13309904*
X08903665Y13308126*
X0878718Y13356386*
X08637193*
X08498636Y13299008*
X08392566Y13192937*
X08335187Y1305438*
Y12904393*
X08372576Y12814173*
X08373668Y12811455*
X08266023Y12739522*
X08265591Y12739928*
X08214537Y12791008*
X0807598Y12848386*
X07925993*
X07787436Y12791008*
X07681366Y12684937*
X07623987Y1254638*
Y12396393*
X07681366Y12257836*
X07787436Y12151766*
X07925993Y12094387*
X0807598*
X08214537Y12151766*
X08320608Y12257836*
X08377986Y12396393*
Y1254638*
X08340597Y12636601*
X08339505Y12639319*
X08447151Y12711252*
X08447582Y12710845*
X08498636Y12659766*
X08637193Y12602387*
X0878718*
X08925737Y12659766*
X09031808Y12765836*
X09089186Y12904393*
Y13007238*
X09129166Y13042646*
X09199118Y13080669*
X09206509Y13082447*
X09322993Y13034187*
X0947298*
X09611537Y13091566*
X09717608Y13197636*
X09774986Y13336193*
Y1348618*
X09717608Y13624737*
X09611537Y13730808*
X0947298Y13788186*
G37*
G36*
X1188598Y16531386D02*
X11735993D01*
X11597436Y16474008*
X11491366Y16367937*
X11433987Y1622938*
Y16079393*
X11491366Y15940836*
X11525732Y1590647*
X11568455Y15797326*
X11525046Y15741218*
X11465966Y15682137*
X11408587Y1554358*
Y15393593*
X11465966Y15255036*
X11512346Y15208656*
X11558955Y151257*
X11512346Y15042718*
X11465966Y14996337*
X11408587Y1485778*
Y14707793*
X11465966Y14569236*
X11572036Y14463166*
X11710593Y14405787*
X11761546*
X11785371Y14395348*
X11808104Y14394916*
X11824995Y14393519*
X11840032Y14391208*
X11853418Y14388134*
X11865178Y14384451*
X11875617Y1438021*
X11884939Y14375434*
X11893423Y14370075*
X11901322Y14364055*
X11913311Y14353082*
X11927408Y14347952*
X12569012Y13706373*
Y12553137*
X12507264Y12516459*
X12442012Y12492126*
X1231778Y12543586*
X12167793*
X12029236Y12486208*
X11995556Y12452527*
X119126Y12388342*
X11829618Y12452527*
X11795937Y12486208*
X1165738Y12543586*
X11507393*
X11368836Y12486208*
X11335156Y12452527*
X112522Y12388342*
X11169218Y12452527*
X11135537Y12486208*
X1099698Y12543586*
X10846993*
X10708436Y12486208*
X10602366Y12380137*
X10544987Y1224158*
Y12091593*
X10602366Y11953036*
X10708436Y11846966*
X10846993Y11789587*
X1099698*
X11135537Y11846966*
X11169218Y11880646*
X112522Y11944832*
X11335156Y11880646*
X11368836Y11846966*
X11507393Y11789587*
X1165738*
X11795937Y11846966*
X11829618Y11880646*
X119126Y11944832*
X11995556Y11880646*
X12029236Y11846966*
X12167793Y11789587*
X1231778*
X12442012Y11841048*
X12507264Y11816715*
X12569012Y11780037*
Y11160201*
X12562408Y11153622*
X12548311Y11148491*
X12536322Y11137519*
X12528423Y11131499*
X12519939Y11126139*
X12510617Y11121364*
X12500178Y11117122*
X12488418Y11113439*
X12475032Y11110366*
X12459995Y11108055*
X12443104Y11106658*
X12420371Y11106226*
X12396546Y11095786*
X12345593*
X12207036Y11038408*
X12100966Y10932337*
X12043587Y1079378*
Y10643793*
X12100966Y10505236*
X12207036Y10399166*
X12345593Y10341787*
X1249558*
X12634137Y10399166*
X12740208Y10505236*
X12746812Y10521188*
X12873812Y1049594*
Y09534601*
X12562408Y09223222*
X12548311Y09218091*
X12536322Y09207119*
X12528423Y09201099*
X12519939Y09195739*
X12510617Y09190964*
X12500178Y09186722*
X12488418Y09183039*
X12475032Y09179966*
X12459995Y09177655*
X12443104Y09176258*
X12420371Y09175826*
X12396546Y09165386*
X12345593*
X12207036Y09108008*
X12100966Y09001937*
X12043587Y0886338*
Y08713393*
X12100966Y08574836*
X12207036Y08468766*
X12345593Y08411387*
X1249558*
X12634137Y08468766*
X12740208Y08574836*
X12797586Y08713393*
Y08764346*
X12808026Y08788171*
X12808458Y08810904*
X12809855Y08827795*
X12812166Y08842832*
X12815239Y08856218*
X12818922Y08867978*
X1282319Y08878417*
X12827939Y08887739*
X12833299Y08896223*
X12839319Y08904122*
X12850291Y08916111*
X12855422Y08930208*
X13035889Y09110675*
X13153212Y09062085*
Y07883601*
X12562408Y07292822*
X12548311Y07287691*
X12536322Y07276719*
X12528423Y07270699*
X12519939Y07265339*
X12510617Y07260564*
X12500178Y07256322*
X12488418Y07252639*
X12475032Y07249566*
X12459995Y07247255*
X12443104Y07245858*
X12420371Y07245426*
X12396546Y07234986*
X12345593*
X12207036Y07177608*
X12100966Y07071537*
X12043587Y0693298*
Y06782993*
X12100966Y06644436*
X12207036Y06538366*
X12345593Y06480987*
X1249558*
X12634137Y06538366*
X12740208Y06644436*
X12797586Y06782993*
Y06833946*
X12808026Y06857771*
X12808458Y06880504*
X12809855Y06897395*
X12812166Y06912432*
X12815239Y06925818*
X12818922Y06937578*
X1282319Y06948017*
X12827939Y06957339*
X12833299Y06965823*
X12839319Y06973722*
X12850291Y06985711*
X12855422Y06999808*
X13506881Y07651292*
X13551789Y07718501*
X13567562Y077978*
Y14605*
X13551789Y14684273*
X13506881Y14751481*
X12245822Y16012566*
X12240691Y16026663*
X12229719Y16038652*
X12223699Y16046551*
X12218339Y16055035*
X12213564Y16064357*
X12209322Y16074796*
X12205639Y16086556*
X12202566Y16099942*
X12200255Y16114979*
X12198858Y1613187*
X12198426Y16154603*
X12187986Y16178428*
Y1622938*
X12130608Y16367937*
X12024537Y16474008*
X1188598Y16531386*
G37*
%LNpcb_copper_signal_2-3*%
%LPD*%
G36*
X11999849Y22517862D02*
X12012041Y22509708D01*
X12026087Y22502495*
X12041987Y22496272*
X12059742Y22490988*
X12079351Y2248667*
X12100814Y22483318*
X12124131Y22480905*
X12176328Y22479*
Y22225*
X12149302Y22224517*
X12100814Y22220656*
X12079351Y22217303*
X12059742Y22212985*
X12041987Y22207702*
X12026087Y22201479*
X12012041Y22194266*
X11999849Y22186112*
X11989536Y22176994*
Y2252698*
X11999849Y22517862*
G37*
G36*
X15467838Y21922994D02*
X15457525Y21932112D01*
X15445333Y21940266*
X15431287Y21947479*
X15415387Y21953702*
X15397632Y21958985*
X15378023Y21963303*
X1535656Y21966656*
X15333243Y21969069*
X15281046Y21971*
Y22225*
X15308072Y22225457*
X1535656Y22229318*
X15378023Y2223267*
X15397632Y22236988*
X15415387Y22242272*
X15431287Y22248495*
X15445333Y22255708*
X15457525Y22263862*
X15467838Y2227298*
Y21922994*
G37*
G36*
X12061494Y16124809D02*
X12063679Y16098901D01*
X12067438Y16074161*
X12072848Y1605059*
X12079859Y16028212*
X12088495Y16006978*
X12098756Y15986937*
X12110669Y15968065*
X12124156Y15950361*
X12139295Y15933826*
X12031548Y15826079*
X12015012Y15841218*
X11997309Y15854705*
X11978436Y15866618*
X11958396Y15876879*
X11937161Y15885515*
X11914784Y15892526*
X11891213Y15897936*
X11866473Y15901695*
X11840565Y15903879*
X11813489Y15904387*
X12060986Y16151885*
X12061494Y16124809*
G37*
G36*
X12036094Y15439009D02*
X12038279Y15413101D01*
X12042038Y15388361*
X12047448Y1536479*
X12054459Y15342412*
X12063095Y15321178*
X12073356Y15301137*
X12085269Y15282265*
X12098756Y15264561*
X12113895Y15248026*
X12006148Y15140279*
X11989612Y15155418*
X11971909Y15168905*
X11953036Y15180818*
X11932996Y15191079*
X11911761Y15199715*
X11889384Y15206726*
X11865813Y15212136*
X11841073Y15215895*
X11815165Y15218079*
X11788089Y15218587*
X12035586Y15466085*
X12036094Y15439009*
G37*
G36*
Y14753209D02*
X12038279Y14727301D01*
X12042038Y14702561*
X12047448Y1467899*
X12054459Y14656612*
X12063095Y14635378*
X12073356Y14615337*
X12085269Y14596465*
X12098756Y14578761*
X12113895Y14562226*
X12006148Y14454479*
X11989612Y14469618*
X11971909Y14483105*
X11953036Y14495018*
X11932996Y14505279*
X11911761Y14513915*
X11889384Y14520926*
X11865813Y14526336*
X11841073Y14530095*
X11815165Y14532279*
X11788089Y14532787*
X12035586Y14780285*
X12036094Y14753209*
G37*
G36*
X12748895Y10939348D02*
X12733756Y10922812D01*
X12720269Y10905109*
X12708356Y10886236*
X12698095Y10866196*
X12689459Y10844961*
X12682448Y10822584*
X12677038Y10799013*
X12673279Y10774273*
X12671094Y10748365*
X12670586Y10721289*
X12423089Y10968786*
X12450165Y10969294*
X12476073Y10971479*
X12500813Y10975238*
X12524384Y10980648*
X12546761Y10987659*
X12567996Y10996295*
X12588036Y11006556*
X12606909Y11018469*
X12624612Y11031956*
X12641148Y11047095*
X12748895Y10939348*
G37*
G36*
Y09008948D02*
X12733756Y08992412D01*
X12720269Y08974709*
X12708356Y08955836*
X12698095Y08935796*
X12689459Y08914561*
X12682448Y08892184*
X12677038Y08868613*
X12673279Y08843873*
X12671094Y08817965*
X12670586Y08790889*
X12423089Y09038386*
X12450165Y09038894*
X12476073Y09041079*
X12500813Y09044838*
X12524384Y09050248*
X12546761Y09057259*
X12567996Y09065895*
X12588036Y09076156*
X12606909Y09088069*
X12624612Y09101556*
X12641148Y09116695*
X12748895Y09008948*
G37*
G36*
Y07078548D02*
X12733756Y07062012D01*
X12720269Y07044309*
X12708356Y07025436*
X12698095Y07005396*
X12689459Y06984161*
X12682448Y06961784*
X12677038Y06938213*
X12673279Y06913473*
X12671094Y06887565*
X12670586Y06860489*
X12423089Y07107986*
X12450165Y07108494*
X12476073Y07110679*
X12500813Y07114438*
X12524384Y07119848*
X12546761Y07126859*
X12567996Y07135495*
X12588036Y07145756*
X12606909Y07157669*
X12624612Y07171156*
X12641148Y07186295*
X12748895Y07078548*
G37*
%LNpcb_copper_signal_2-4*%
%LPC*%
G36*
X080264Y36655578D02*
X07879283Y36626317D01*
X07754594Y3654298*
X07671257Y36418291*
X07641996Y362712*
X07671257Y36124083*
X07754594Y35999394*
X07879283Y35916057*
X080264Y35886796*
X08173491Y35916057*
X0829818Y35999394*
X08381517Y36124083*
X08410778Y362712*
X08381517Y36418291*
X0829818Y3654298*
X08173491Y36626317*
X080264Y36655578*
G37*
G36*
X111506Y36477778D02*
X11003483Y36448517D01*
X10878794Y3636518*
X10795457Y36240491*
X10766196Y360934*
X10795457Y35946283*
X10878794Y35821594*
X11003483Y35738257*
X11143792Y35710368*
X11153343Y35705618*
X11240973Y3559749*
X11223396Y355092*
X11252657Y35362083*
X11335994Y35237394*
X11460683Y35154057*
X116078Y35124796*
X11754891Y35154057*
X1187958Y35237394*
X11962917Y35362083*
X11992178Y355092*
X11978817Y35576306*
X12085066Y35684663*
X120904Y35683596*
X12237491Y35712857*
X1236218Y35796194*
X12445517Y35920883*
X12474778Y36068*
X12445517Y36215091*
X1236218Y3633978*
X12237491Y36423117*
X120904Y36452378*
X11943283Y36423117*
X11818594Y3633978*
X11735257Y36215091*
X11705996Y36068*
X11620601Y36006455*
X11534978Y360934*
X11505717Y36240491*
X1142238Y3636518*
X11297691Y36448517*
X111506Y36477778*
G37*
G36*
X184912Y45799578D02*
X18344083Y45770317D01*
X18219394Y4568698*
X18136057Y45562291*
X18106796Y454152*
X18136057Y45268083*
X18219394Y45143394*
X18230494Y45135952*
Y44983222*
X18219394Y4497578*
X18136057Y44851091*
X18106796Y44704*
X18136057Y44556883*
X18219394Y44432194*
X18230494Y44424752*
Y44272022*
X18219394Y4426458*
X18136057Y44139891*
X18106796Y439928*
X18136057Y43845683*
X18219394Y43720994*
X18230494Y43713552*
Y43560822*
X18219394Y4355338*
X18136057Y43428691*
X18106796Y432816*
X18136057Y43134483*
X18219394Y43009794*
X18344083Y42926457*
X184912Y42897196*
X18638291Y42926457*
X1876298Y43009794*
X18846317Y43134483*
X18875578Y432816*
X18846317Y43428691*
X1876298Y4355338*
X1875188Y43560822*
Y43713552*
X1876298Y43720994*
X18846317Y43845683*
X18875578Y439928*
X18846317Y44139891*
X1876298Y4426458*
X1875188Y44272022*
Y44424752*
X1876298Y44432194*
X18846317Y44556883*
X18875578Y44704*
X18846317Y44851091*
X1876298Y4497578*
X1875188Y44983222*
Y45135952*
X1876298Y45143394*
X18846317Y45268083*
X18875578Y454152*
X18846317Y45562291*
X1876298Y4568698*
X18638291Y45770317*
X184912Y45799578*
G37*
G36*
X186944Y29137178D02*
X18547283Y29107917D01*
X18422594Y2902458*
X18339257Y28899891*
X18309996Y287528*
X18339257Y28605683*
X18422594Y28480994*
X18547283Y28397657*
X186944Y28368396*
X18841491Y28397657*
X1896618Y28480994*
X19049517Y28605683*
X19078778Y287528*
X19049517Y28899891*
X1896618Y2902458*
X18841491Y29107917*
X186944Y29137178*
G37*
G36*
X18669Y20729778D02*
X18521883Y20700517D01*
X18397194Y2061718*
X18313857Y20492491*
X18284596Y203454*
X18313857Y20198283*
X18397194Y20073594*
X18521883Y19990257*
X18669Y19960996*
X18816091Y19990257*
X1894078Y20073594*
X19024117Y20198283*
X19053378Y203454*
X19024117Y20492491*
X1894078Y2061718*
X18816091Y20700517*
X18669Y20729778*
G37*
G36*
X01756613Y04758715D02*
X01609496Y0472948D01*
X01484807Y04646142*
X01401495Y04521428*
X01372209Y04374337*
X01401495Y04227245*
X01484807Y04102531*
X01609496Y04019219*
X01756613Y03989959*
X01903704Y04019219*
X02028418Y04102531*
X0211173Y04227245*
X02140991Y04374337*
X0211173Y04521428*
X02028418Y04646142*
X01903704Y0472948*
X01756613Y04758715*
G37*
G36*
X03528999Y04691811D02*
X03201619Y04648708D01*
X02896565Y04522368*
X02634615Y04321352*
X02433624Y04059402*
X02307259Y03754348*
X02264156Y03426993*
X02307259Y03099638*
X02433624Y02794584*
X02634615Y02532634*
X02896565Y02331618*
X03201619Y02205278*
X03528999Y02162175*
X03856355Y02205278*
X04161409Y02331618*
X04423359Y02532634*
X04624349Y02794584*
X04750714Y03099638*
X04793818Y03426993*
X04750714Y03754348*
X04624349Y04059402*
X04423359Y04321352*
X04161409Y04522368*
X03856355Y04648708*
X03528999Y04691811*
G37*
G36*
X04112361Y01888236D02*
X0396527Y01858975D01*
X03840556Y01775637*
X03757244Y01650949*
X03727983Y01503857*
X03757244Y01356741*
X03840556Y01232027*
X0396527Y01148715*
X04112361Y01119454*
X04259478Y01148715*
X04384167Y01232027*
X04467479Y01356741*
X04496739Y01503857*
X04467479Y01650949*
X04384167Y01775637*
X04259478Y01858975*
X04112361Y01888236*
G37*
G36*
X185928Y01480667D02*
X18444133Y01451076D01*
X18318099Y01366875*
X18233898Y0124084*
X18204307Y010922*
X18233898Y00943533*
X18318099Y00817499*
X18444133Y00733298*
X185928Y00703707*
X1874144Y00733298*
X18867475Y00817499*
X18951676Y00943533*
X18981267Y010922*
X18951676Y0124084*
X18867475Y01366875*
X1874144Y01451076*
X185928Y01480667*
G37*
%LNpcb_copper_signal_2-5*%
%LPD*%
G54D39*
X02424049Y17511649D02*
X037338Y188214D01*
Y206248*
X04165599Y210566*
X042164Y203708D02*
Y18669D01*
X03079165Y17531765*
Y17520208*
X02424049Y17511649D02*
X0192405D01*
X01883587Y17471186*
X01477187Y18034D02*
X023876D01*
X033782Y190246*
Y210058*
X04190999Y218186*
X042164*
X01477187Y18034D02*
X00941781Y17498593D01*
X124206Y087884D02*
X13081Y094488D01*
Y141732*
X117856Y154686*
Y147828D02*
X127762Y137922D01*
Y110744*
X124206Y107188*
Y06858D02*
X133604Y077978D01*
Y14605*
X11811Y161544*
G54D40*
X138557Y22098D02*
X156464D01*
X138557D02*
X136017Y22352D01*
X11811*
G54D44*
X060452Y175768D02*
X062992Y178308D01*
Y216916*
X04445Y235458*
G54D45*
X120142Y234188D02*
X176784D01*
G54D47*
X011938Y151384D03*
Y164084D03*
X04699Y449072D03*
Y461772D03*
Y474472D03*
Y48717174D03*
Y49987174D03*
G54D48*
X011938Y138684D03*
X04699Y436372D03*
G54D49*
X15477058Y585724D03*
X16044316D03*
X16611574D03*
X14909774D03*
X14342516D03*
X13775258D03*
X13208D03*
X12640716D03*
X12073458D03*
X115062D03*
X04571974D03*
X04059758D03*
X03547516D03*
X03035274D03*
X02523058D03*
X02010816D03*
X014986D03*
G54D50*
X007874Y009144D03*
X013208D03*
X04112361Y01503857D03*
X06604Y006858D03*
X071374D03*
X076708D03*
X082042D03*
X111252Y02921D03*
Y034544D03*
Y039878D03*
Y045212D03*
X124206Y06858D03*
Y087884D03*
Y107188D03*
X122428Y121666D03*
X115824D03*
X10922D03*
X117856Y147828D03*
Y154686D03*
X11811Y161544D03*
X10199598Y15654578D03*
X126492Y170942D03*
X133604Y177038D03*
X157734Y164084D03*
X163068Y159258D03*
X1524Y10033D03*
Y094742D03*
X157734D03*
X122682Y177038D03*
X116078Y179324D03*
X10922D03*
X12446Y184658D03*
X124714Y189992D03*
X135636Y190754D03*
X133858Y201676D03*
X140716Y212852D03*
X164084Y211836D03*
X18669Y203454D03*
X164338Y228092D03*
X161798Y24003D03*
X156464Y22098D03*
X168656Y24765D03*
X186944Y287528D03*
X168656Y301244D03*
Y308356D03*
Y315468D03*
X16794353Y28575D03*
X135636Y293878D03*
X144526Y290068D03*
X150876Y288036D03*
X12954Y247142D03*
X118618Y264922D03*
X103124Y24989586D03*
X112014Y23495D03*
X120142Y234188D03*
X11811Y22352D03*
X11938Y21717D03*
X116332Y21082D03*
X112268Y207264D03*
X099314Y219202D03*
X087884D03*
X090932Y249936D03*
X07874Y24989586D03*
X066294Y249936D03*
X072644Y242062D03*
X071374Y230378D03*
Y224028D03*
X07239Y202184D03*
X056642Y197612D03*
X060452Y175768D03*
X063246Y16763999D03*
Y161798D03*
Y15494D03*
Y147828D03*
Y14097D03*
X074422Y145542D03*
X070358Y151384D03*
X074422Y156972D03*
X063246Y135128D03*
X071628Y123698D03*
X068072Y104902D03*
X073406Y087376D03*
Y082042D03*
Y076708D03*
Y071374D03*
X079248D03*
Y076708D03*
Y082042D03*
Y087376D03*
X092456Y102616D03*
X099822D03*
X09398Y134112D03*
X087122Y129794D03*
X08001Y124714D03*
X094996Y1495458D03*
Y15654578D03*
X08799576D03*
X094996Y16354577D03*
X085852Y18702604D03*
X042164Y218186D03*
X030988Y222758D03*
X04445Y235458D03*
X042164Y210566D03*
Y203708D03*
X02921Y19304D03*
X03079165Y17520208D03*
X03556Y16763999D03*
X047498Y190246D03*
X03556Y161798D03*
Y15494D03*
Y147828D03*
Y14097D03*
Y135128D03*
X040894Y124968D03*
Y119634D03*
Y1143D03*
X035052Y119634D03*
Y114046D03*
Y108712D03*
X02921D03*
Y114046D03*
Y103378D03*
X023368Y103124D03*
Y09779D03*
X017526D03*
Y103124D03*
Y092456D03*
X011684Y092202D03*
Y09779D03*
X005842Y092202D03*
X023368Y108712D03*
X011684Y086868D03*
X005842D03*
Y081534D03*
X00762Y06604D03*
X01756613Y04374337D03*
X007874Y014986D03*
X06604Y0127D03*
X071374D03*
X076708D03*
X082042D03*
X01883587Y17471186D03*
X00941781Y17498593D03*
X006096Y19304D03*
X018034D03*
X020066Y235458D03*
X04640122Y28489935D03*
X060706Y295656D03*
X070612Y297688D03*
X056896Y313182D03*
X079756Y297688D03*
X100076Y296418D03*
X10687608Y29661408D03*
X107696Y30607D03*
X123698Y3175D03*
X1397Y36322D03*
X168656Y357886D03*
X147828Y381508D03*
X1397Y37338D03*
X13716Y418846D03*
X143256Y418592D03*
X14351Y423926D03*
X143256Y432054D03*
Y440182D03*
Y448056D03*
X145796Y47117D03*
Y477139D03*
Y483108D03*
Y489077D03*
Y495046D03*
X154686Y513588D03*
X17018Y50292D03*
X176276D03*
X17653Y485648D03*
X17907Y470662D03*
X184912Y454152D03*
Y44704D03*
Y439928D03*
Y432816D03*
X1016Y47117D03*
Y477139D03*
Y483108D03*
Y489077D03*
Y495046D03*
X109982Y445008D03*
X117602D03*
X125476D03*
Y436118D03*
X11765178Y43605577D03*
X109982Y436118D03*
Y427228D03*
X117602D03*
X125476D03*
X080518D03*
X085344Y407162D03*
X091948Y408686D03*
X05715Y423672D03*
X065532Y405638D03*
X070612Y376936D03*
X058166Y36322D03*
X056896Y320294D03*
X080264Y362712D03*
X111506Y360934D03*
X120904Y36068D03*
X116078Y355092D03*
X123952Y346202D03*
X024384Y43053D03*
X028702Y462788D03*
X008382Y462534D03*
X015494Y41783D03*
X007366Y369824D03*
X01905Y36449D03*
X005842Y344932D03*
X023876Y34163D03*
X005842Y311658D03*
X00558977Y29224147D03*
X025908Y381762D03*
X024384Y502158D03*
X106934Y531368D03*
X116332D03*
X133604Y541274D03*
X159512Y529336D03*
X187198Y527304D03*
X186944Y574294D03*
X18042178Y5986178D03*
X18092978Y6280818D03*
X16086378Y5986178D03*
X14486178Y6280818D03*
Y6021738D03*
X10726978Y6301138D03*
X10041178Y6064918D03*
X11971578Y5963318D03*
X11176Y575818D03*
X051054Y615188D03*
X009906Y615442D03*
X00889Y574294D03*
G54D51*
X185928Y010922D03*
G54D52*
X16165576Y077486D03*
X159766Y110744D03*
X159512Y147828D03*
X16165576Y18108599D03*
M02*